<svg width="51" height="51" viewBox="0 0 51 51" fill="none" xmlns="http://www.w3.org/2000/svg">
<path fill-rule="evenodd" clip-rule="evenodd" d="M4.94628 1.16605C4.0426 1.47831 3.38532 2.13779 3.08731 3.03095C2.94094 3.46958 2.86972 3.55105 2.45847 3.7494C1.59575 4.16554 1.12381 4.79984 1.01908 5.6839C0.932442 6.41604 1.13759 6.97941 1.70192 7.55905C2.46191 8.33944 2.68659 8.37916 6.13371 8.3425C8.88507 8.31321 8.99841 8.30459 9.43159 8.09121C10.3533 7.63716 10.9499 6.57361 10.7997 5.65212C10.6534 4.75542 9.9784 3.93464 9.1669 3.66679C8.95878 3.59815 8.83941 3.49715 8.83941 3.38994C8.83941 3.29717 8.70548 2.95312 8.54169 2.62544C7.87675 1.2948 6.35791 0.678304 4.94628 1.16605ZM44.0984 1.16652C43.3832 1.4136 42.796 1.93494 42.4477 2.63205C42.2857 2.95609 42.1522 3.28971 42.1509 3.37347C42.1494 3.46403 41.909 3.64199 41.5572 3.81287C39.727 4.7021 39.7291 7.18886 41.5611 8.09121C41.9942 8.30459 42.1076 8.31321 44.8589 8.3425C48.3061 8.37916 48.5307 8.33944 49.2907 7.55905C49.8551 6.97941 50.0602 6.41604 49.9736 5.6839C49.8689 4.79984 49.3969 4.16554 48.5342 3.7494C48.1229 3.55105 48.0517 3.46958 47.9053 3.03095C47.3813 1.46003 45.6717 0.622781 44.0984 1.16652ZM6.63179 2.61328C7.11302 2.85873 7.38336 3.31125 7.48263 4.03745C7.58573 4.79103 7.77643 5.00949 8.33108 5.00949C8.86899 5.00949 9.19351 5.22603 9.32791 5.67461C9.41551 5.96697 9.4066 6.08587 9.27909 6.33256C8.97821 6.91431 8.8486 6.93537 5.76486 6.90426L2.98392 6.87621L2.69396 6.5515C2.4421 6.26948 2.41089 6.17509 2.45674 5.83372C2.51906 5.36847 2.8769 5.00949 3.2782 5.00949C4.02058 5.00949 4.28393 4.72651 4.36884 3.83738C4.47453 2.73046 5.63304 2.10372 6.63179 2.61328ZM45.7579 2.58188C46.2845 2.83174 46.5625 3.27851 46.6549 4.02366C46.7517 4.80367 46.9421 5.00949 47.5672 5.00949C48.1219 5.00949 48.4645 5.30098 48.5359 5.83372C48.5818 6.17509 48.5506 6.26948 48.2987 6.5515L48.0087 6.87621L45.2278 6.90426C42.1441 6.93537 42.0144 6.91431 41.7136 6.33256C41.4168 5.75857 41.8552 5.00949 42.488 5.00949C42.6232 5.00949 42.8817 4.94774 43.0624 4.87221C43.4029 4.72996 43.4355 4.66036 43.5386 3.8593C43.6805 2.75602 44.7851 2.12018 45.7579 2.58188ZM34.5817 6.47625C33.4128 7.09208 32.1886 9.53577 31.3279 12.9718C30.728 15.3659 30.5246 17.348 30.7696 18.4116C31.0709 19.7198 32.1175 21.0092 33.3597 21.6029C33.7472 21.7881 34.2257 21.9691 34.4231 22.0051L34.7821 22.0707L34.7788 22.6583L34.7755 23.2459L34.0683 23.5684L33.3612 23.8909L32.3246 23.6919C30.8056 23.4003 30.0251 23.3108 28.3564 23.2367L26.861 23.1702L27.2376 22.5696C28.4045 20.7084 28.7605 18.0533 28.1327 15.8942C26.7523 11.1474 21.8621 8.55224 17.2063 10.0961C15.5966 10.6299 13.9131 11.8045 13.9131 12.3939C13.9131 12.7308 14.288 13.1465 14.5921 13.1465C14.707 13.1465 15.1075 12.914 15.4819 12.6297C17.5627 11.0503 19.9979 10.6596 22.3687 11.5249C26.3759 12.9873 28.1868 17.6842 26.2052 21.475C25.8335 22.1859 25.1248 23.1235 24.7962 23.3388C24.6736 23.4191 24.1598 23.5468 23.6545 23.6227C22.7382 23.7603 22.7331 23.7599 21.7946 23.4902C19.6888 22.8849 16.1896 22.1702 14.4687 21.9939L13.8343 21.9289L13.5982 21.4865C12.9584 20.2876 12.6608 18.6505 12.8457 17.3447C12.9079 16.9048 13.0384 16.2899 13.1356 15.9783C13.3396 15.3242 13.3121 15.1293 12.9789 14.8673C12.3392 14.3641 11.9136 14.7921 11.587 16.267C11.2306 17.8765 11.3038 19.3794 11.8124 20.8977C11.9617 21.3437 12.0755 21.713 12.0651 21.7185C12.0548 21.7239 11.8461 21.7104 11.6012 21.6885L11.1561 21.6487L10.9436 21.0592C9.09472 15.9292 6.33378 15.7883 4.41738 20.7263L4.02058 21.7486L3.53418 21.8079C2.00318 21.9943 1.6148 22.0855 1.38878 22.3115C1.2069 22.4934 1.17177 22.6034 1.21848 22.8454C1.3055 23.2961 1.61882 23.5163 2.07019 23.4441C2.27227 23.4117 2.69846 23.358 3.01714 23.3247C3.56491 23.2675 3.59324 23.2747 3.53609 23.4547C3.34444 24.0586 2.97741 25.8989 2.84272 26.9315C2.64744 28.4284 2.74336 29.2354 3.23608 30.2409C3.86262 31.5195 4.89947 32.4043 6.23078 32.7964L6.92482 33.0009V34.8962C6.92482 36.6641 6.93774 36.8046 7.11628 36.9831C7.40136 37.2682 7.9137 37.2384 8.16231 36.9223C8.34745 36.687 8.36076 36.5467 8.36076 34.8277V32.9852L8.81547 32.8708C9.60859 32.6711 10.522 32.1208 11.1132 31.4868C12.3722 30.1364 12.6868 28.8565 12.3344 26.5187C12.203 25.6465 11.76 23.5322 11.6472 23.2381C11.6081 23.1363 11.7052 23.1201 12.1092 23.1606C13.8493 23.335 16.47 23.7316 18.0562 24.0605C19.0682 24.2703 19.9285 24.4422 19.968 24.4423C20.0074 24.4425 20.0397 24.4856 20.0397 24.5383C20.0397 24.5909 19.9909 24.634 19.9312 24.634C19.7107 24.634 18.0055 25.4991 17.2399 25.9994C15.6784 27.0198 14.6016 28.2913 14.1973 29.5922C13.952 30.3812 13.9253 31.5831 14.14 32.1738C14.6309 33.5248 15.6477 34.2596 18.4123 35.2617C20.6743 36.0816 21.422 36.5386 21.7758 37.3173C22.1531 38.1478 21.9199 38.9447 21.0753 39.7119C20.1499 40.5524 19.0548 41.1261 15.5883 42.5864C14.2517 43.1496 13.9381 43.3187 13.8327 43.5331C13.6067 43.9927 13.9611 44.5457 14.4814 44.5457C14.7457 44.5457 18.7016 42.84 19.8483 42.2317C21.5342 41.3372 22.636 40.3882 23.1081 39.4242C23.3046 39.0228 23.3421 38.8065 23.3405 38.084C23.3382 37.021 23.1233 36.5159 22.3415 35.7352C21.6887 35.0833 20.756 34.5926 18.891 33.9199C17.1521 33.2927 16.2917 32.8483 15.8763 32.363C15.0224 31.3654 15.3365 29.6362 16.613 28.3068C18.9437 25.8797 24.2542 24.345 29.0556 24.7111C29.8622 24.7726 30.7915 24.8712 31.1207 24.9302L31.7193 25.0375L31.0055 25.7964C29.4035 27.4992 29.202 29.0223 30.4177 30.238C31.0525 30.8727 31.8009 31.2514 34.1941 32.1485C39.8309 34.2614 42.3841 35.821 43.3192 37.7222C43.615 38.3234 43.6371 38.4348 43.6371 39.3271C43.6371 40.2403 43.6197 40.3221 43.2717 41.0516C43.0707 41.4728 42.6512 42.2302 42.3395 42.7348C42.0278 43.2394 41.6331 43.9502 41.4622 44.3144C41.1741 44.9284 41.1514 45.0497 41.1498 45.9817C41.1483 46.8988 41.1724 47.0363 41.4255 47.5518C41.7702 48.254 42.6131 49.0978 43.3759 49.5043C44.0574 49.8675 44.2563 49.8835 44.5156 49.5955C44.9729 49.0874 44.8653 48.7105 44.1471 48.3052C43.5242 47.9536 42.9029 47.3471 42.6735 46.8665C42.5643 46.6377 42.5042 46.2959 42.5073 45.921C42.513 45.1984 42.7496 44.6499 43.6289 43.3206C44.7778 41.5839 45.1719 40.4211 45.0957 38.9934C45.0215 37.6027 44.5238 36.5806 43.3484 35.4052C41.7172 33.774 38.8427 32.3058 33.5028 30.3763C31.6718 29.7147 30.9765 29.1154 31.0864 28.294C31.1165 28.0694 31.2022 27.7678 31.2768 27.6239C31.6984 26.8102 33.194 25.5685 34.532 24.921C35.9722 24.2243 37.34 23.8892 39.1069 23.8002L40.2246 23.7439L40.2875 24.1172C40.6156 26.0667 41.8528 27.5143 43.7039 28.1152L44.4029 28.3421L44.4289 30.2402C44.4583 32.3852 44.4888 32.4838 45.1209 32.4838C45.7526 32.4838 45.7834 32.3844 45.8128 30.2486L45.8388 28.3587L46.6133 28.0989C47.6448 27.753 48.0885 27.4148 48.0885 26.9745C48.0885 26.5841 47.8108 26.2614 47.4748 26.2614C47.3479 26.2614 46.971 26.3907 46.6372 26.5485C46.3034 26.7065 45.9765 26.8357 45.9106 26.8357C45.819 26.8358 45.791 26.4 45.791 24.9759C45.791 22.9724 45.7705 22.8857 45.2667 22.7593C45.0405 22.7025 44.6532 22.8514 44.524 23.0449C44.4853 23.1028 44.4531 23.9794 44.4522 24.993C44.4513 26.1434 44.4151 26.8358 44.3561 26.8358C44.304 26.8358 44.0431 26.7529 43.7763 26.6515C41.7657 25.8875 41.238 23.6304 42.199 19.9051C43.0916 16.4451 44.3265 13.9123 45.1209 13.9123C45.6933 13.9123 46.5448 15.2782 47.2737 17.3656C47.9001 19.1596 48.5671 22.2378 48.5671 23.3344C48.5671 23.5795 48.6381 23.7564 48.8021 23.9204C49.0925 24.2108 49.4168 24.2197 49.7636 23.9469C50.025 23.7413 50.0279 23.7274 49.9687 22.9585C49.707 19.5534 48.1659 14.8505 46.8345 13.3937C46.219 12.7201 45.7636 12.4764 45.1209 12.4764C44.4777 12.4764 44.0228 12.7202 43.4052 13.3959C42.2768 14.6304 40.9827 18.2169 40.4293 21.6425L40.3171 22.3365L39.5839 22.3384C38.9514 22.34 37.5755 22.4961 36.5291 22.685C36.2264 22.7396 36.218 22.7322 36.218 22.4036C36.218 22.0836 36.2381 22.0627 36.6069 22.0004C37.1491 21.9089 38.2125 21.358 38.735 20.898C39.3316 20.3729 39.9091 19.4801 40.1482 18.7132C40.524 17.5076 40.345 15.4716 39.6206 12.7157C38.9641 10.2178 38.0446 8.07963 37.2264 7.14808C36.4476 6.26124 35.4641 6.01139 34.5817 6.47625ZM36.1238 8.07446C37.3231 9.3735 38.9037 14.5192 38.9236 17.1888C38.9294 17.965 38.9048 18.0748 38.5764 18.7392C38.1136 19.6756 37.406 20.2779 36.4334 20.5631L36.218 20.6263V18.7966C36.218 16.9817 36.2161 16.965 35.983 16.732C35.6836 16.4325 35.3165 16.4325 35.0171 16.732C34.784 16.965 34.7821 16.9817 34.7821 18.7966V20.6263L34.5667 20.5631C33.6522 20.2949 32.8048 19.5716 32.4072 18.7199C32.2034 18.2831 32.1448 17.9972 32.1181 17.3075C32.0209 14.7995 33.6847 9.3221 34.9348 8.03502C35.3862 7.57025 35.6669 7.57954 36.1238 8.07446ZM8.04007 18.6919C8.69198 19.0895 9.24281 20.2191 9.98548 22.6813C10.7807 25.3181 10.9753 26.3137 10.9849 27.7931C10.993 29.0427 10.9839 29.1039 10.7104 29.6442C10.3557 30.345 9.57691 31.0693 8.91053 31.3181L8.40862 31.5056L8.36076 29.6407C8.31414 27.8236 8.30706 27.7711 8.08688 27.593C7.96262 27.4924 7.77671 27.4102 7.67371 27.4102C7.45765 27.4102 7.10058 27.5822 6.99805 27.7357C6.95938 27.7936 6.92711 28.6731 6.92625 29.6902L6.92482 31.5395L6.70943 31.4737C5.4726 31.0959 4.60338 30.1891 4.28259 28.9418C4.14273 28.3983 4.13699 28.1925 4.23702 27.3144C4.61171 24.0281 5.92789 20.113 7.05271 18.939C7.5169 18.4546 7.61187 18.4308 8.04007 18.6919ZM26.7417 26.5132C26.2395 26.987 25.9782 27.3313 25.7115 27.8709C25.3907 28.5201 25.3548 28.668 25.3603 29.3202C25.3683 30.2809 25.6658 30.9377 26.4747 31.7807C27.4403 32.7869 29.0239 33.7382 31.4506 34.7697C32.5439 35.2343 32.7818 35.2555 33.052 34.912C33.5254 34.3102 33.2584 33.9758 31.8145 33.3621C29.5974 32.4197 28.239 31.6006 27.4361 30.7221C26.4233 29.614 26.5565 28.6172 27.8809 27.3933C28.5263 26.7969 28.5998 26.5556 28.2655 26.1308C28.1206 25.9464 27.9794 25.8785 27.7408 25.8785C27.47 25.8785 27.3001 25.9865 26.7417 26.5132ZM37.5931 28.1923C37.3893 28.291 37.1753 28.646 37.1753 28.8856C37.1753 28.955 37.2646 29.1253 37.3738 29.264C37.5176 29.4469 37.6604 29.5162 37.8933 29.5162C38.1262 29.5162 38.2689 29.4469 38.4128 29.264C38.5219 29.1253 38.6113 28.955 38.6113 28.8856C38.6113 28.6324 38.393 28.2903 38.1654 28.1865C37.8916 28.0618 37.8619 28.0621 37.5931 28.1923ZM35.4957 35.5907C35.2667 35.8197 35.2008 36.1411 35.3193 36.4501C35.3516 36.5341 35.8147 36.8266 36.3484 37.1C37.6407 37.762 38.2593 38.3638 38.4142 39.1097C38.605 40.0295 38.3618 40.5647 36.9547 42.3206C35.506 44.1285 35.0933 44.8761 34.9254 45.9976C34.8469 46.5219 35.0081 47.3829 35.231 47.6291C35.4375 47.8573 36.0413 47.8573 36.2479 47.629C36.3694 47.4948 36.3986 47.2812 36.3824 46.6464C36.3634 45.9056 36.388 45.7817 36.6676 45.2145C36.8359 44.873 37.4673 43.9746 38.0706 43.2181C39.3012 41.675 39.5958 41.1908 39.8081 40.3624C39.9812 39.6863 39.8937 38.797 39.5856 38.1003C39.2058 37.2417 38.1799 36.3622 36.7703 35.6867C35.949 35.293 35.8043 35.2821 35.4957 35.5907ZM1.41607 37.2181C1.12888 37.5052 1.11624 37.8322 1.3795 38.1668C1.78013 38.6762 2.52126 38.3739 2.52126 37.7011C2.52126 37.0427 1.87423 36.7599 1.41607 37.2181ZM48.8543 37.1746C48.7358 37.2931 48.6629 37.4936 48.6629 37.7011C48.6629 38.3739 49.404 38.6762 49.8046 38.1668C50.0679 37.8322 50.0552 37.5052 49.768 37.2181C49.4834 36.9335 49.1131 36.9158 48.8543 37.1746ZM15.0096 38.0797C14.8804 38.2089 14.7746 38.4262 14.7746 38.5627C14.7746 38.8755 15.1712 39.2806 15.4777 39.2806C15.8644 39.2806 16.1531 38.9737 16.1531 38.5627C16.1531 37.9048 15.4721 37.6171 15.0096 38.0797ZM5.60777 42.6344C5.17996 42.8063 5.09141 43.4645 5.448 43.8211C5.65363 44.0268 6.1877 44.0126 6.38347 43.7963C6.63686 43.5163 6.58852 42.969 6.28965 42.7339C6.01376 42.5168 5.93067 42.5047 5.60777 42.6344ZM9.31135 45.5133C7.61187 46.4849 6.46666 47.3095 5.41708 48.3168C4.83581 48.8746 4.76794 49.1943 5.14952 49.5758C5.52123 49.9477 5.78545 49.8801 6.51337 49.2272C7.41687 48.4168 8.89799 47.3805 10.1259 46.6997C10.6956 46.3838 11.2256 46.0287 11.3035 45.9106C11.5639 45.5162 11.1961 44.8329 10.7234 44.8329C10.6011 44.8329 9.96576 45.1391 9.31135 45.5133ZM46.4611 45.4073C46.0492 45.8191 46.3503 46.5879 46.9235 46.5879C47.5198 46.5879 47.8197 45.941 47.4608 45.4287C47.266 45.1505 46.7293 45.1391 46.4611 45.4073Z" fill="white" stroke="white" stroke-width="0.5"/>
</svg>
