<svg width="48" height="48" viewBox="0 0 48 48" fill="none" xmlns="http://www.w3.org/2000/svg">
<path fill-rule="evenodd" clip-rule="evenodd" d="M36.1826 1.11153C35.55 1.25082 34.9213 1.49339 34.2967 1.83933C32.8782 2.62478 32.4207 3.06501 16.625 18.843C-0.398552 35.8474 0.721518 34.6545 1.22695 35.2421C1.39076 35.4326 1.5287 35.5 1.7525 35.4991C2.14091 35.4974 4.61446 34.7057 6.41167 34.0077C7.93057 33.4179 11.0849 31.9081 12.4125 31.1354L13.2494 30.6484L14.3049 30.9372C14.8854 31.096 15.7615 31.3091 16.252 31.4106C17.6886 31.7081 20.6498 32.0501 21.8135 32.0529C22.8388 32.0553 22.8347 32.0362 22.0357 33.0876C21.3009 34.0544 21.1612 34.3969 21.2682 34.9679C21.3538 35.424 21.6055 35.6785 23.553 37.2784C24.5226 38.0749 25.3727 38.7782 25.4419 38.8411C25.5497 38.9391 25.5381 39.1379 25.3621 40.2169L25.1563 41.4779L24.8769 41.5259C24.7233 41.5522 23.2033 41.7955 21.4992 42.0665C16.8886 42.7998 8.67417 44.2915 4.37207 45.1768C2.95241 45.469 2.69394 45.5901 2.58788 46.0126C2.51397 46.3069 2.72376 46.7084 3.02757 46.854C3.24464 46.958 3.39165 46.9499 4.10445 46.7938C6.33471 46.3055 13.8466 44.9016 18.0865 44.1808C21.9463 43.5245 29.3479 42.3795 29.7309 42.3795C29.7702 42.3795 29.6517 42.5037 29.4676 42.6555C29.05 42.9996 29.0062 43.4286 29.3532 43.7756C30.0051 44.4275 31.3779 43.5207 31.3779 42.4383V42.1494L32.6128 41.9945C33.292 41.9094 33.9274 41.8399 34.0248 41.8401C34.1837 41.8406 34.179 41.8565 33.9799 41.9937C33.4386 42.3668 33.3709 42.8556 33.8096 43.2247C34.1531 43.5138 34.3225 43.5154 34.8755 43.2352C35.4242 42.9571 35.7053 42.5711 35.7579 42.023L35.7986 41.5996L36.822 41.4993L37.8455 41.3991L41.8529 43.7378C44.0569 45.0242 45.9893 46.0976 46.1472 46.1232C46.5749 46.1926 46.954 45.8416 46.9412 45.3881C46.9355 45.1889 46.8639 44.9849 46.7659 44.8895C46.6747 44.8007 45.2342 43.9323 43.5647 42.9596C41.8952 41.9869 40.5419 41.1784 40.5574 41.163C40.581 41.1394 43.1418 40.9492 45.1919 40.8188C45.627 40.7911 45.8103 40.7348 45.9777 40.5775C46.2801 40.2935 46.2772 39.7929 45.9714 39.5056C45.7716 39.3179 45.6701 39.2965 45.0509 39.3109C43.3292 39.3513 36.9029 39.9026 34.9604 40.1766C34.6472 40.2207 34.5312 40.1361 31.5029 37.6525C29.7795 36.2391 28.2537 34.9855 28.1122 34.8666L27.8549 34.6505L28.3816 33.9588C28.6713 33.5784 29.2459 32.8623 29.6587 32.3676C30.0714 31.8728 30.4554 31.4036 30.5118 31.3249C30.5683 31.2461 30.8369 31.1088 31.1085 31.0198C35.2401 29.6659 38.8332 25.2607 39.8249 20.3332C39.9277 19.8223 40.0432 18.724 40.0922 17.7901C40.1398 16.886 40.2383 15.8555 40.3112 15.5C40.4991 14.584 41.1844 13.2601 42.2386 11.7771C42.7339 11.0803 43.226 10.3155 43.3321 10.0775C43.4383 9.83958 43.5538 9.58435 43.589 9.51026C43.6241 9.43617 44.3337 8.85018 45.1659 8.20806C46.7513 6.98471 46.9991 6.69356 47 6.0527C47.0008 5.46635 46.5452 4.83357 45.9715 4.62441C45.8173 4.56819 42.4137 3.85243 42.3006 3.85243C42.2783 3.85243 42.0504 3.58894 41.7941 3.26689C40.4227 1.5435 38.163 0.675521 36.1826 1.11153ZM38.3061 2.68468C38.9309 2.88099 39.5625 3.21139 39.6142 3.36891C39.6332 3.42666 39.4839 3.495 39.262 3.53012C38.6462 3.62756 36.8538 4.25549 36.0779 4.64561C34.3439 5.51745 32.4484 7.10919 31.4402 8.54017C30.9532 9.23132 30.3932 10.2583 30.1622 10.8841C30.0415 11.211 29.9686 11.3015 29.8598 11.2593C29.3458 11.0599 28.6046 10.9235 27.8081 10.8819C27.3019 10.8555 26.8876 10.8047 26.8876 10.7692C26.8876 10.6381 32.9755 4.68404 33.7129 4.09401C34.1328 3.75805 34.8067 3.31862 35.2104 3.11764C36.4602 2.49536 37.3206 2.37502 38.3061 2.68468ZM41.4911 5.69015C41.9842 6.73128 42.1842 7.61399 42.1328 8.52238C42.0875 9.324 42.0082 9.48556 40.9 11.037C40.4589 11.6544 39.9132 12.5101 39.6871 12.9384C38.9001 14.4296 38.6895 15.309 38.5627 17.6327C38.4711 19.3138 38.3308 20.2403 38.0112 21.2749C37.8218 21.8885 37.3172 23.1552 37.2137 23.2774C37.1561 23.3453 35.7887 22.6127 35.3473 22.2774L35.1408 22.1205L35.382 21.2262C35.8246 19.5856 35.784 17.445 35.2825 15.9702C34.6775 14.1918 33.7459 13.0933 32.1553 12.2833C31.3381 11.8671 31.3424 11.8909 31.8891 10.8125C33.363 7.90496 36.2799 5.73873 39.6851 5.02288C41.09 4.72751 41.0234 4.7029 41.4911 5.69015ZM45.3829 6.08799C45.3765 6.16208 43.7811 7.3549 43.6884 7.3549C43.6478 7.3549 43.5881 7.18893 43.5556 6.98597C43.5232 6.7831 43.417 6.39046 43.3196 6.1135C43.2223 5.83653 43.1426 5.60438 43.1426 5.59756C43.1426 5.59082 43.6478 5.68611 44.2652 5.80932C44.8826 5.93263 45.3856 6.058 45.3829 6.08799ZM39.0345 6.50488C38.6738 6.65647 38.502 7.08206 38.6537 7.44812C38.787 7.76989 38.9857 7.89374 39.3689 7.89374C39.9686 7.89374 40.2912 7.18678 39.9116 6.70434C39.6952 6.42917 39.3832 6.35822 39.0345 6.50488ZM29.3854 12.7303C29.8454 12.8847 30.669 13.2399 31.2157 13.5195C32.7466 14.3026 33.4013 15.075 33.9068 16.6948C34.0916 17.2869 34.1165 17.5421 34.1124 18.8053C34.108 20.1333 34.0885 20.3 33.8548 21.0055C32.7049 24.4775 30.1497 26.3532 25.8964 26.8477C24.7141 26.9851 21.8943 26.9106 20.6011 26.7076C18.6063 26.3946 16.0371 25.7007 14.0945 24.9505C13.5735 24.7492 13.1472 24.5558 13.1472 24.5208C13.1472 24.4858 15.6628 21.949 18.7376 18.8837C24.6062 13.0329 24.7128 12.9384 25.8892 12.5499C26.2978 12.4149 26.5984 12.3895 27.4713 12.4162C28.3856 12.4443 28.6758 12.4919 29.3854 12.7303ZM35.2396 24.0166C35.4125 24.1248 35.7459 24.3217 35.9805 24.4543C36.2152 24.5867 36.4071 24.7165 36.4071 24.7426C36.4071 24.8937 35.4346 26.1109 34.7134 26.8626C32.8737 28.7799 31.1909 29.6264 28.0551 30.2118C25.6354 30.6635 21.7378 30.6605 18.356 30.2042C17.2404 30.0536 15.2068 29.6445 15.1056 29.5503C15.0713 29.5184 15.3946 29.2409 15.824 28.9337C16.2534 28.6265 16.8086 28.2132 17.0577 28.0154L17.5108 27.6557L18.2252 27.8237C20.0551 28.2542 21.9758 28.4729 23.924 28.4727C27.4005 28.4723 30.0852 27.717 32.088 26.1759C32.7335 25.6792 33.7115 24.6427 34.1313 24.0103L34.4587 23.5173L34.692 23.6686C34.8203 23.7518 35.0667 23.9084 35.2396 24.0166ZM12.9767 26.1555C13.4903 26.3701 14.3081 26.6777 14.7941 26.8391C15.28 27.0005 15.6437 27.1626 15.6023 27.1993C14.7674 27.9408 11.5562 29.9293 9.66726 30.8743C8.19936 31.6087 4.86637 33.0396 4.62344 33.0396C4.59488 33.0396 6.20781 31.4029 8.20781 29.4024C10.2078 27.402 11.8889 25.7653 11.9436 25.7653C11.9982 25.7653 12.4632 25.9408 12.9767 26.1555ZM27.3815 32.7477C26.4969 33.8673 26.3488 34.1408 26.3488 34.6561C26.3488 35.3267 26.5397 35.5582 28.2485 36.96C29.5617 38.0372 29.8538 38.3178 29.8187 38.468C29.795 38.5695 29.7263 38.9669 29.666 39.3511C29.6057 39.7353 29.5272 40.0677 29.4916 40.0897C29.4561 40.1116 27.9273 38.896 26.0943 37.3883L22.7617 34.6469L23.4013 33.8208C23.7531 33.3664 24.2145 32.7887 24.4267 32.537L24.8124 32.0792L25.8725 32.0133C26.4555 31.977 27.1144 31.9152 27.3366 31.8761C28.2118 31.7217 28.2106 31.6986 27.3815 32.7477ZM32.3691 40.3629C32.4413 40.4498 32.335 40.4888 31.8976 40.5357C31.5871 40.569 31.2571 40.618 31.1642 40.6445C31.0098 40.6885 31.0007 40.6554 31.0584 40.2564C31.1905 39.3412 31.15 39.3661 31.7465 39.8347C32.0378 40.0635 32.3179 40.3011 32.3691 40.3629ZM27.5412 40.5564C28.1239 41.0294 28.1092 41.0666 27.3009 41.1643L26.7711 41.2283L26.8294 40.8035C26.8614 40.5698 26.8876 40.3237 26.8876 40.2565C26.8876 40.0619 26.9895 40.1086 27.5412 40.5564Z" fill="white" stroke="white" stroke-width="0.2"/>
</svg>
