<svg width="51" height="51" viewBox="0 0 51 51" fill="none" xmlns="http://www.w3.org/2000/svg">
<path fill-rule="evenodd" clip-rule="evenodd" d="M34.8145 1.09899C34.4163 1.14525 33.6554 1.29313 33.1233 1.42756C26.7767 3.03196 22.3495 8.72648 22.3429 15.2939L22.3421 16.106L21.8843 15.9097C20.4812 15.3083 18.4169 15.0825 16.8412 15.3582C13.0728 16.0176 10.0695 18.8034 9.19927 22.4469C9.09331 22.8909 8.98536 23.2752 8.95947 23.3011C8.93357 23.327 8.68477 23.2993 8.40651 23.2397C7.19029 22.9788 5.76066 23.1941 4.45063 23.8355C2.85117 24.6184 1.55093 26.2464 1.14486 27.9747C0.951713 28.7968 0.951713 30.118 1.14486 30.9401C1.6394 33.0449 3.35243 34.8402 5.53795 35.5445C5.98791 35.6894 6.58841 35.7294 9.02233 35.7764L11.9631 35.8331L9.24474 39.2311C6.30748 42.9028 6.27625 42.9561 6.7691 43.4488L7.01167 43.6915H9.73453C11.2321 43.6915 12.4573 43.7219 12.4573 43.7591C12.4573 43.7963 12.0125 45.0113 11.4688 46.4592C10.9252 47.9072 10.4803 49.1909 10.4803 49.3122C10.4803 49.4334 10.5896 49.6416 10.723 49.7751C11.0533 50.1053 11.4839 50.0943 11.8512 49.7459C12.0087 49.5964 13.8633 47.5836 15.9725 45.2731C18.0816 42.9625 20.0217 40.8411 20.2839 40.559C20.8444 39.9556 20.9086 39.5801 20.5178 39.1895L20.2753 38.9468H17.7943H15.3133L16.6284 37.3714L17.9433 35.7959L22.9104 35.7898L27.8775 35.7837V37.3652V38.9468H28.6683H29.4591V37.3652V35.7837L31.3619 35.782C33.6173 35.7799 34.2802 35.6659 35.4724 35.0753C37.3728 34.134 38.7023 32.1793 38.92 30.0065L38.9979 29.2293L39.8381 29.0062C44.057 27.8858 47.592 25.0049 49.5614 21.0821C50.0829 20.0434 50.1193 19.7623 49.7768 19.4199C49.4639 19.107 49.2598 19.1141 48.1331 19.4775C46.689 19.9431 46.0466 20.0256 44.9108 19.8909C42.2881 19.5802 40.005 18.4798 38.2071 16.6602C35.0925 13.5078 34.1473 8.76592 35.8253 4.71217C36.1734 3.87128 36.6692 2.97255 37.1127 2.37867C37.4353 1.94661 37.4394 1.54697 37.1243 1.23194C36.9109 1.01853 36.8006 0.990852 36.2099 1.00212C35.8405 1.00914 35.2125 1.05273 34.8145 1.09899ZM34.9946 2.72197C34.9946 2.75064 34.8588 3.04333 34.6927 3.37219C33.8244 5.09214 33.3458 7.42505 33.4477 9.44075C33.6155 12.7616 34.8103 15.4533 37.1598 17.8028C39.0424 19.6853 41.064 20.7789 43.6438 21.3102C44.6758 21.5228 46.9336 21.5611 47.3753 21.3735C47.5247 21.3099 47.6471 21.2829 47.6471 21.3135C47.6471 21.5339 46.4321 23.0658 45.5733 23.9283C43.9838 25.5243 42.2586 26.5903 40.16 27.2733C38.6386 27.7684 38.744 27.7843 38.4292 27.0117C37.6947 25.2086 36.0145 23.7841 34.0886 23.3314L33.3863 23.1665L33.2186 22.6298C32.9577 21.7955 32.6445 21.2618 32.0499 20.6383C30.789 19.3164 28.7456 18.8332 27.0868 19.4645C26.7877 19.5783 26.5171 19.6714 26.4854 19.6714C26.4536 19.6715 26.2586 19.4261 26.052 19.1261C25.8453 18.826 25.3015 18.2257 24.8433 17.7921L24.0104 17.0036L23.9544 15.7922C23.7935 12.3144 25.0523 8.99762 27.4888 6.47908C29.2938 4.61323 31.4485 3.40056 33.9073 2.86678C34.8325 2.66593 34.9946 2.64438 34.9946 2.72197ZM20.2257 17.0016C22.3925 17.5468 24.1432 18.887 25.3124 20.896C25.7634 21.6707 26.0427 21.7906 26.6261 21.4597C27.7342 20.8312 27.7973 20.8111 28.6683 20.8111C29.3924 20.811 29.5798 20.8484 30.0242 21.0815C30.8326 21.5054 31.4256 22.1928 31.672 22.9915C31.7289 23.1758 31.6749 23.2113 31.1658 23.3243C29.3704 23.7226 27.7806 25.008 26.9369 26.7434C26.6047 27.4266 26.296 28.5943 26.296 29.1673V29.4574H27.0649H27.8338L27.9415 28.7734C28.2381 26.8897 29.6391 25.346 31.4896 24.8641C33.9631 24.2198 36.5543 25.7859 37.2156 28.3248C37.8617 30.8053 36.2942 33.3894 33.7399 34.0546C33.2548 34.1811 31.6264 34.2021 22.3593 34.2021H11.5446L11.883 33.8276C12.3769 33.2809 12.8333 32.5901 13.102 31.9827L13.3378 31.4492L12.5836 31.1956C12.1688 31.0561 11.8261 30.9527 11.8221 30.9657C11.818 30.9789 11.6676 31.2856 11.4876 31.6474C10.9131 32.8025 9.76438 33.7084 8.43488 34.0546C5.97684 34.6949 3.38327 33.1215 2.72386 30.59C1.92428 27.5202 4.51804 24.4805 7.7126 24.7438C8.83126 24.836 8.85321 24.8557 8.98537 25.8862C9.0766 26.5972 9.42375 28.0253 9.53506 28.1475C9.566 28.1815 10.8104 27.6761 10.8945 27.5953C10.9321 27.5593 10.8731 27.2185 10.7633 26.838C10.3243 25.3143 10.4332 23.1824 11.0243 21.7274C11.9826 19.369 14.2029 17.4839 16.6494 16.9516C17.5956 16.7457 19.3036 16.7696 20.2257 17.0016ZM37.3669 38.5514V42.1099H38.1577H38.9485V38.5514V34.9929H38.1577H37.3669V38.5514ZM14.3844 37.6113C12.7451 39.5671 12.6475 39.7586 13.0415 40.2456C13.2286 40.4769 13.2522 40.4793 15.6825 40.5284L18.1348 40.5778L15.8397 43.0752C14.5774 44.4487 13.5446 45.5317 13.5446 45.4818C13.5446 45.432 13.7447 44.8641 13.9892 44.22C14.4882 42.9056 14.5136 42.7243 14.2454 42.3927C14.0579 42.161 14.0387 42.159 11.5274 42.1099L8.99812 42.0605L11.4938 38.9271L13.9894 35.7938L14.9528 35.7887L15.9162 35.7837L14.3844 37.6113ZM32.6222 42.5053V47.6454H33.413H34.2038V42.5053V37.3652H33.413H32.6222V42.5053Z" fill="white" stroke="white" stroke-width="0.5"/>
</svg>
