<svg width="46" height="46" viewBox="0 0 46 46" fill="none" xmlns="http://www.w3.org/2000/svg">
<path fill-rule="evenodd" clip-rule="evenodd" d="M8.7901 0.137529C7.88286 0.381478 7.05972 0.917088 6.43839 1.66762C6.22949 1.92002 6.14871 1.94994 5.56153 1.9919C4.34762 2.07879 3.30246 2.80677 2.77431 3.93325C2.56522 4.37928 2.53539 4.55575 2.53593 5.34169C2.53647 6.15494 2.56136 6.28936 2.7983 6.7583C3.10972 7.37478 3.8519 8.10555 4.44457 8.37924C4.86876 8.57511 4.9092 8.57655 10.8994 8.60126L16.9273 8.62615L17.1666 8.38687C17.6642 7.88918 17.3808 7.02139 16.6746 6.88014C16.5208 6.84941 15.7329 6.82425 14.9237 6.82425C14.1145 6.82425 13.4524 6.80916 13.4524 6.79065C13.4524 6.77214 13.5514 6.57985 13.6724 6.36331C14.1412 5.52472 14.3007 4.2162 14.0489 3.27508C13.4321 0.969472 11.0287 -0.464482 8.7901 0.137529ZM10.6639 1.93476C11.315 2.12803 12.0136 2.81989 12.2369 3.49244C12.6522 4.74273 12.0863 6.05691 10.8935 6.61238C10.4538 6.81715 10.3767 6.82254 7.87235 6.82335C5.35442 6.82425 5.29637 6.82012 5.00534 6.62208C4.47584 6.26178 4.33235 5.98251 4.33235 5.31266C4.33235 4.828 4.3726 4.6562 4.54206 4.41863C4.93858 3.86272 5.62343 3.65471 6.37217 3.86263C6.8873 4.00576 7.25138 3.81033 7.5912 3.20823C8.25449 2.03296 9.39831 1.5589 10.6639 1.93476ZM30.8283 3.82085C30.6743 3.89731 30.5024 4.06039 30.4464 4.18331C30.3718 4.34702 30.3446 8.68851 30.3446 20.4411V36.4755H29.864C29.5996 36.4755 29.074 36.5017 28.6959 36.5337L28.0084 36.5917V25.6335V14.6753L27.8201 14.4731C27.5212 14.1522 27.2672 14.1023 25.936 14.1023H24.6839L24.6835 13.0915C24.6832 11.9653 24.5455 11.5762 24.0858 11.4014C23.9362 11.3445 22.5941 11.3202 20.4844 11.3363L17.1214 11.3618L16.8593 11.6553C16.6006 11.9448 16.5972 11.9628 16.5972 13.0255V14.1023L15.3168 14.1025C13.8134 14.1026 13.479 14.2069 13.3001 14.7313C13.2298 14.9377 13.1912 15.7671 13.1878 17.1453C13.1832 19.1018 13.1721 19.2416 13.0256 19.1973C12.939 19.1711 12.6344 19.0645 12.3485 18.9602C11.3467 18.5951 10.5925 18.4777 9.27422 18.4819C8.21747 18.4851 7.87253 18.5232 7.11777 18.7197C5.45873 19.1516 3.98129 19.9955 2.82965 21.169C1.98459 22.0301 1.556 22.6324 1.04905 23.6716C-0.037803 25.8994 -0.183184 28.2381 0.612548 30.6929L0.791444 31.2449L0.526829 31.662C-0.0618835 32.5904 -0.16153 33.7226 0.249724 34.8133C0.529345 35.5551 1.34098 36.3694 2.07337 36.643C3.16534 37.051 4.29676 36.9562 5.19223 36.3816C5.60501 36.1167 5.61211 36.1157 5.95894 36.2617C6.5419 36.5072 7.34878 36.7146 8.17749 36.8323L8.96351 36.9438L8.93917 38.7014L8.91481 40.459L7.74673 40.9658C5.26897 42.0408 2.49415 43.6024 1.66517 44.3885C1.11303 44.912 1.08131 45.2377 1.53794 45.6944L1.84344 45.9999H14.2116C27.5377 45.9999 26.9485 46.02 27.1971 45.5555C27.3157 45.3341 27.3159 44.8693 27.1977 44.6482C26.9781 44.2379 27.2885 44.2502 15.9876 44.2028L5.26959 44.1579L6.22697 43.6724C7.61097 42.9708 8.88894 42.4069 8.97511 42.4601C9.01608 42.4855 9.04959 42.5574 9.04959 42.6201C9.04959 42.8669 9.50011 43.1655 9.87255 43.1655C10.1691 43.1655 10.2841 43.1117 10.4964 42.874C10.7083 42.637 10.7568 42.5009 10.7568 42.1446V41.7065L11.6778 41.3854C15.3796 40.095 19.525 39.1903 24.0549 38.6842C26.8812 38.3684 28.0145 38.3178 32.2315 38.3185C37.1188 38.3192 39.1795 38.443 43.6645 39.005C44.9205 39.1624 45.214 39.1748 45.4433 39.0798C46.0177 38.8419 45.9789 40.1232 45.9789 21.3862V4.31126L45.7167 4.0178L45.4546 3.72434L38.2814 3.70305C31.9599 3.68427 31.0751 3.69829 30.8283 3.82085ZM44.1819 18.3703V31.2641H38.1618H32.1416V18.3703V5.47647H38.1618H44.1819V18.3703ZM20.308 6.96047C19.7009 7.21583 19.5513 7.90526 20.0047 8.35866C20.4467 8.80064 21.1294 8.70351 21.4113 8.15847C21.786 7.43399 21.0591 6.64473 20.308 6.96047ZM34.3677 8.49182C34.233 8.56487 34.0815 8.70216 34.0308 8.79678C33.9 9.04127 33.9089 12.7705 34.041 13.0605C34.2665 13.5554 34.4101 13.5714 38.3817 13.5437L42.0215 13.5183L42.2705 13.2693L42.5196 13.0204L42.5469 10.9964L42.5741 8.97235L42.2639 8.66209L41.9535 8.35174L38.2831 8.35533C35.2191 8.3583 34.5722 8.38085 34.3677 8.49182ZM40.7675 10.9575V11.7661H38.2516H35.7357V10.9575V10.1488H38.2516H40.7675V10.9575ZM22.8869 14.244C22.8869 15.3732 22.887 15.3742 23.1495 15.6367L23.4121 15.8993H24.8118H26.2114V26.2732V36.6471L25.9194 36.6901C25.7587 36.7137 24.9602 36.8003 24.1448 36.8824C21.5596 37.1429 19.0062 37.5637 16.4793 38.1457C15.7473 38.3144 15.1105 38.4523 15.0641 38.4523C15.0166 38.4523 14.9798 38.0071 14.9798 37.4315V36.4107L15.811 36.4541C17.1756 36.5254 18.4056 36.0912 19.3384 35.209L19.8043 34.7683H21.7008C23.7545 34.7683 23.9789 34.7267 24.1965 34.306C24.437 33.8409 24.2702 33.278 23.8328 33.0787C23.6818 33.0098 23.0859 32.9713 22.1733 32.9713H20.7495L20.8375 32.5894C20.9555 32.077 20.8806 30.6818 20.7096 30.2083L20.5717 29.8265H22.0845C23.7316 29.8265 23.9862 29.7707 24.1965 29.3642C24.3526 29.0621 24.3584 28.8309 24.2171 28.5211C24.0099 28.0663 23.802 28.0294 21.4484 28.0294H19.2822L18.9391 27.7536C18.6187 27.4962 18.5919 27.4373 18.5355 26.8648C18.5023 26.5276 18.4022 25.9457 18.3131 25.5718L18.1511 24.8918L20.9757 24.8657L23.8003 24.8396L24.0725 24.5349C24.3089 24.2702 24.3382 24.1816 24.2952 23.8612C24.2623 23.6156 24.1671 23.4245 24.0105 23.2899C23.7761 23.0882 23.7654 23.0875 20.5647 23.0875H17.3541L16.9612 22.481C16.745 22.1474 16.2101 21.5209 15.7724 21.0887L14.9766 20.3028L15.0007 18.1235L15.0248 15.9443L16.493 15.8993L17.9611 15.8544L18.1777 15.6023C18.3814 15.3651 18.3942 15.284 18.3942 14.232V13.1139H20.6405H22.8869V14.244ZM34.2013 16.162L33.9387 16.4246V18.4518V20.4789L34.2009 20.7724L34.4631 21.0658H38.2422H42.0214L42.2704 20.8169L42.5196 20.568L42.5471 18.6239C42.5664 17.2615 42.5425 16.6022 42.4671 16.4201C42.2539 15.9055 42.2026 15.8993 38.1593 15.8993H34.464L34.2013 16.162ZM40.7675 18.5051V19.3137H38.2516H35.7357V18.5051V17.6964H38.2516H40.7675V18.5051ZM17.1612 18.3049C16.6335 18.715 16.7473 19.5573 17.3653 19.8156C17.6388 19.9298 18.1781 19.9472 20.7455 19.9246L23.8003 19.8978L24.0624 19.6043C24.4205 19.2033 24.4204 18.7668 24.0619 18.4083L23.7992 18.1456L20.5801 18.1476C17.6689 18.1494 17.3418 18.1645 17.1612 18.3049ZM11.1702 20.4841C14.349 21.2971 16.7769 24.3903 16.7769 27.6271C16.7769 28.4344 16.8664 28.5986 17.5368 29.022C18.6777 29.7426 19.1605 30.6058 19.0921 31.8032C19.0457 32.6175 18.8215 33.1637 18.3027 33.7265C17.3465 34.7638 15.6805 34.9778 14.4815 34.2174C13.8234 33.8 13.6869 33.8034 12.7763 34.2593C12.0318 34.6322 11.1599 34.948 10.8752 34.948C10.7201 34.948 10.7034 29.6181 10.8567 29.0657C10.9235 28.8254 11.1537 28.5034 11.5633 28.0773C12.2392 27.3744 12.3741 27.1639 12.3741 26.8133C12.3741 26.4752 11.846 25.9628 11.4975 25.9628C11.0403 25.9628 9.99771 26.9167 9.42958 27.8548C9.15256 28.3123 8.95974 29.1359 8.95974 29.8616V30.4879L8.16266 29.7079C7.45103 29.0116 7.32982 28.9279 7.03259 28.9279C6.54792 28.9279 6.17432 29.3206 6.17432 29.8299C6.17432 30.1927 6.21978 30.2529 7.41653 31.4765C8.85048 32.9427 8.95974 33.1484 8.95974 34.3831V35.1339L8.48802 35.0738C7.82868 34.9898 6.60714 34.6289 6.08231 34.3629C5.40267 34.0185 5.03697 34.0759 4.54206 34.605C4.07842 35.1005 3.40219 35.2483 2.78275 34.9895C2.33726 34.8034 2.13689 34.6118 1.94057 34.1843C1.62707 33.5016 1.80794 32.7557 2.42478 32.1876C2.87323 31.7745 2.90073 31.5537 2.59361 30.8318C1.66068 28.6396 1.68826 26.3863 2.67205 24.4127C4.25525 21.2367 7.76623 19.6136 11.1702 20.4841ZM34.2013 23.7096L33.9387 23.9722V25.9994V28.0265L34.2008 28.32L34.4629 28.6134L38.0869 28.6379C41.4066 28.6602 41.7372 28.6488 42.0241 28.5031C42.5298 28.246 42.5617 28.0996 42.5632 26.0243C42.5646 24.0852 42.5346 23.8998 42.1721 23.6062C41.9975 23.4647 41.6474 23.4508 38.2222 23.4489L34.464 23.4469L34.2013 23.7096ZM40.7675 26.0527V26.8613H38.2516H35.7357V26.0527V25.244H38.2516H40.7675V26.0527ZM44.1819 35.1548V37.2484L43.2609 37.1368C40.2278 36.7691 35.9222 36.4757 33.5568 36.4756L32.1416 36.4755V34.7683V33.0611H38.1618H44.1819V35.1548ZM13.1626 37.564L13.1379 39.0118L11.9452 39.3959L10.7526 39.7799L10.7771 38.2983L10.8017 36.8165L11.6104 36.6093C12.0552 36.4954 12.5606 36.3394 12.7335 36.2627C12.9065 36.1859 13.0794 36.1216 13.1177 36.1196C13.1559 36.1177 13.1762 36.7676 13.1626 37.564ZM29.7865 44.4632C29.5454 44.6787 29.495 44.7887 29.495 45.1013C29.495 45.7498 30.1716 46.1863 30.7324 45.8995C31.5902 45.4608 31.2738 44.2028 30.3055 44.2028C30.1803 44.2028 29.9467 44.32 29.7865 44.4632ZM33.74 44.4632C33.4989 44.6787 33.4485 44.7887 33.4485 45.1013C33.4485 45.414 33.4989 45.524 33.74 45.7395L34.0314 45.9999H39.6415C43.7997 45.9999 45.3126 45.9721 45.4872 45.8925C45.7448 45.7752 45.9789 45.3984 45.9789 45.1013C45.9789 44.8043 45.7448 44.4275 45.4872 44.3102C45.3126 44.2306 43.7997 44.2028 39.6415 44.2028H34.0314L33.74 44.4632Z" fill="white"/>
</svg>
