<svg width="48" height="44" viewBox="0 0 48 44" fill="none" xmlns="http://www.w3.org/2000/svg">
<path fill-rule="evenodd" clip-rule="evenodd" d="M15.7893 1.17787L15.5525 1.36404V2.88502C15.5525 4.28614 15.5667 4.4201 15.7322 4.58561C16.003 4.85632 16.4807 4.82524 16.7199 4.52118C16.9012 4.29063 16.9103 4.1953 16.8836 2.80595C16.8563 1.38452 16.8482 1.32891 16.6432 1.16313C16.3684 0.940846 16.0844 0.945697 15.7893 1.17787ZM8.90364 4.04651C8.7987 4.15145 8.72394 4.34598 8.72394 4.51409C8.72394 4.76189 8.87157 4.94968 9.78381 5.86184C10.9482 7.0262 11.1417 7.11776 11.5583 6.70112C11.979 6.28045 11.8858 6.08215 10.7218 4.92111C9.80861 4.01039 9.62505 3.86681 9.37401 3.86681C9.20311 3.86681 9.00931 3.94084 8.90364 4.04651ZM21.7793 4.78193C21.2584 5.29165 20.781 5.82715 20.7185 5.97199C20.4928 6.4942 20.9136 7.01524 21.4532 6.8819C21.7934 6.79789 23.6052 4.98553 23.6893 4.64518C23.7823 4.26871 23.495 3.92009 23.0615 3.88343C22.7444 3.85665 22.6754 3.90499 21.7793 4.78193ZM12.9534 4.28326C12.7401 4.55434 12.7266 4.66764 12.8694 4.98122C13.0084 5.28626 13.377 5.40585 13.726 5.25912C14.0154 5.13747 14.1149 4.97466 14.1149 4.62316C14.1149 4.06924 13.3076 3.83293 12.9534 4.28326ZM18.4716 4.22738C18.0985 4.63961 18.4055 5.33433 18.9607 5.33433C19.3531 5.33433 19.5958 5.07924 19.5958 4.66665C19.5958 4.41678 19.5427 4.2891 19.396 4.1864C19.115 3.98954 18.669 4.00931 18.4716 4.22738ZM15.4782 5.76138C13.2319 6.0489 11.2612 7.81328 10.7461 9.99817C10.5764 10.7178 10.5762 11.9303 10.7457 12.6492C11.2199 14.66 12.8673 16.3025 14.9236 16.8144C15.7458 17.0191 17.0961 16.9631 17.8886 16.6914C18.907 16.3423 19.3907 16.0361 20.1818 15.2396C21.558 13.8542 22.0983 12.0698 21.7073 10.2012C21.111 7.35137 18.3623 5.39219 15.4782 5.76138ZM17.5693 7.29827C19.5054 7.93719 20.74 9.94318 20.4299 11.9462C20.0683 14.2827 17.8008 15.9553 15.5424 15.5517C13.4316 15.1745 11.9585 13.4398 11.9585 11.3312C11.9585 10.176 12.3134 9.27973 13.1066 8.43172C14.2686 7.18955 15.9477 6.76312 17.5693 7.29827ZM9.09898 8.11797C8.8226 8.41222 8.84093 8.83605 9.1404 9.07154C9.52675 9.37551 9.90655 9.30461 10.1218 8.88825C10.4757 8.20413 9.62199 7.56135 9.09898 8.11797ZM22.3968 8.11797C22.1204 8.41222 22.1387 8.83605 22.4382 9.07154C22.9188 9.44963 23.4953 9.18368 23.4953 8.58393C23.4953 7.97358 22.8068 7.68157 22.3968 8.11797ZM6.03501 10.9322C5.7925 11.2403 5.79996 11.4373 6.06555 11.7461L6.28245 11.9982H7.78052H9.27859L9.50204 11.7385C9.74545 11.4554 9.73323 11.1483 9.46673 10.8526C9.3422 10.7144 9.13725 10.6954 7.77315 10.6954H6.22117L6.03501 10.9322ZM22.9237 10.8921C22.5697 11.272 22.7777 11.869 23.3106 12.0027C23.429 12.0325 24.1133 12.0436 24.8312 12.0275C25.9635 12.0021 26.1616 11.9756 26.3254 11.8271C26.5719 11.6036 26.5766 11.1172 26.3345 10.8751C26.1689 10.7095 26.0351 10.6954 24.6309 10.6954C23.1789 10.6954 23.0983 10.7047 22.9237 10.8921ZM9.1404 13.5772C8.68387 13.9362 8.92781 14.7386 9.4936 14.7386C10.2365 14.7386 10.4969 13.7932 9.83673 13.4924C9.52487 13.3503 9.41121 13.3641 9.1404 13.5772ZM22.422 13.6115C21.9759 14.0575 22.2459 14.7386 22.8687 14.7386C23.0944 14.7386 23.2265 14.6754 23.3629 14.5019C23.5754 14.2318 23.5897 14.1172 23.4494 13.8093C23.3494 13.59 23.0296 13.3909 22.7771 13.3909C22.7031 13.3909 22.5433 13.4902 22.422 13.6115ZM10.7456 15.8935C10.5973 15.9872 10.0818 16.4676 9.59998 16.9611C8.89699 17.681 8.72394 17.91 8.72394 18.1203C8.72394 18.7151 9.24444 19.0089 9.74751 18.6981C9.90808 18.5988 10.4308 18.1143 10.9091 17.6214C11.6088 16.9003 11.7788 16.6734 11.7788 16.4606C11.7788 15.9009 11.2195 15.5938 10.7456 15.8935ZM20.8895 15.9366C20.7097 16.0913 20.648 16.225 20.6543 16.4462C20.6616 16.7027 20.8037 16.8884 21.6343 17.7265C22.1686 18.2657 22.7041 18.7458 22.8244 18.7934C23.2766 18.9722 23.8375 18.4569 23.6915 17.9969C23.6 17.7089 21.5313 15.727 21.3221 15.727C21.2182 15.727 21.0236 15.8213 20.8895 15.9366ZM12.9534 17.581C12.7404 17.8519 12.7266 17.9655 12.8687 18.2774C13.0764 18.7333 13.789 18.7738 14.0196 18.3429C14.3968 17.638 13.444 16.9573 12.9534 17.581ZM18.5126 17.51C18.0722 17.8666 18.378 18.6321 18.9607 18.6321C19.336 18.6321 19.5958 18.3753 19.5958 18.0042C19.5958 17.4266 18.9688 17.1405 18.5126 17.51ZM15.7479 18.0913C15.5636 18.2875 15.5525 18.3833 15.5525 19.7828C15.5525 21.2174 15.5594 21.2728 15.7604 21.4618C16.0364 21.7209 16.4055 21.7107 16.6797 21.4365C16.8954 21.2209 16.9003 21.1845 16.9003 19.7864C16.9003 18.4762 16.8847 18.3371 16.714 18.1201C16.4706 17.8107 16.0241 17.7974 15.7479 18.0913ZM27.4576 19.8742C27.0041 20.0402 26.68 20.3252 22.9816 23.811C21.0139 25.6656 19.3751 27.1934 19.3397 27.2063C19.3044 27.2192 18.6702 26.6612 17.9306 25.9664C16.2752 24.4112 16.02 24.2484 15.1487 24.1926C13.9911 24.1183 14.186 23.9658 8.09598 29.7096C5.11584 32.5204 2.55215 34.9251 2.39878 35.0534C2.23094 35.1939 1.9595 35.3079 1.71655 35.3398C1.05624 35.4266 0.798194 35.9359 1.17305 36.4125C1.3479 36.6348 1.36407 36.637 3.27437 36.7013C5.36652 36.7717 5.49995 36.7492 5.6571 36.2981C5.75431 36.0194 5.58594 35.5502 5.35718 35.4625C5.27353 35.4304 4.96247 35.4041 4.66587 35.4041C4.36928 35.4041 4.14007 35.3664 4.1566 35.3204C4.19335 35.2176 14.1214 25.8587 14.4027 25.6617C14.6404 25.4953 15.2461 25.4815 15.5239 25.6361C15.8061 25.7932 18.2308 28.0628 18.2402 28.1785C18.2445 28.2319 17.6516 28.8335 16.9227 29.5154C15.4685 30.8758 15.2929 31.1253 15.5031 31.5319C15.6464 31.809 15.8046 31.9 16.1431 31.9C16.3312 31.9 19.7344 28.7792 24.5965 24.1484L24.9699 23.7926L28.4151 26.8464C32.8223 30.7529 33.4322 31.3891 34.0789 32.7548C34.3565 33.3412 34.3761 33.4446 34.3761 34.3259C34.3761 35.2234 34.3604 35.3022 34.0533 35.9453L33.7305 36.6211L32.6157 36.8328C31.2753 37.0874 28.1223 37.8756 26.6967 38.3126L25.6662 38.6285L24.0213 38.1883C20.9016 37.3536 17.2228 36.6213 13.8508 36.1638C12.9395 36.0402 12.1803 35.9254 12.1637 35.9087C12.147 35.8921 12.6559 35.387 13.2944 34.7863C13.9855 34.1363 14.4792 33.6 14.514 33.4615C14.6286 33.0046 14.0811 32.5286 13.6432 32.7045C13.532 32.7491 12.7335 33.4564 11.8687 34.2762C10.433 35.6372 10.2729 35.7631 10.0268 35.7241C9.87851 35.7006 9.33268 35.6547 8.81379 35.6221C7.95887 35.5684 7.84997 35.5793 7.6532 35.739C7.35337 35.9823 7.35724 36.4429 7.66129 36.7044C7.85932 36.8748 8.10218 36.9167 9.67536 37.0525C14.2216 37.445 18.5449 38.1826 22.9652 39.3203C24.2006 39.6383 26.1503 40.1403 27.2979 40.4359C32.7594 41.8429 38.5505 42.7436 44.6175 43.1297C46.5509 43.2527 46.5258 43.2542 46.7794 43.0005C47.0568 42.7232 47.0613 42.3757 46.7912 42.1056C46.6047 41.9191 46.4678 41.8903 45.5108 41.8356C40.1339 41.5281 35.2438 40.8629 30.231 39.7567C29.236 39.5371 28.3888 39.3575 28.3486 39.3575C28.3083 39.3575 28.3136 39.3217 28.3606 39.2777C28.4075 39.2339 28.9312 39.0739 29.5242 38.9221C34.3484 37.6874 39.1697 37.0275 44.4985 36.8727C46.5169 36.8141 46.5957 36.805 46.7943 36.6063C46.9075 36.4932 47 36.2959 47 36.1678C47 35.8569 46.6258 35.494 46.3051 35.494C46.094 35.494 45.3258 34.8108 41.7342 31.4283C36.4983 26.4976 36.8156 26.7785 36.4844 26.7785C36.1257 26.7785 35.8586 27.062 35.8586 27.4425C35.8586 27.7279 36.1167 27.9901 39.9459 31.595C42.5047 34.004 43.9915 35.4648 43.9217 35.5013C43.8605 35.5335 43.1836 35.5846 42.4177 35.615C40.8691 35.6764 38.9429 35.8538 36.8573 36.1272C36.0971 36.2269 35.4645 36.297 35.4518 36.283C35.439 36.2691 35.5027 35.9747 35.5935 35.6287C35.9221 34.3754 35.783 33.1517 35.1745 31.9449C34.4555 30.5189 33.4426 29.4714 28.9182 25.4752L25.9762 22.8765L26.3126 22.5262C26.4976 22.3335 26.923 21.9379 27.2578 21.6469C27.8202 21.1583 27.8997 21.118 28.3014 21.118C28.6137 21.118 28.8093 21.1744 28.9954 21.3183C29.138 21.4284 30.3144 22.5201 31.6098 23.7442C33.7541 25.7707 33.9928 25.9699 34.2763 25.9699C34.8284 25.9699 35.1433 25.3441 34.8009 24.9274C34.3578 24.3883 29.7378 20.1443 29.4319 19.9954C29.0138 19.7919 27.8737 19.7219 27.4576 19.8742ZM23.7789 27.6971C23.702 27.8069 23.639 28 23.639 28.1263C23.639 28.5197 23.874 28.7552 24.2665 28.7552C24.5353 28.7552 24.6567 28.7014 24.8005 28.5185C24.9029 28.3883 24.9868 28.2118 24.9868 28.1263C24.9868 28.0407 24.9029 27.8643 24.8005 27.7341C24.5522 27.4183 23.9885 27.3979 23.7789 27.6971ZM21.7032 30.2337C21.5819 30.355 21.4826 30.559 21.4826 30.687C21.4826 30.9797 21.8546 31.3609 22.1403 31.3609C22.4964 31.3609 22.8304 31.0347 22.8304 30.687C22.8304 30.4684 22.7653 30.3344 22.5936 30.1994C22.2796 29.9523 21.9727 29.9642 21.7032 30.2337ZM30.8553 33.6984C30.6187 33.7928 30.4676 34.0524 30.4676 34.3649C30.4676 34.9307 31.2701 35.1746 31.6291 34.7181C31.8686 34.4138 31.8644 34.2102 31.6132 33.9339C31.3724 33.669 31.1233 33.5917 30.8553 33.6984Z" fill="white" stroke="white" stroke-width="0.5"/>
</svg>
