<svg width="48" height="48" viewBox="0 0 48 48" fill="none" xmlns="http://www.w3.org/2000/svg">
<path fill-rule="evenodd" clip-rule="evenodd" d="M7.15788 1.23657C6.55547 1.64544 6.262 2.1581 6.17126 2.96045L6.10879 3.51227L3.72633 3.53891C1.34586 3.56556 1.34378 3.56574 1.17194 3.77809C1.00864 3.98001 1 4.18588 1 7.89649C1 11.6824 1.00549 11.8078 1.18004 11.9824C1.35099 12.1533 1.48007 12.1624 3.7456 12.1624H6.13112V13.2427V14.3229H3.70572C1.30139 14.3229 1.27906 14.3246 1.14016 14.523C1.01854 14.6966 1 15.2385 1 18.6189C1 22.3947 1.00558 22.5203 1.18004 22.6947C1.35099 22.8657 1.48007 22.8748 3.7456 22.8748H6.13112V23.955V25.0352H3.7456C1.48007 25.0352 1.35099 25.0443 1.18004 25.2153C1.00558 25.3897 1 25.5153 1 29.2911C1 32.6715 1.01854 33.2134 1.14016 33.387C1.27906 33.5854 1.30139 33.5871 3.70572 33.5871H6.13112V34.6673V35.7476H3.7456C1.48007 35.7476 1.35099 35.7566 1.18004 35.9276C1.00549 36.1021 1 36.2276 1 40.0135C1 43.7241 1.00864 43.93 1.17194 44.1319C1.34378 44.3442 1.34577 44.3444 3.72912 44.3711L6.11437 44.3977L6.17838 44.9562C6.27695 45.8158 6.67933 46.4515 7.34449 46.7985C7.70844 46.9884 8.90471 47.0534 9.4135 46.9109C9.92166 46.7687 10.518 46.2617 10.7324 45.7898C10.8307 45.5734 10.899 45.2138 10.9002 44.907L10.9022 44.3894H24.0777H37.2532L37.3006 44.9793C37.3616 45.7395 37.6952 46.3034 38.3083 46.6826C38.6889 46.918 38.8516 46.9593 39.5058 46.987C40.3533 47.0229 40.8654 46.881 41.3451 46.4773C41.7388 46.1461 42.0469 45.4398 42.048 44.8663L42.0489 44.398L44.3757 44.3712C46.1849 44.3504 46.7357 44.317 46.8513 44.2209C46.9855 44.1094 47 43.7004 47 40.0157C47 36.0723 46.9941 35.9307 46.8259 35.8407C46.7189 35.7835 45.7647 35.7476 44.3504 35.7476H42.0489V34.6673V33.5871H44.4164C46.1378 33.5871 46.8135 33.5576 46.892 33.4791C46.9728 33.3982 47 32.3455 47 29.2963C47 25.3599 46.9941 25.2184 46.8259 25.1284C46.7189 25.0711 45.7647 25.0352 44.3504 25.0352H42.0489V23.955V22.8748H44.3504C45.7647 22.8748 46.7189 22.8388 46.8259 22.7816C46.9941 22.6916 47 22.5501 47 18.6137C47 15.5644 46.9728 14.5118 46.892 14.4309C46.8135 14.3524 46.1378 14.3229 44.4164 14.3229H42.0489V13.2427V12.1624H44.3504C45.7647 12.1624 46.7189 12.1265 46.8259 12.0693C46.9941 11.9792 47 11.8376 47 7.89433C47 4.20956 46.9855 3.8006 46.8513 3.68906C46.7357 3.59301 46.1849 3.55962 44.3757 3.53882L42.0489 3.512L42.0469 3.04371C42.0448 2.53537 41.8033 1.89993 41.4807 1.55389C41.0713 1.11459 40.6903 1 39.6396 1C38.7154 1 38.6413 1.01395 38.2486 1.26304C37.6817 1.62258 37.36 2.19105 37.2999 2.93902L37.2532 3.52055H24.0777H10.9022L10.9002 3.00294C10.8977 2.3602 10.68 1.85987 10.2311 1.46576C9.7544 1.04717 9.57679 1 8.47829 1C7.57755 1 7.48105 1.01728 7.15788 1.23657ZM9.40162 2.26432C9.53034 2.36569 9.67735 2.59857 9.7283 2.78194C9.85712 3.24599 9.85712 44.664 9.7283 45.128C9.58337 45.65 9.28171 45.8297 8.55093 45.8297C7.99686 45.8297 7.9045 45.8031 7.64038 45.5671L7.34638 45.3044V23.955V2.60559L7.64038 2.34291C7.9045 2.10688 7.99686 2.08023 8.55093 2.08023C9.03578 2.08023 9.21753 2.11957 9.40162 2.26432ZM40.6017 2.35723L40.8787 2.63422V23.955V45.2758L40.6017 45.5528C40.3494 45.805 40.2727 45.8297 39.742 45.8297C39.075 45.8297 38.7114 45.6787 38.5557 45.3372C38.3892 44.9718 38.407 2.84108 38.5738 2.54023C38.7567 2.21004 39.0668 2.0869 39.724 2.08339C40.2768 2.0805 40.3468 2.10238 40.6017 2.35723ZM6.13112 7.84149V10.9922H4.15068H2.17025V7.84149V4.6908H4.15068H6.13112V7.84149ZM37.2779 7.84149V10.9922H24.09H10.9022V7.90153C10.9022 6.2016 10.9292 4.78379 10.9622 4.75085C10.9951 4.71781 16.9297 4.6908 24.1501 4.6908H37.2779V7.84149ZM45.9198 7.84149V10.9922H43.9843H42.0489V7.84149V4.6908H43.9843H45.9198V7.84149ZM37.2779 13.2429V14.3235L24.1125 14.3007L10.9472 14.2779L10.9218 13.2202L10.8965 12.1624H24.0871H37.2779V13.2429ZM6.13112 18.5538V21.7045H4.15068H2.17025V18.5538V15.4031H4.15068H6.13112V18.5538ZM37.2779 18.5538V21.7045H24.09H10.9022V18.6139C10.9022 16.9139 10.9292 15.4961 10.9622 15.4632C10.9951 15.4301 16.9297 15.4031 24.1501 15.4031H37.2779V18.5538ZM45.9198 18.5538V21.7045H43.9843H42.0489V18.5538V15.4031H43.9843H45.9198V18.5538ZM37.2779 23.955V25.0352H24.09H10.9022V23.955V22.8748H24.09H37.2779V23.955ZM6.13112 29.3562V32.5068H4.15068H2.17025V29.3562V26.2055H4.15068H6.13112V29.3562ZM37.2779 29.3564V32.5075L24.1125 32.4846L10.9472 32.4618L10.9235 29.3337L10.8998 26.2055H24.0889H37.2779V29.3564ZM45.9198 29.3562V32.5068H43.9843H42.0489V29.3562V26.2055H43.9843H45.9198V29.3562ZM37.2779 34.6673V35.7476H24.09H10.9022V34.7274C10.9022 34.1662 10.9292 33.6801 10.9622 33.6471C10.9951 33.6141 16.9297 33.5871 24.1501 33.5871H37.2779V34.6673ZM6.13112 40.0685V43.2192H4.15068H2.17025V40.0685V36.9178H4.15068H6.13112V40.0685ZM37.2779 40.0688V43.2198L24.1125 43.1969L10.9472 43.1742L10.9235 40.046L10.8998 36.9178H24.0889H37.2779V40.0688ZM45.9198 40.0685V43.2192H43.9843H42.0489V40.0685V36.9178H43.9843H45.9198V40.0685Z" fill="white" stroke="white" stroke-width="0.3"/>
</svg>
