<svg width="46" height="38" viewBox="0 0 46 38" fill="none" xmlns="http://www.w3.org/2000/svg">
<path fill-rule="evenodd" clip-rule="evenodd" d="M16.4784 0.103475C13.3906 0.824822 11.1038 3.54605 11.0251 6.59289C11.0051 7.36872 11.167 7.68265 11.6739 7.85103C12.3174 8.0648 12.8789 7.66071 12.9669 6.92057C13.1672 5.23561 13.5408 4.37995 14.4927 3.42631C15.4792 2.43814 16.648 1.95197 18.0371 1.95197C20.2973 1.95197 22.3291 3.58363 22.8568 5.82237C23.4787 8.46108 21.7894 11.1636 19.1256 11.7915C18.6279 11.9088 17.2953 11.9283 9.68962 11.9294C1.21604 11.9306 0.819682 11.938 0.51996 12.0986C0.158028 12.2926 -0.0726518 12.7794 0.0208427 13.152C0.0540153 13.284 0.198392 13.5094 0.341691 13.6527L0.602307 13.9132L9.97873 13.8884L19.3552 13.8635L20.0743 13.6168C21.2437 13.2156 22.0526 12.7126 22.9152 11.8499C23.7822 10.9829 24.2882 10.1668 24.6767 9.00901C24.8928 8.36497 24.9186 8.15371 24.9235 6.98629C24.9295 5.52885 24.7896 4.89606 24.2087 3.75381C23.3609 2.08655 21.8473 0.820866 19.9844 0.221333C19.2655 -0.0100664 17.2539 -0.0776702 16.4784 0.103475ZM35.2066 2.12907C31.6041 2.8888 28.9242 5.60284 28.173 9.25245C28.0946 9.63353 28.0304 10.2474 28.0304 10.6165C28.0304 11.2054 28.0586 11.3211 28.2605 11.5611C28.5573 11.9137 29.0146 12.0091 29.4388 11.8068C29.8314 11.6196 29.9679 11.288 30.0431 10.3387C30.2316 7.95998 31.7152 5.78093 33.8925 4.68444C34.9432 4.15529 35.7399 3.97622 37.0202 3.98116C38.3674 3.98646 38.957 4.12428 40.1667 4.71698C41.7027 5.46961 43.1176 7.10613 43.6315 8.72457C43.9607 9.76101 44.0686 10.7953 43.945 11.7284C43.7229 13.4052 43.1009 14.6755 41.9274 15.849C40.8041 16.9724 39.5446 17.6197 38.0229 17.8557C37.5812 17.9243 31.8607 17.954 19.0682 17.9543C1.16291 17.9545 0.739672 17.9585 0.463234 18.1271C-0.125242 18.4859 -0.125242 19.3997 0.463234 19.7585C0.739762 19.9271 1.16615 19.9311 19.2961 19.9313C37.6678 19.9317 37.8547 19.9299 38.7591 19.7466C41.9114 19.1077 44.5078 16.8148 45.5494 13.7504C46.5318 10.8603 45.8803 7.52919 43.8641 5.13411C41.772 2.64859 38.3595 1.46409 35.2066 2.12907ZM0.410823 24.1539C-0.113106 24.566 -0.113735 25.3877 0.409654 25.7427C0.647436 25.904 1.28814 25.9116 18.3663 25.9549L36.0763 25.9998L36.662 26.2283C40.1584 27.5917 41.1169 31.8549 38.5125 34.4593C37.5325 35.4394 36.3541 35.9336 34.9975 35.9336C32.9222 35.9336 31.0208 34.6021 30.3135 32.6534C30.2055 32.3558 30.0733 31.7484 30.0197 31.3036C29.9323 30.5764 29.8949 30.4699 29.6492 30.2475C29.2496 29.886 28.6856 29.8983 28.307 30.2769C28.0529 30.531 28.0305 30.6025 28.0319 31.1535C28.0402 34.3097 30.5757 37.2788 33.7309 37.827C34.719 37.9986 36.2846 37.8962 37.1551 37.6031C39.3218 36.8732 40.9264 35.2686 41.6563 33.1018C41.9495 32.2313 42.0518 30.6658 41.8802 29.6777C41.5059 27.5232 40.0236 25.6173 37.9642 24.6431C36.4545 23.9288 37.8872 23.9771 18.2024 23.9771C0.872632 23.9771 0.632513 23.9795 0.410823 24.1539Z" fill="white"/>
</svg>
