<svg width="48" height="42" viewBox="0 0 48 42" fill="none" xmlns="http://www.w3.org/2000/svg">
<path fill-rule="evenodd" clip-rule="evenodd" d="M12.5317 1.07973C12.3431 1.17299 12.1382 1.50994 12.1412 1.72207C12.142 1.78156 12.6231 2.65904 13.2103 3.67212C13.7976 4.68519 14.2652 5.52764 14.2494 5.54417C14.2337 5.56079 13.6902 5.42934 13.0416 5.25215C12.393 5.07496 11.8089 4.93003 11.7436 4.93003C11.6782 4.93003 11.5182 5.01387 11.388 5.1163C11.1031 5.34039 11.0632 5.83106 11.3099 6.07564C11.4037 6.16854 12.2214 6.4301 13.309 6.71511C14.3214 6.98035 15.1975 7.24317 15.2561 7.29914C15.3727 7.41065 16.8206 9.89369 16.7875 9.92523C16.7762 9.93592 15.6551 9.64453 14.2961 9.27767C11.1916 8.43963 11.2054 8.44196 10.9229 8.70738C10.6287 8.98368 10.6232 9.43778 10.9114 9.66313C11.0302 9.75613 12.5624 10.2117 14.4573 10.7174L17.7939 11.6079L18.9292 13.5762C19.5535 14.6589 20.0418 15.5672 20.0142 15.5948C19.9866 15.6223 18.3956 15.2496 16.4786 14.7665C14.5617 14.2834 12.8825 13.8875 12.7473 13.8867C12.3927 13.8846 12.1396 14.1505 12.1396 14.5253C12.1396 14.7967 12.2441 14.9458 12.9322 15.6569C16.4334 19.2749 17.351 20.2406 17.351 20.3075C17.351 20.3499 16.3298 20.3845 15.0816 20.3845H12.8123L10.342 17.9064C8.98333 16.5436 7.77331 15.3894 7.65299 15.3416C7.23797 15.1769 6.74855 15.5595 6.74855 16.0489C6.74855 16.1305 7.6583 17.1103 8.77021 18.226C9.88212 19.3418 10.7919 20.2839 10.7919 20.3196C10.7919 20.3553 10.1141 20.3845 9.28568 20.3845H7.77959L6.4329 19.0276C5.69226 18.2813 4.96671 17.6184 4.82061 17.5543C4.37279 17.3582 3.88247 17.6566 3.87619 18.1291C3.87412 18.2842 4.13828 18.6136 4.81675 19.3021C5.33564 19.8287 5.76019 20.2876 5.76019 20.322C5.76019 20.3563 4.77119 20.3845 3.56233 20.3845C1.41704 20.3845 1.36008 20.3891 1.18127 20.5811C0.846219 20.9407 0.992138 21.4522 1.483 21.6389C1.62667 21.6935 2.57244 21.7322 3.76162 21.7322H5.79478L4.834 22.7072C4.14206 23.4094 3.87412 23.7424 3.87619 23.8977C3.88247 24.3703 4.37279 24.6687 4.82061 24.4725C4.96671 24.4085 5.67204 23.7657 6.38798 23.0441L7.68965 21.7322H9.26061H10.8316L8.79006 23.7808C7.66728 24.9076 6.74855 25.8963 6.74855 25.978C6.74855 26.505 7.28469 26.8658 7.72254 26.6332C7.85399 26.5634 9.03275 25.4321 10.342 24.1192L12.7224 21.7322H17.7322C20.4876 21.7322 22.7421 21.7559 22.7421 21.785C22.7421 21.8139 22.3733 22.4795 21.9225 23.2641C21.2222 24.4831 21.0622 24.7036 20.8219 24.7804C20.2891 24.9507 15.0816 26.2316 15.0501 26.2002C15.0328 26.1828 15.4019 25.7566 15.8703 25.253C16.553 24.5192 16.722 24.2841 16.722 24.0682C16.722 23.7114 16.4396 23.4394 16.0691 23.4394C15.8144 23.4394 15.6507 23.5671 14.8315 24.4053C12.2021 27.0955 12.1396 27.1673 12.1396 27.5011C12.1396 27.8148 12.2977 28.0289 12.6113 28.1401C12.6977 28.1707 14.3873 27.7877 16.3661 27.2887C18.3449 26.7899 19.9864 26.4043 20.0141 26.432C20.0418 26.4596 19.5534 27.3682 18.9289 28.4511L17.7933 30.4199L14.4574 31.3099C12.5653 31.8147 11.0308 32.2708 10.9118 32.3637C10.4922 32.6912 10.7759 33.5027 11.3099 33.5027C11.4155 33.5027 12.5653 33.2174 13.8649 32.8687C15.1646 32.5199 16.3612 32.1992 16.5242 32.1559L16.8206 32.0772L16.4853 32.6776C16.3008 33.0079 15.9451 33.6196 15.6947 34.0372L15.2395 34.7962L13.3103 35.3123C12.0255 35.656 11.3427 35.8809 11.2662 35.9856C11.0659 36.2596 11.1243 36.7032 11.388 36.9105C11.5182 37.013 11.6782 37.0968 11.7436 37.0968C11.8089 37.0968 12.393 36.9519 13.0416 36.7747C13.6902 36.5975 14.2337 36.466 14.2494 36.4827C14.2652 36.4992 13.7976 37.3416 13.2103 38.3547C12.6231 39.3678 12.142 40.2453 12.1412 40.3048C12.1377 40.5456 12.3572 40.8644 12.5938 40.9625C13.0857 41.1662 13.2559 40.9802 14.3817 39.0091C14.9523 38.01 15.4416 37.1913 15.4688 37.1896C15.4961 37.188 15.6576 37.7223 15.8276 38.3772C16.1586 39.6519 16.3471 39.972 16.767 39.972C17.0434 39.972 17.4409 39.6054 17.4409 39.3506C17.4409 39.2513 17.2158 38.3371 16.9406 37.3188L16.4403 35.4674L17.1265 34.2691C17.5039 33.61 17.8605 33.0061 17.9188 32.9269C18.0051 32.8098 18.1569 33.2806 18.7341 35.4566C19.4983 38.3371 19.5859 38.5344 20.1006 38.5344C20.3987 38.5344 20.7654 38.2062 20.7654 37.9394C20.7654 37.8726 20.3595 36.3028 19.8633 34.4509L18.9613 31.0839L20.1057 29.1035C20.735 28.0145 21.2723 27.1236 21.2996 27.1238C21.327 27.1241 21.8103 28.7433 22.3737 30.722C23.2452 33.7828 23.4313 34.3458 23.6213 34.4952C23.9033 34.717 24.0967 34.717 24.3787 34.4952C24.5687 34.3458 24.7548 33.7828 25.6263 30.722C26.1897 28.7433 26.673 27.1241 26.7004 27.1238C26.7277 27.1236 27.2656 28.0154 27.8955 29.1056L29.041 31.0879L28.1378 34.4509C27.641 36.3006 27.2346 37.8696 27.2346 37.9374C27.2346 38.2059 27.6004 38.5344 27.8994 38.5344C28.4141 38.5344 28.5017 38.3371 29.2659 35.4566C29.868 33.1868 29.9923 32.8063 30.0888 32.9373C30.1513 33.0221 30.5082 33.6255 30.8819 34.2781L31.5613 35.4646L31.0602 37.3237C30.7847 38.3461 30.5591 39.261 30.5591 39.3568C30.5591 39.6064 30.9596 39.972 31.233 39.972C31.6508 39.972 31.8407 39.6509 32.176 38.3772C32.3484 37.7223 32.5099 37.188 32.5351 37.1896C32.5602 37.1913 33.0477 38.01 33.6183 39.0091C34.7441 40.9802 34.9143 41.1662 35.4062 40.9625C35.6427 40.8644 35.8623 40.5456 35.8588 40.3048C35.858 40.2453 35.3769 39.3678 34.7897 38.3547C34.2024 37.3416 33.7348 36.4992 33.7506 36.4827C33.7663 36.466 34.3098 36.5975 34.9584 36.7747C35.607 36.9519 36.1911 37.0968 36.2564 37.0968C36.3218 37.0968 36.4818 37.013 36.612 36.9105C36.8968 36.6865 36.9367 36.1964 36.6901 35.9498C36.5952 35.8549 35.7933 35.5977 34.691 35.3087C33.6786 35.0432 32.8025 34.7811 32.7439 34.726C32.6285 34.6174 31.1788 32.1334 31.2125 32.102C31.2238 32.0914 32.4258 32.4022 33.8836 32.7926C35.3415 33.183 36.6182 33.5024 36.7208 33.5026C37.2255 33.5031 37.4905 32.6788 37.0875 32.3618C36.9656 32.2659 35.4718 31.8217 33.5412 31.3071L30.2056 30.4181L29.0706 28.4501C28.4464 27.3678 27.9596 26.4582 27.9889 26.4289C28.0182 26.3996 29.6091 26.7727 31.5244 27.258C33.4398 27.7432 35.1175 28.1405 35.2527 28.141C35.6076 28.1419 35.8604 27.876 35.8604 27.5016C35.8604 27.2302 35.7559 27.0809 35.0682 26.3699C34.6325 25.9195 33.4543 24.7018 32.4502 23.664L30.6244 21.7772L32.9482 21.7532L35.272 21.7291L37.7451 24.1898C39.1053 25.5432 40.2878 26.6742 40.3729 26.7033C40.7585 26.8353 41.2514 26.4283 41.2514 25.978C41.2514 25.8963 40.3327 24.9076 39.2099 23.7808L37.1684 21.7322H38.7394H40.3103L41.612 23.0441C42.328 23.7657 43.0321 24.4081 43.177 24.4715C43.6407 24.6747 44.1267 24.3444 44.1267 23.8261C44.1267 23.7469 43.6943 23.2433 43.166 22.7072L42.2052 21.7322H44.2384C45.4276 21.7322 46.3733 21.6935 46.517 21.6389C47.0079 21.4522 47.1538 20.9407 46.8187 20.5811C46.6399 20.3891 46.583 20.3845 44.4377 20.3845C43.2288 20.3845 42.2398 20.3563 42.2398 20.322C42.2398 20.2876 42.6644 19.8287 43.1833 19.3021C43.7021 18.7756 44.1267 18.28 44.1267 18.2007C44.1267 17.6824 43.6407 17.3522 43.177 17.5553C43.0321 17.6188 42.3077 18.2813 41.5671 19.0276L40.2204 20.3845H38.7143C37.8859 20.3845 37.2081 20.3553 37.2081 20.3196C37.2081 20.2839 38.1179 19.3418 39.2298 18.226C40.3417 17.1103 41.2514 16.1305 41.2514 16.0489C41.2514 15.5595 40.762 15.1769 40.347 15.3416C40.2267 15.3894 39.0167 16.5436 37.658 17.9064L35.1877 20.3845H30.2228C26.5793 20.3845 25.2579 20.3573 25.2579 20.2825C25.2579 20.2264 25.6274 19.539 26.0791 18.7551C26.8412 17.4322 26.9235 17.3236 27.2247 17.2446C29.2796 16.7057 32.9277 15.8046 32.953 15.8298C32.9708 15.8476 32.6012 16.2694 32.1316 16.7671C31.4323 17.5085 31.278 17.7223 31.278 17.9501C31.278 18.3158 31.5562 18.5874 31.9309 18.5874C32.1856 18.5874 32.3492 18.4598 33.1685 17.6215C35.7979 14.9313 35.8604 14.8595 35.8604 14.5257C35.8604 14.1509 35.6082 13.8852 35.2525 13.8852C35.1171 13.8852 33.4395 14.2827 31.5245 14.7684C29.6095 15.2542 28.0186 15.6276 27.9891 15.5981C27.9597 15.5687 28.446 14.6596 29.0699 13.5779L30.2041 11.6112L33.5423 10.7191C35.4395 10.212 36.9706 9.75622 37.0893 9.66313C37.505 9.33706 37.2241 8.52409 36.6958 8.52409C36.5933 8.52409 35.3223 8.84378 33.8712 9.23454C32.4202 9.6253 31.2238 9.93619 31.2125 9.92541C31.179 9.89333 32.6281 7.40975 32.7439 7.30085C32.8025 7.24577 33.6786 6.98359 34.691 6.71817C35.7933 6.42911 36.5952 6.17196 36.6901 6.07699C36.9367 5.83043 36.8968 5.3403 36.612 5.1163C36.4818 5.01387 36.3218 4.93003 36.2564 4.93003C36.1911 4.93003 35.607 5.07496 34.9584 5.25215C34.3098 5.42934 33.7663 5.56079 33.7506 5.54417C33.7348 5.52764 34.2024 4.68519 34.7897 3.67212C35.3769 2.65904 35.858 1.78156 35.8588 1.72207C35.8623 1.48127 35.6427 1.16239 35.4062 1.06436C34.9143 0.86067 34.7441 1.04666 33.6183 3.01773C33.0477 4.01679 32.5584 4.83551 32.5312 4.83722C32.5039 4.83884 32.3424 4.3044 32.1724 3.64965C31.8414 2.37493 31.6529 2.05479 31.233 2.05479C30.9566 2.05479 30.5591 2.42139 30.5591 2.6762C30.5591 2.77549 30.7842 3.68973 31.0594 4.70801L31.5597 6.5594L30.8735 7.75774C30.4961 8.4168 30.1395 9.02078 30.0812 9.09994C29.9949 9.21702 29.8431 8.7462 29.2659 6.57027C28.5017 3.68973 28.4141 3.49241 27.8994 3.49241C27.6013 3.49241 27.2346 3.82064 27.2346 4.08741C27.2346 4.15426 27.6405 5.72405 28.1367 7.57598L29.0387 10.943L27.8943 12.9233C27.265 14.0124 26.7277 14.9033 26.7004 14.903C26.673 14.9027 26.1897 13.2835 25.6263 11.3048C24.7548 8.24402 24.5687 7.68101 24.3787 7.53159C24.0967 7.30984 23.9033 7.30984 23.6213 7.53159C23.4313 7.68101 23.2452 8.24402 22.3737 11.3048C21.8103 13.2835 21.327 14.9027 21.2996 14.903C21.2723 14.9033 20.7344 14.0115 20.1045 12.9212L18.959 10.9389L19.8622 7.57589C20.359 5.72621 20.7654 4.15722 20.7654 4.08939C20.7654 3.82091 20.3996 3.49241 20.1006 3.49241C19.5859 3.49241 19.4983 3.68973 18.7341 6.57027C18.132 8.84 18.0077 9.22052 17.9112 9.08952C17.8487 9.0047 17.4918 8.40135 17.1181 7.74876L16.4387 6.56218L16.9398 4.70316C17.2153 3.68074 17.4409 2.76579 17.4409 2.67001C17.4409 2.4204 17.0404 2.05479 16.767 2.05479C16.3492 2.05479 16.1593 2.37592 15.824 3.64965C15.6516 4.3044 15.4901 4.83902 15.4649 4.83749C15.4398 4.83605 14.9593 4.02811 14.3971 3.04217C13.8349 2.05614 13.3294 1.21154 13.2735 1.16518C13.1015 1.0224 12.7334 0.979992 12.5317 1.07973ZM24.8806 13.5813C25.3352 15.1767 25.7072 16.5335 25.7072 16.5965C25.7072 16.7288 24.0758 19.5758 24 19.5758C23.9242 19.5758 22.2928 16.7288 22.2928 16.5965C22.2928 16.3993 23.9431 10.6805 24 10.6805C24.0297 10.6805 24.426 11.9859 24.8806 13.5813ZM17.825 16.4793C19.3187 16.8518 20.6674 17.1971 20.8222 17.2465C21.0627 17.3234 21.2232 17.5439 21.9229 18.7585C22.3734 19.5406 22.7421 20.2264 22.7421 20.2825C22.7421 20.3549 22.2543 20.3844 21.0574 20.3842L19.3727 20.3839L17.4792 18.4299C15.4923 16.3794 14.9593 15.802 15.0527 15.802C15.0838 15.802 16.3313 16.1068 17.825 16.4793ZM30.8554 23.9458C32.0298 25.1632 32.975 26.1751 32.9557 26.1944C32.9283 26.2216 29.3659 25.3438 27.2247 24.7822C26.9235 24.7033 26.8412 24.5946 26.0791 23.2717C25.6274 22.4878 25.2579 21.8206 25.2579 21.7893C25.2579 21.7579 26.0368 21.7322 26.9889 21.7322H28.72L30.8554 23.9458ZM24.8788 23.8834C25.3344 24.6712 25.7072 25.3673 25.7072 25.4303C25.7072 25.6276 24.0569 31.3463 24 31.3463C23.9431 31.3463 22.2928 25.6276 22.2928 25.4303C22.2928 25.2981 23.9242 22.451 24 22.451C24.0278 22.451 24.4232 23.0956 24.8788 23.8834Z" fill="white" stroke="white" stroke-width="0.2"/>
</svg>
