<svg width="48" height="37" viewBox="0 0 48 37" fill="none" xmlns="http://www.w3.org/2000/svg">
<path fill-rule="evenodd" clip-rule="evenodd" d="M21.4297 1.13113C17.6506 1.70887 14.3291 3.35409 11.6004 5.99983L10.7439 6.83031L10.4933 6.52634C10.1701 6.1342 9.4286 5.64814 8.80179 5.41742C7.41407 4.90673 5.86214 5.16226 4.71593 6.09007C2.67956 7.73844 2.54878 10.7094 4.43488 12.4738C5.05602 13.0547 5.73155 13.424 6.45848 13.58C6.70915 13.6337 6.91435 13.7182 6.91435 13.7676C6.91435 13.8172 6.83588 14.1677 6.74007 14.5466C6.33202 16.1596 6.15991 18.6824 6.32933 20.565L6.38361 21.1677L5.17332 21.9584C1.52022 24.345 0.211682 26.3445 1.46054 27.6316C2.3613 28.5601 4.37655 28.7856 7.84791 28.3462C8.93894 28.2082 9.0112 28.2086 9.09272 28.3543C9.38968 28.8848 10.6898 30.4711 11.4529 31.234C12.3715 32.1522 13.7463 33.2563 13.971 33.2563C14.2151 33.2563 14.5356 33.0536 14.6343 32.8367C14.8092 32.4532 14.6601 32.2055 13.8926 31.6036C12.5425 30.545 10.3543 28.1492 10.5648 27.9601C10.6085 27.9208 11.0083 27.8192 11.4532 27.7342C19.1063 26.2717 31.3215 21.8391 38.7925 17.8134C39.543 17.4091 40.2002 17.0782 40.253 17.0782C40.3805 17.0782 40.3816 19.8785 40.2546 20.8242C40.1213 21.8156 40.1207 21.8167 39.8117 21.7714C39.3801 21.708 38.3677 21.9248 37.7748 22.2076C35.684 23.2046 34.7792 25.7212 35.7558 27.8229C35.8947 28.1218 36.1357 28.5114 36.2913 28.6886C36.4469 28.8658 36.5741 29.068 36.5741 29.138C36.5741 29.3211 34.768 31.0927 33.9308 31.731C31.9507 33.2405 29.6157 34.2974 27.171 34.7909C25.8085 35.0659 23.0927 35.1339 21.6898 34.9282C20.0126 34.6822 19.1155 34.4136 16.7884 33.4607C16.5094 33.3463 16.4241 33.3446 16.2064 33.449C15.8632 33.6135 15.73 33.9989 15.906 34.3185C16.2284 34.9037 19.2017 35.9415 21.4863 36.2662C22.6975 36.4384 25.2849 36.4384 26.4961 36.2662C30.6708 35.6728 34.5057 33.5872 37.3767 30.3485L37.7633 29.9123L38.339 30.1013C39.8418 30.5946 41.6238 30.1222 42.718 28.9403C43.497 28.0989 43.8481 27.1914 43.8521 26.0081C43.8573 24.46 43.037 23.109 41.5676 22.2462C41.4235 22.1616 41.4234 22.0958 41.5667 21.1227C41.6859 20.3128 41.7103 19.6672 41.6794 18.1397L41.6399 16.1901L42.3201 15.7611C45.3637 13.8416 47 12.1112 47 10.8121C47 10.4247 46.7236 9.88401 46.3762 9.59163C45.9721 9.25162 45.156 8.97803 44.3831 8.92357C43.768 8.88016 43.6791 8.89472 43.5068 9.06701C43.266 9.3078 43.2578 9.74092 43.4897 9.97281C43.5859 10.069 43.8184 10.1712 44.0065 10.2001C45.193 10.3822 45.6518 10.561 45.6518 10.8412C45.6518 11.4542 44.1323 12.9362 42.1282 14.2778C41.7473 14.5328 41.4012 14.7414 41.3591 14.7414C41.317 14.7414 41.2144 14.4574 41.131 14.1103C40.9405 13.3162 40.4208 11.9183 40.0175 11.1146C39.8474 10.7759 39.721 10.4866 39.7366 10.4718C39.7521 10.4571 40.1249 10.4013 40.5649 10.3478C41.0729 10.2861 41.4256 10.1958 41.5311 10.1003C41.7635 9.88994 41.7527 9.33692 41.512 9.11905C41.3005 8.92761 41.0005 8.9224 39.7764 9.08894C39.1003 9.18098 38.9681 9.17801 38.9076 9.06971C38.6201 8.55615 37.3149 6.95281 36.593 6.22668C33.8215 3.43848 30.3799 1.70132 26.4963 1.13041C25.3114 0.95623 22.5708 0.956589 21.4297 1.13113ZM26.3478 2.47095C30.0238 3.02504 33.1629 4.64663 35.7705 7.33839C37.4113 9.03205 38.5173 10.7656 39.308 12.8825C39.6953 13.9197 40.1103 15.4276 40.0397 15.5417C39.969 15.6562 37.9449 16.7564 36.2382 17.6081C29.7882 20.827 21 24.0512 13.9248 25.7944C12.3282 26.1879 9.70677 26.7333 9.66021 26.6818C9.64457 26.6644 9.48162 26.3503 9.298 25.9838C8.57008 24.53 8.03054 22.7948 7.76378 21.0492C7.5887 19.9043 7.59059 17.4768 7.76747 16.3142C7.87622 15.599 8.31312 13.672 8.38215 13.6032C8.3905 13.5948 8.6143 13.5025 8.87944 13.398C10.1037 12.9155 11.084 11.8515 11.4456 10.6131C11.6045 10.0683 11.6341 8.92411 11.5012 8.46052C11.4174 8.16832 11.4356 8.13471 12.018 7.50394C14.4658 4.85317 17.887 3.04635 21.5313 2.47957C22.6193 2.31033 25.2514 2.30566 26.3478 2.47095ZM8.56936 6.77332C9.12966 7.03136 9.70992 7.60002 9.98701 8.16275C10.16 8.51399 10.1949 8.72781 10.1949 9.43857C10.1949 10.217 10.1713 10.3349 9.92832 10.7737C9.35238 11.8136 8.36282 12.3615 7.18398 12.2933C6.35494 12.2453 5.76975 11.9714 5.2187 11.3736C3.72628 9.75449 4.48476 7.19872 6.63833 6.59015C7.18668 6.4352 8.00349 6.51268 8.56936 6.77332ZM22.4633 6.87246C21.7692 7.04898 21.1993 7.30747 20.5864 7.72369C19.8745 8.20715 19.7602 8.54123 20.1673 8.94828C20.4755 9.25657 20.7528 9.22493 21.3977 8.80807C22.8796 7.85024 24.7346 7.84467 26.2027 8.7936C27.5979 9.69535 28.3582 11.3926 28.1198 13.0737C27.8596 14.9099 26.3183 16.4525 24.456 16.7407C22.1051 17.1046 19.8341 15.4085 19.4979 13.0379C19.4052 12.3841 19.4203 12.1318 19.6019 11.3019C19.729 10.7217 19.6447 10.4427 19.2982 10.2971C18.651 10.0249 18.3108 10.4574 18.1446 11.7636C17.8073 14.4152 19.4106 16.9335 22.0287 17.8646C22.6052 18.0697 22.829 18.099 23.8114 18.099C24.7939 18.099 25.0177 18.0697 25.5942 17.8646C30.1302 16.2514 30.9267 10.3919 26.9769 7.69314C26.0429 7.055 25.2409 6.8082 23.9912 6.77458C23.3135 6.75625 22.7874 6.78995 22.4633 6.87246ZM6.82069 23.1675C6.96719 23.8279 7.52075 25.3736 7.92727 26.2577L8.24274 26.9438L7.87065 26.9959C5.19785 27.3702 2.57665 27.2069 2.36399 26.6527C2.15404 26.1056 3.61366 24.6388 5.97062 23.0282C6.26722 22.8256 6.55402 22.6578 6.60795 22.6552C6.66188 22.6527 6.7576 22.8832 6.82069 23.1675ZM40.8604 23.4193C42.6583 24.2979 43.0659 26.6864 41.6581 28.0941C41.0234 28.7288 40.369 28.9739 39.4502 28.9207C38.6026 28.8717 38.0169 28.5894 37.4471 27.9558C36.2515 26.6259 36.5651 24.464 38.0827 23.5746C38.9801 23.0487 39.9868 22.9925 40.8604 23.4193Z" fill="white" stroke="white" stroke-width="0.5"/>
</svg>
