<svg width="40" height="48" viewBox="0 0 40 48" fill="none" xmlns="http://www.w3.org/2000/svg">
<path fill-rule="evenodd" clip-rule="evenodd" d="M28.6661 1.14096C28.0991 1.42043 26.5782 3.97929 26.3184 5.0909C26.0342 6.30684 26.7662 7.67735 28.0074 8.2531C28.6806 8.56538 29.7359 8.58434 30.373 8.29561C30.9368 8.04012 31.5785 7.43292 31.8696 6.87963C32.0763 6.48684 32.108 6.31861 32.1087 5.61265L32.1095 4.79858L31.5883 3.77045C30.954 2.51901 30.2376 1.47157 29.8272 1.19542C29.4691 0.954493 29.0815 0.93634 28.6661 1.14096ZM29.6742 3.12424C30.2165 3.96393 30.7177 4.97111 30.7779 5.34198C31.0082 6.76065 29.3025 7.74717 28.237 6.81169C27.6015 6.25373 27.4711 5.71365 27.7846 4.93768C28.0371 4.31259 29.0927 2.51767 29.2078 2.51767C29.2489 2.51767 29.4587 2.79067 29.6742 3.12424ZM14.3803 4.41001C14.2176 4.44487 14.0056 4.54498 13.9091 4.63233C13.6341 4.88116 12.6806 6.39724 12.315 7.16701C11.5261 8.82769 12.0272 10.4078 13.561 11.0961C14.0534 11.3171 14.1964 11.3412 14.8012 11.305C16.6993 11.1916 17.8734 9.45772 17.2369 7.7079C16.8842 6.7381 15.6137 4.67403 15.2882 4.54202C14.9043 4.38628 14.6579 4.35043 14.3803 4.41001ZM15.7644 7.68229C16.1203 8.4145 16.1448 8.8054 15.8653 9.293C15.35 10.1918 14.0016 10.2101 13.4624 9.32562C13.0896 8.7141 13.2953 7.98315 14.2785 6.42645L14.6582 5.82526L15.0589 6.44056C15.2794 6.77889 15.5969 7.33766 15.7644 7.68229ZM20.4722 7.33362C20.0555 7.5138 19.5988 7.965 19.4863 8.30738C19.4365 8.45925 19.3367 9.14401 19.2647 9.82921C19.1927 10.5144 19.1217 11.0806 19.1067 11.0873C18.4707 11.3741 18.1466 11.6215 17.9111 12C17.6742 12.3808 17.636 12.5372 17.5966 13.2896L17.5517 14.1459L16.7814 14.2568C13.6069 14.7136 10.4063 16.2613 8.09355 18.4576C7.65358 18.8755 7.58115 19.2815 7.89136 19.5917C8.23068 19.931 8.51465 19.8302 9.47385 19.0295C11.5268 17.316 13.7531 16.2279 16.2471 15.7192C16.7504 15.6166 17.1782 15.5488 17.198 15.5686C17.2177 15.5884 16.9471 15.9254 16.5965 16.3175C15.8421 17.1614 14.9386 18.3501 14.7391 18.7613C14.5629 19.1245 14.6651 19.4833 14.9979 19.6701C15.4141 19.9037 15.6317 19.7543 16.387 18.7172C16.7746 18.185 17.6245 17.2136 18.2755 16.5588L19.4592 15.3681H19.9613H20.4636L20.4904 18.5213L20.5172 21.6746L20.7293 21.8463C20.9802 22.0494 21.3573 22.0685 21.6008 21.8906C21.7663 21.7696 21.7776 21.5992 21.8202 18.5881L21.8651 15.413L22.3868 15.3859L22.9085 15.3589L24.0577 16.5092C24.6897 17.1419 25.461 17.9976 25.7716 18.4107C27.0294 20.0838 28.1311 22.2798 28.6893 24.2266C29.1545 25.8485 29.2859 26.733 29.3413 28.6142L29.3939 30.4029L29.1792 30.3407C27.2094 29.7707 24.5929 29.7114 22.5794 30.1911C22.2136 30.2782 21.893 30.3284 21.8673 30.3025C21.8414 30.2766 21.8202 28.8296 21.8202 27.0868V23.9182L21.5834 23.732C21.2751 23.4895 21.0782 23.4969 20.7693 23.7624L20.5172 23.9793L20.4915 27.1641L20.4658 30.3491L19.8018 30.1908C18.7481 29.9398 17.2246 29.8044 16.1235 29.864C15.2401 29.9118 13.4452 30.1944 13.0418 30.3492C12.9085 30.4004 12.9003 30.3002 12.9549 29.2802C13.0111 28.2267 13.0031 28.1396 12.8281 27.9171C12.6166 27.6483 12.1756 27.5944 11.8908 27.8027C11.7078 27.9365 11.5889 28.6762 11.5803 29.7343L11.5758 30.3064L11.3286 30.2531C9.27175 29.8096 7.19195 29.7515 5.48805 30.09C4.93234 30.2003 4.41104 30.3162 4.32963 30.3474C4.19591 30.3987 4.18755 30.3221 4.24399 29.5585C4.43072 27.0331 5.12591 24.7715 6.32244 22.7968C7.29988 21.1838 7.23554 21.332 7.07989 21.0535C6.90295 20.7369 6.59113 20.583 6.28981 20.6636C5.81713 20.7899 4.38076 23.3075 3.76969 25.0805C3.2377 26.624 2.85865 28.8473 2.85946 30.4202C2.85973 31.0716 3.07352 31.4773 3.53155 31.6957C3.83349 31.8397 3.88696 31.8359 4.8884 31.6001C7.16086 31.0649 9.00494 31.0779 11.2182 31.6448L12.3283 31.9291L13.4572 31.6487C14.5898 31.3673 15.7835 31.1841 16.4846 31.1841H16.8601L16.8913 32.3747C16.9195 33.4456 16.9453 33.6057 17.1473 33.9659C17.4652 34.5325 18.0052 34.8878 18.6269 34.9394L19.1243 34.9806V40.804V46.6275L19.3611 46.8137C19.6563 47.0459 19.9403 47.0508 20.2151 46.8283L20.4273 46.6565L20.4516 40.8074L20.4761 34.9583H21.193H21.91V36.7596C21.91 38.5524 21.9111 38.5621 22.1306 38.7816C22.4136 39.0646 22.8035 39.0699 23.0626 38.7942C23.2498 38.5949 23.258 38.5107 23.258 36.7837V34.9811L23.7051 34.9382C24.2867 34.8823 24.7956 34.5425 25.1157 33.9964C25.3485 33.5991 25.3682 33.4871 25.4007 32.3768L25.4356 31.1841L25.7621 31.1848C26.483 31.1864 27.7652 31.3809 28.8198 31.6486L29.9335 31.9311L31.0664 31.6463C33.3321 31.0769 35.1262 31.0636 37.4033 31.5999L38.4633 31.8496L38.7911 31.6741C39.35 31.3748 39.4548 31.0459 39.3906 29.7912C39.3066 28.1459 38.9384 26.1033 38.61 25.4596C38.3792 25.0074 37.5276 25.0729 37.4073 25.552C37.3766 25.6744 37.4541 26.1861 37.5818 26.7034C37.8444 27.7671 37.9551 28.4643 38.0424 29.6021C38.0971 30.3147 38.088 30.3955 37.9593 30.3461C37.8797 30.3156 37.3601 30.2005 36.8043 30.0903C36.008 29.9325 35.4798 29.8898 34.3112 29.8891C32.9345 29.8883 32.3716 29.9495 30.9638 30.2531L30.7166 30.3064V28.9994C30.7166 26.9761 30.4281 25.2179 29.7633 23.1908C28.9139 20.6008 27.3927 18.0278 25.6007 16.1504L25.018 15.5398L25.4185 15.5984C27.2182 15.8621 29.3799 16.6818 31.1025 17.7538C31.8112 18.1949 31.9283 18.2214 32.2307 18.0095C32.7342 17.6568 32.6233 17.1432 31.9466 16.6944C30.2202 15.5495 27.8971 14.6443 25.864 14.3244C25.3451 14.2428 24.87 14.1624 24.8081 14.1458C24.7314 14.1252 24.6956 13.9085 24.6953 13.4613C24.695 13.1015 24.6515 12.6511 24.5987 12.4606C24.4785 12.0282 23.878 11.3652 23.4743 11.2191C23.1279 11.0939 23.1382 11.1294 22.9808 9.527C22.875 8.45008 22.7299 8.02629 22.3444 7.66665C21.8573 7.21221 21.0748 7.07302 20.4722 7.33362ZM3.54413 8.71006C2.95589 9.09791 1.28209 11.9783 1.05905 12.9867C0.774275 14.2737 1.54395 15.738 2.8405 16.3763C3.3769 16.6404 3.51915 16.671 4.20508 16.6692C4.84122 16.6675 5.05707 16.6271 5.48078 16.4301C6.91886 15.7614 7.71037 14.191 7.31075 12.7992C6.99434 11.6972 5.38318 9.01083 4.84976 8.69568C4.49704 8.48737 3.8715 8.49429 3.54413 8.71006ZM21.4469 8.65659C21.5464 8.77646 21.7282 10.1024 21.7296 10.7177L21.7303 11.0547H21.1069H20.4835L20.5231 10.7626C20.5448 10.602 20.6014 10.0924 20.6487 9.63035C20.696 9.16818 20.7817 8.73351 20.8391 8.66432C20.9708 8.50562 21.3179 8.50121 21.4469 8.65659ZM4.7776 10.7626C5.97835 12.5943 6.26942 13.5534 5.86153 14.3347C5.024 15.9391 2.70418 15.5465 2.36584 13.743C2.28748 13.3255 2.6047 12.4893 3.23644 11.4479C3.87582 10.3938 4.15125 9.97875 4.21209 9.9774C4.23958 9.97686 4.49408 10.3302 4.7776 10.7626ZM23.1616 12.6394C23.3057 12.8226 23.3478 13.0056 23.3478 13.4482V14.0202H21.1462H18.9445V13.4193C18.9445 12.9263 18.9796 12.7813 19.1399 12.6106C19.3317 12.4065 19.3691 12.4026 21.1554 12.4026H22.9754L23.1616 12.6394ZM35.0209 16.6492C34.6609 16.8882 33.6832 18.3132 33.166 19.3525C32.432 20.8276 32.3688 21.5489 32.88 22.6149C33.1909 23.2633 33.6887 23.7437 34.3903 24.0727C34.8118 24.2703 35.0216 24.3095 35.6591 24.3095C36.2976 24.3095 36.5063 24.2704 36.9305 24.0716C37.9664 23.5859 38.6213 22.632 38.6954 21.5007C38.7316 20.9485 38.7009 20.7466 38.4948 20.1816C38.2351 19.4692 37.5287 18.2154 36.8568 17.2738C36.2647 16.4441 35.6466 16.2338 35.0209 16.6492ZM36.2513 18.8039C37.56 20.9195 37.6837 21.7537 36.8035 22.5266C35.6615 23.5293 33.9171 22.7808 33.9171 21.288C33.9171 20.9661 34.0095 20.6754 34.2903 20.1136C34.7382 19.2175 35.5287 17.9742 35.6506 17.9742C35.6987 17.9742 35.9691 18.3475 36.2513 18.8039ZM12.5841 20.2771C12.0102 20.566 10.6907 22.8607 10.6088 23.7121C10.4361 25.5101 12.404 26.8881 14.047 26.1195C14.678 25.8243 15.2153 25.2103 15.4008 24.5724C15.5877 23.9293 15.5279 23.4281 15.1742 22.6722C14.8318 21.9404 13.8796 20.4754 13.6579 20.3392C13.3431 20.1459 12.8962 20.12 12.5841 20.2771ZM13.7786 22.9483C14.0004 23.3857 14.1818 23.8347 14.1818 23.9459C14.1818 24.2124 13.8293 24.7273 13.5501 24.8686C13.1353 25.0784 12.6828 25.0124 12.3352 24.6914C11.755 24.1558 11.8404 23.5789 12.6981 22.2382L13.0326 21.7152L13.204 21.934C13.2983 22.0543 13.5568 22.5107 13.7786 22.9483ZM20.0376 31.6508L21.1757 31.923L22.3292 31.6485C22.9636 31.4975 23.604 31.3615 23.7522 31.3464L24.0218 31.3189L24.0482 32.1276C24.0996 33.6991 24.2726 33.6104 21.157 33.6104C19.109 33.6104 18.5858 33.5858 18.445 33.483C18.293 33.3721 18.2666 33.2207 18.2402 32.3092L18.2099 31.2629L18.5547 31.3207C18.7444 31.3525 19.4117 31.501 20.0376 31.6508ZM22.1306 40.7505L21.91 40.971V43.7649V46.5589L22.1306 46.7794C22.252 46.9007 22.456 47 22.584 47C22.7121 47 22.9161 46.9007 23.0374 46.7794L23.258 46.5589V43.7649V40.971L23.0374 40.7505C22.9161 40.6291 22.7121 40.5298 22.584 40.5298C22.456 40.5298 22.252 40.6291 22.1306 40.7505Z" fill="white" stroke="white" stroke-width="0.2"/>
</svg>
