<svg width="46" height="46" viewBox="0 0 46 46" fill="none" xmlns="http://www.w3.org/2000/svg">
<path fill-rule="evenodd" clip-rule="evenodd" d="M26.7056 0.0830854C24.8577 0.27769 23.3883 1.33027 22.5677 3.0471C21.4654 5.35315 20.6378 8.24418 20.2386 11.1819C20.0795 12.353 20.0171 15.1693 20.1082 17.0695C20.1589 18.1265 20.0191 18.4865 19.4219 18.8365C18.5555 19.3442 17.5269 18.8259 17.3165 17.7758C17.1706 17.0471 17.1166 13.7581 17.2271 12.328C17.4605 9.30764 18.1716 6.16951 19.2237 3.51667C19.5575 2.67461 19.5569 2.38805 19.2203 2.05143C18.7733 1.60451 18.2596 1.71255 15.8875 2.75246C13.9885 3.5849 12.7751 4.28341 12.1584 4.89931C11.1652 5.89122 10.8158 6.80545 10.3896 9.52732C10.2145 10.646 10.1871 11.165 10.1883 13.3392C10.1896 15.4887 10.2191 16.0462 10.3904 17.1593C10.6571 18.8922 11.0993 20.665 11.714 22.4647C12.1285 23.6787 12.2082 24.0067 12.1607 24.3036C12.0054 25.2754 11.1377 25.9583 10.1995 25.8472C9.20308 25.7292 8.82358 25.2246 8.11932 23.0817C7.01317 19.716 6.61847 17.2736 6.57398 13.5189C6.55439 11.867 6.50908 10.936 6.44194 10.8097C6.24158 10.4327 5.58334 10.2969 5.213 10.5563C4.63395 10.9619 2.9395 13.46 2.09726 15.1498C0.895558 17.5608 0.236597 19.9217 0.0165541 22.6046C-0.0708159 23.6697 0.181407 24.0806 0.922344 24.0806C1.16027 24.0806 1.31677 24.013 1.49474 23.8334C1.72072 23.6054 1.74804 23.4971 1.84683 22.4376C2.09797 19.7447 2.87037 17.3209 4.23063 14.9571L4.69624 14.1481L4.80618 15.5414C5.08141 19.0294 5.75125 22.0492 6.91465 25.0473C7.46728 26.4715 8.25424 27.2277 9.52218 27.5527C11.4492 28.0467 13.3662 26.8737 13.8723 24.891C14.0783 24.0842 14.0027 23.5603 13.4572 22.0132C12.3054 18.7466 11.86 15.9426 11.9593 12.5842C12.0368 9.96174 12.4476 7.55295 12.954 6.75251C13.3639 6.10461 13.9345 5.69167 15.4553 4.943C16.2679 4.54291 16.9574 4.21563 16.9875 4.21563C17.0175 4.21563 16.9432 4.52907 16.8223 4.91226C16.2668 6.67296 15.7783 9.0031 15.5081 11.1819C15.3707 12.2902 15.3697 17.0467 15.5068 17.9003C15.705 19.1341 16.3386 20.0282 17.3755 20.5374C17.847 20.7688 18.0054 20.7996 18.719 20.7983C19.4029 20.7972 19.6043 20.7607 20.0223 20.5624C20.7092 20.2364 21.1999 19.781 21.5267 19.1662C21.9249 18.417 22.0033 17.8604 21.892 16.5751C21.7762 15.2388 21.852 12.6024 22.0457 11.2268C22.3771 8.87411 22.998 6.61714 23.9045 4.47082C24.6411 2.72657 25.4179 2.06455 26.9538 1.87201C27.3556 1.82159 27.6988 1.7948 27.7164 1.81251C27.7342 1.83022 27.5443 2.42868 27.2945 3.14247C26.3274 5.90659 25.6757 9.00939 25.6533 10.9571C25.6406 12.0462 25.6484 12.0956 25.907 12.5624C26.2104 13.1101 26.684 13.5502 27.2909 13.8483C27.9279 14.161 28.9716 14.1438 29.653 13.8093C30.2355 13.5231 30.8407 12.9106 31.0787 12.3662C31.1689 12.1597 31.288 11.6066 31.3432 11.1369C31.5906 9.03483 31.916 7.49273 32.4907 5.69877C32.8877 4.4595 32.9759 4.28943 33.5191 3.71514C34.522 2.65466 35.6948 2.4712 37.5952 3.07749C38.8792 3.48719 40.8087 4.2355 41.2011 4.47604C41.5188 4.67082 42.0206 5.76537 42.692 7.72841C43.0173 8.67915 43.0738 8.9515 43.073 9.5639C43.0722 10.1582 43.0289 10.3766 42.8233 10.8223C42.5541 11.406 42.1018 11.9315 41.5807 12.2661C40.7873 12.7756 37.9551 13.4731 35.5727 13.7458C34.2743 13.8945 33.9093 14.0427 33.2735 14.6795C32.6332 15.321 32.4267 15.8145 32.4268 16.7034C32.4269 17.9755 33.4106 19.179 34.6739 19.4527C35.8217 19.7014 39.7963 19.0054 42.7461 18.0392C43.5026 17.7912 44.1442 17.611 44.1718 17.6385C44.2401 17.7069 44.0423 20.2458 43.8878 21.2832C43.7288 22.351 43.441 22.9477 42.8043 23.5295C41.8925 24.363 40.7707 24.5778 37.3705 24.5704C34.6786 24.5645 32.8841 24.319 30.4042 23.6174C29.205 23.2779 28.4826 23.257 27.7304 23.5397C27.0507 23.7951 26.3081 24.476 25.9825 25.1422C25.763 25.5914 25.7325 25.7577 25.7314 26.5089C25.7302 27.2954 25.7539 27.4126 26.0256 27.9649C26.3552 28.635 26.8889 29.1641 27.548 29.4738C28.4872 29.9154 31.884 30.6612 34.1795 30.93C35.2578 31.0562 39.774 31.0914 40.4042 30.9784C40.6142 30.9407 40.7862 30.9417 40.7862 30.9804C40.7862 31.1262 39.6954 33.0048 39.018 34.0256C38.1808 35.2873 37.7748 35.707 37.0659 36.0439C36.3369 36.3904 35.8124 36.4354 34.4941 36.2647C30.1246 35.6988 26.1362 34.0769 22.4005 31.3465C21.6683 30.8113 21.2805 30.5928 20.8064 30.4488C19.1524 29.9465 17.3689 30.743 16.5858 32.334C16.3104 32.8932 16.292 32.99 16.292 33.8764C16.292 34.747 16.314 34.8686 16.5695 35.4064C16.9101 36.1237 17.391 36.6065 18.7008 37.5462C21.6073 39.6317 25.1071 41.3592 28.2919 42.2807C28.7616 42.4167 29.1797 42.5591 29.2212 42.5974C29.3047 42.6747 27.9673 43.2152 26.9885 43.4999C23.3842 44.548 19.5491 44.4216 15.8297 43.1321C14.7033 42.7414 12.4968 41.6354 11.4381 40.9306C8.17729 38.7596 5.5703 35.8563 3.9003 32.536C3.58785 31.9147 3.27882 31.2648 3.21356 31.0918C3.01149 30.556 2.69392 30.2828 2.2728 30.2828C1.81663 30.2828 1.5493 30.4625 1.41924 30.8565C1.3316 31.122 1.35398 31.2484 1.59838 31.8674C2.37114 33.8252 3.70416 35.9749 5.39071 37.9836L6.00751 38.7182L5.44105 39.4218C4.67629 40.3717 4.0869 41.2837 3.56798 42.3204C3.04637 43.3624 2.58426 44.5386 2.58426 44.8245C2.58426 45.3768 3.12745 45.8288 3.63873 45.7019C4.01185 45.6093 4.26928 45.3205 4.43449 44.8091C4.81876 43.6195 5.84832 41.788 6.82477 40.5568L7.26683 39.9995L8.29388 40.8441C15.1716 46.5002 23.7492 47.575 31.1683 43.7101C32.3931 43.0721 32.7483 42.7949 32.8325 42.4114C32.8886 42.1561 32.7247 41.7279 32.5 41.5431C32.435 41.4896 31.7346 41.2967 30.9436 41.1144C27.1235 40.2341 23.9105 38.8547 20.649 36.6946C19.3642 35.8438 18.5493 35.2058 18.2774 34.838C18.1247 34.6315 18.0897 34.4531 18.0897 33.88C18.0897 33.2299 18.1109 33.1494 18.3646 32.8305C18.7016 32.4069 19.3154 32.0806 19.7746 32.0806C20.2329 32.0806 20.639 32.261 21.2648 32.7425C22.8599 33.9698 25.6127 35.5278 27.5279 36.287C30.0198 37.2748 32.8803 37.9675 35.2236 38.1505C36.5327 38.2527 37.8526 37.8496 38.8782 37.0341C39.7527 36.3389 41.2861 34.0298 42.5538 31.4994C43.404 29.8022 43.4332 29.6289 42.9423 29.1817C42.6228 28.8907 42.6267 28.8908 41.1604 29.086C39.7205 29.2776 35.7206 29.3036 34.2694 29.1307C31.9404 28.8533 28.7234 28.117 28.1037 27.7195C27.2988 27.2033 27.2749 25.8948 28.0609 25.3799C28.5504 25.0591 28.8242 25.0705 30.4196 25.4777C33.2805 26.2078 35.6268 26.4779 38.3143 26.3865C40.0791 26.3265 41.5995 26.1485 42.209 25.9305C43.8334 25.3498 45.0987 23.9925 45.5065 22.393C45.7165 21.5695 45.9088 19.6767 45.97 17.8327C46.0343 15.8926 45.976 15.635 45.42 15.4027C45.0724 15.2574 45.033 15.2669 43.5277 15.8541C41.5517 16.6251 39.2005 17.23 36.921 17.5539C35.2133 17.7966 34.9519 17.7793 34.5454 17.3959C34.2698 17.136 34.2244 17.036 34.2244 16.689C34.2244 16.2736 34.4311 15.8992 34.7565 15.725C34.8437 15.6784 35.4372 15.5762 36.0754 15.498C38.4114 15.2116 41.1441 14.5298 42.2185 13.9652C43.3445 13.3735 44.2916 12.2331 44.676 11.0059C44.828 10.5207 44.8729 10.1628 44.868 9.47402C44.8625 8.66755 44.8228 8.4574 44.4825 7.43008C44.0793 6.21301 43.364 4.41752 42.9822 3.664C42.7629 3.23128 42.7058 3.18715 41.8362 2.77897C40.6748 2.23381 39.0288 1.61709 37.7179 1.23579C35.5074 0.592834 33.7189 0.967482 32.2991 2.3708C31.9693 2.69691 31.6213 3.16252 31.4244 3.54148C30.6854 4.96358 29.8025 8.41659 29.5858 10.7324C29.5094 11.5491 29.36 11.9002 28.9939 12.1233C28.6161 12.3537 28.2571 12.3542 27.8862 12.1249C27.4587 11.8607 27.3567 11.5343 27.4248 10.6484C27.6155 8.16751 28.5338 4.62273 29.682 1.93547C30.1537 0.831393 30.1586 0.590047 29.7166 0.218095C29.4594 0.00164787 29.3972 -0.00850934 28.3973 0.00317595C27.8203 0.00982758 27.0589 0.0457823 26.7056 0.0830854ZM0.876412 26.3879C0.173317 26.6624 0.0662615 27.6648 0.704818 27.9949C1.33187 28.3192 2.04494 27.9388 2.04494 27.28C2.04494 26.719 1.36261 26.1982 0.876412 26.3879Z" fill="white"/>
</svg>
