<svg width="46" height="34" viewBox="0 0 46 34" fill="none" xmlns="http://www.w3.org/2000/svg">
<path fill-rule="evenodd" clip-rule="evenodd" d="M16.8475 0.174519C15.1719 0.620301 14.6093 1.04794 12.1561 3.73952C11.7006 4.23947 11.1363 4.77527 10.9022 4.93034C9.69867 5.72748 7.91815 5.77779 6.65079 5.05036C6.15766 4.76737 5.14203 3.79908 4.30284 2.81193C3.28244 1.61168 1.79174 0.511775 1.18533 0.511775C0.529501 0.511775 0.00268413 1.00032 0.00268413 1.60844C0.00268413 1.96043 0.292326 2.38977 0.706574 2.65183C1.43544 3.11298 2.11391 3.73161 3.11633 4.84912C3.65204 5.44637 4.3668 6.15565 4.7046 6.42535C6.94249 8.2118 10.0037 8.28206 12.3593 6.60117C12.6729 6.37738 13.5163 5.55256 14.2335 4.76827C15.6905 3.17497 16.0167 2.88784 16.7724 2.53379C17.2527 2.30874 17.3876 2.28817 18.3795 2.28817C19.4496 2.28817 19.4701 2.29203 20.1443 2.62524C20.6979 2.89889 20.9845 3.12717 21.6665 3.83807C24.0446 6.31656 24.4401 6.6698 25.3386 7.11702C27.3965 8.14146 29.7652 8.01721 31.6143 6.78794C32.0185 6.51923 32.6285 5.95801 33.2658 5.26831C35.0253 3.36435 35.5181 2.91093 36.1798 2.58742C36.7703 2.29868 36.83 2.28817 37.8746 2.28817C38.9467 2.28817 38.9641 2.29149 39.6464 2.62875C40.3969 2.9996 40.7229 3.29311 42.4282 5.13239C43.5003 6.2888 44.4075 7.00472 44.8006 7.00472C45.4046 7.00472 45.9993 6.45688 46 5.8997C46.0005 5.48572 45.7693 5.16104 45.0622 4.5832C44.693 4.28161 44.0911 3.68229 43.7244 3.25133C42.926 2.31314 42.0708 1.48734 41.4803 1.0845C39.7077 -0.125095 37.28 -0.343315 35.3471 0.533067C34.363 0.979298 33.6771 1.54573 32.3086 3.04228C30.8502 4.63701 30.5198 4.92773 29.7804 5.26625C29.0806 5.58661 27.9147 5.65938 27.0839 5.43451C26.2122 5.19851 25.5923 4.74141 24.394 3.45087C22.6185 1.53855 22.0362 1.04192 20.9905 0.547801C19.8352 0.00193755 18.0877 -0.155461 16.8475 0.174519ZM17.9256 8.41655C16.8858 8.48438 15.896 8.814 15.0058 9.38906C14.2922 9.85002 13.7174 10.3994 12.442 11.8395C10.9527 13.521 10.1755 13.9577 8.67217 13.9577C7.23654 13.9577 6.36887 13.5028 5.07815 12.0732C3.25558 10.0545 1.99918 9.01497 1.26241 8.91614C0.840884 8.85963 0.4128 9.07336 0.178769 9.45724C-0.203227 10.0837 0.0137343 10.5816 0.957585 11.2442C1.76299 11.8097 2.18317 12.2056 3.4906 13.6305C5.11786 15.4042 6.19189 15.9895 8.22369 16.2097C8.77171 16.2692 10.0194 16.1217 10.5893 15.9302C11.8745 15.4981 12.8913 14.7183 14.377 13.0253C15.8885 11.3028 16.5175 10.8687 17.7555 10.6932C18.8799 10.5338 19.9562 10.7991 20.8515 11.4563C21.0859 11.6283 21.8276 12.3719 22.4999 13.1088C24.18 14.9505 25.1761 15.6616 26.6027 16.0384C27.3785 16.2432 28.9566 16.2428 29.7395 16.0374C31.1797 15.6597 32.0741 15.0318 33.6459 13.2953C35.0321 11.7637 35.5412 11.3006 36.1612 11.0073C37.1361 10.5461 38.5944 10.5393 39.5741 10.9914C40.2603 11.308 40.8525 11.8243 41.9718 13.0814C42.5322 13.711 43.3131 14.4811 43.707 14.7929C44.3366 15.2911 44.4705 15.3598 44.8121 15.3598C45.3245 15.3598 45.6733 15.1685 45.8535 14.7887C46.1467 14.1707 45.9903 13.7235 45.2913 13.1807C45.0057 12.959 44.2773 12.2367 43.6724 11.5757C41.4612 9.15889 40.1199 8.4249 37.9148 8.4249C36.7841 8.4249 36.0797 8.58661 35.0849 9.0748C34.2153 9.50154 33.5493 10.0881 32.0376 11.7582C30.408 13.5586 29.7557 13.9373 28.2571 13.9529C26.6354 13.9699 25.9243 13.5592 24.0782 11.5402C22.7908 10.1319 21.9859 9.44242 21.1542 9.03518C20.2674 8.6009 18.9552 8.34953 17.9256 8.41655ZM17.5213 17.4261C15.7771 17.6402 14.6612 18.3404 12.8832 20.3362C11.5887 21.7895 11.0149 22.3083 10.3765 22.603C9.34821 23.0775 7.89955 23.0487 6.83046 22.5325C6.36411 22.3074 6.0565 22.0506 5.3032 21.2577C3.45781 19.3155 2.91356 18.8028 2.20788 18.3419C1.44335 17.8427 1.10043 17.7676 0.649347 18.0009C0.0840785 18.2931 -0.120755 18.8434 0.120643 19.4211C0.220185 19.6595 0.442717 19.8715 0.958034 20.2192C1.71143 20.7277 2.13502 21.1289 3.57379 22.6972C5.23016 24.5028 6.5905 25.1675 8.63488 25.1705C9.76237 25.1722 10.3841 25.0337 11.3673 24.5618C12.3619 24.0845 13.0066 23.5295 14.4663 21.8946C16.118 20.0445 16.8454 19.6299 18.4197 19.6411C19.9643 19.652 20.6869 20.0848 22.5113 22.0915C23.7003 23.3993 24.5753 24.1466 25.3994 24.5578C26.9976 25.3554 29.2568 25.3795 30.8561 24.6163C31.7428 24.193 32.4959 23.5549 33.6796 22.2235C35.4022 20.2861 35.9586 19.8848 37.2239 19.6671C38.049 19.5253 38.9874 19.6659 39.7358 20.0436C40.2959 20.3263 40.5201 20.5358 42.7661 22.8746C43.2356 23.3634 43.8218 23.8972 44.0688 24.0609C44.458 24.3187 44.5756 24.3531 44.949 24.3189C45.7161 24.2486 46.1523 23.5939 45.9137 22.8709C45.8415 22.6524 45.631 22.4143 45.2343 22.1025C44.9182 21.8541 44.1829 21.1234 43.6005 20.479C42.3387 19.0827 41.5623 18.4396 40.577 17.9745C39.6632 17.543 39.0027 17.4008 37.9148 17.4011C36.7755 17.4014 36.1426 17.5423 35.1747 18.0115C34.1888 18.4893 33.5886 19.0059 32.116 20.6438C30.5912 22.3399 30.0216 22.7261 28.7866 22.9012C27.6352 23.0645 26.4686 22.7533 25.5699 22.0431C25.3892 21.9002 24.7307 21.2229 24.1066 20.5378C23.4827 19.8528 22.712 19.0778 22.3939 18.8155C21.0603 17.7154 19.286 17.2095 17.5213 17.4261ZM17.0721 25.9156C16.3167 26.0677 15.6583 26.3318 15.0248 26.7372C14.5054 27.0694 13.8661 27.6871 12.0411 29.6204C11.157 30.5569 10.9172 30.7575 10.3791 31.0105C9.77674 31.2937 9.7046 31.3062 8.6675 31.3062C7.60102 31.3062 7.57478 31.3013 6.91545 30.9754C6.19755 30.6207 5.46679 29.9656 4.4278 28.7458C3.30499 27.4277 1.79327 26.2954 1.16772 26.304C0.685462 26.3106 0.281455 26.5455 0.130346 26.9072C-0.152199 27.5835 0.064763 28.0252 0.990915 28.6589C1.79138 29.2068 2.1679 29.5612 3.26546 30.7999C5.13241 32.9072 6.74296 33.6886 8.97789 33.5713C10.021 33.5166 10.6388 33.3623 11.4496 32.954C12.3088 32.5213 12.9506 31.9657 14.3 30.4867C14.9993 29.7203 15.7513 28.9558 15.9712 28.7879C17.2195 27.8348 19.2099 27.7761 20.556 28.6527C20.8474 28.8424 21.7245 29.6733 22.5809 30.5707C23.573 31.6103 24.3097 32.2989 24.7264 32.5759C26.5399 33.7816 28.9703 33.9309 30.9606 32.959C31.8205 32.5391 32.5804 31.8685 34.0075 30.2703C34.5507 29.662 35.2313 28.9897 35.5202 28.7764C36.7328 27.8805 38.503 27.7743 39.865 28.5156C40.3877 28.8001 40.9291 29.3054 42.3008 30.7892C43.9616 32.5858 44.668 33.0176 45.3608 32.6593C45.705 32.4814 45.9996 32.0317 46 31.6836C46.0005 31.2725 45.7659 30.9375 45.1112 30.4152C44.771 30.1438 44.1278 29.5025 43.6818 28.9903C41.9836 27.0394 40.8462 26.2551 39.2319 25.9217C37.4126 25.5459 35.5434 25.9644 34.0767 27.0759C33.7693 27.3088 33.0169 28.0528 32.4045 28.729C30.9493 30.3364 30.5639 30.6822 29.861 31.0111C29.3912 31.2309 29.1188 31.2937 28.4722 31.3305C26.9582 31.4168 26.0485 30.9954 24.7143 29.5893C22.385 27.1345 21.8754 26.7017 20.7704 26.2395C19.7351 25.8065 18.2568 25.6771 17.0721 25.9156Z" fill="white"/>
</svg>
