<svg width="48" height="43" viewBox="0 0 48 43" fill="none" xmlns="http://www.w3.org/2000/svg">
<path fill-rule="evenodd" clip-rule="evenodd" d="M28.6991 1.21684C28.4897 1.39693 28.4469 1.50504 28.4469 1.85372C28.4469 2.39084 28.7635 2.70744 29.3006 2.70744C29.8378 2.70744 30.1544 2.39084 30.1544 1.85372C30.1544 1.31659 29.8378 1 29.3006 1C29.0608 1 28.8721 1.06803 28.6991 1.21684ZM24.0885 1.85794C20.8424 3.03571 18.1414 5.16956 16.245 8.05441C15.7681 8.77989 15.1695 9.9236 14.8092 10.7977C14.5762 11.3631 12.2779 12.845 10.2175 13.7585C7.85893 14.8043 5.47831 15.3562 2.62411 15.519C1.32915 15.5928 1.10647 15.7052 1.02307 16.3265C0.982452 16.6296 1.01381 16.7371 1.2108 16.9713C1.34092 17.1259 1.56621 17.2784 1.71144 17.3103C2.12724 17.4017 4.59979 17.1878 5.89555 16.9485C8.51054 16.4656 11.3357 15.414 13.3671 14.1677L13.744 13.9363L13.4784 14.7247C12.5214 17.5646 10.5048 20.3243 8.06427 22.1338C6.30606 23.4374 4.66305 24.2147 2.39109 24.8178C1.84327 24.9631 1.33266 25.1537 1.23848 25.2478C1.14556 25.3408 1.04805 25.5765 1.0219 25.7715C0.982721 26.0633 1.0157 26.1752 1.2081 26.4039C1.54546 26.8048 1.77057 26.826 2.85946 26.5592C8.11055 25.2725 12.6387 21.4191 14.7307 16.4568C14.9704 15.8884 15.4589 14.5353 15.8163 13.45C16.9318 10.0625 17.6894 8.73406 19.5887 6.83476C21.2356 5.1878 22.8658 4.16981 25.032 3.43561C25.9498 3.1245 26.1554 2.93884 26.1554 2.42095C26.1554 2.14686 26.0947 2.00388 25.8927 1.80187C25.5421 1.4513 25.1779 1.46263 24.0885 1.85794ZM32.9301 1.89685C32.5741 2.04073 32.3343 2.44773 32.3844 2.82327C32.4451 3.27889 32.5356 3.37037 33.3386 3.78815C34.7306 4.51247 36.0792 5.83087 36.6992 7.07362C38.5265 10.7366 36.6413 15.5413 33.1199 16.1957C32.5197 16.3073 31.6562 16.2486 31.1295 16.0605C30.8332 15.9547 30.8093 15.9277 30.9631 15.8727C32.3176 15.3883 33.217 14.4247 33.5663 13.0837C33.9368 11.6612 33.5258 10.1772 32.467 9.11463C30.5559 7.19646 26.8132 7.47361 24.7084 9.68914C21.2578 13.3213 21.429 19.491 25.0738 22.8649C26.6218 24.2979 28.5606 25.2787 30.6447 25.6834C31.78 25.9039 33.6714 25.8797 34.8663 25.6295C36.9679 25.1894 38.5806 24.34 40.2748 22.7809C42.0689 21.1297 43.6036 20.341 45.6636 20.0115C46.4069 19.8926 46.5398 19.8429 46.7569 19.6029C47.2926 19.0106 46.8701 18.1705 46.0342 18.1662C45.1723 18.1618 43.2285 18.7015 42.1313 19.2499C41.2281 19.7015 40.1484 20.4549 39.3927 21.1611C38.0282 22.4363 37.1822 22.9893 35.8542 23.474C33.5515 24.3143 31.1868 24.2483 28.9112 23.2799C27.5145 22.6855 25.9543 21.4087 25.1858 20.2311C23.7425 18.0195 23.6292 14.9493 24.9007 12.5071C25.8816 10.6231 27.3253 9.62704 29.0752 9.62704C29.9242 9.62704 30.5553 9.83679 31.0704 10.2902C32.1358 11.2279 32.1799 12.8383 31.1648 13.7295C30.4914 14.3208 29.7642 14.3391 28.954 13.7853C28.3314 13.3595 27.9336 13.3505 27.5732 13.7539C27.2363 14.131 27.251 14.491 27.6346 15.254C28.248 16.474 29.2549 17.33 30.6037 17.778C31.2214 17.9831 31.4743 18.0168 32.401 18.0169C33.6379 18.0172 34.3819 17.8235 35.4714 17.2174C36.5942 16.5929 37.8146 15.1687 38.4749 13.7128C39.2598 11.9814 39.428 9.73578 38.9146 7.83846C38.2725 5.46539 36.2526 3.14355 33.8625 2.03075C33.3565 1.79522 33.2276 1.7767 32.9301 1.89685ZM16.7993 21.624C16.4356 21.8217 16.3258 22.1972 16.3938 23.0119C16.5123 24.4335 17.0385 25.8935 17.8343 27.0087C18.333 27.7075 19.4984 28.8065 20.1606 29.2024C21.4139 29.9516 22.8562 30.3859 24.0916 30.3859C24.6789 30.3859 24.7529 30.3643 24.994 30.1232C25.3483 29.7689 25.3602 29.2557 25.022 28.9176C24.7793 28.6749 24.6223 28.6327 23.649 28.5485C22.3012 28.4319 20.7854 27.6477 19.7736 26.5434C18.8536 25.5394 18.1574 23.8302 18.1574 22.5756C18.1574 22.1024 17.9992 21.7746 17.695 21.6173C17.3857 21.4573 17.1021 21.4595 16.7993 21.624ZM45.6171 24.5036C45.2448 24.6977 44.2026 25.5446 43.4094 26.2976C42.0387 27.5988 40.9778 28.3662 39.5902 29.0601C37.7798 29.9653 36.1476 30.3866 33.8012 30.5543C32.8399 30.623 32.7619 30.6431 32.5655 30.8712C32.3403 31.1331 32.2864 31.6156 32.4486 31.9185C32.6522 32.299 33.0355 32.3917 34.1342 32.326C38.0959 32.0891 41.5203 30.5727 44.4878 27.7412C44.9079 27.3403 45.6012 26.7402 46.0284 26.4076C46.4555 26.075 46.8296 25.7389 46.8596 25.6607C46.962 25.3939 46.9105 24.9494 46.7549 24.7574C46.4335 24.3606 46.0536 24.2759 45.6171 24.5036ZM5.67628 35.8215C4.0171 36.1965 2.50539 36.9916 1.42081 38.0598C0.921343 38.5517 0.86374 39.0632 1.26274 39.4622C1.69598 39.8955 2.13749 39.8099 2.89748 39.1456C3.62853 38.5066 4.81564 37.895 5.76812 37.6666C7.30113 37.2992 9.11209 37.4921 10.455 38.1661C11.2437 38.562 11.4959 38.7388 12.1939 39.3859C13.4181 40.5207 14.63 41.2393 16.0651 41.6815C16.7989 41.9076 16.968 41.9248 18.4719 41.9248C19.9758 41.9248 20.1449 41.9076 20.8787 41.6815C22.3549 41.2267 23.4616 40.5617 24.8521 39.2941C27.5112 36.8703 31.5394 36.8703 34.1985 39.2941C35.589 40.5617 36.6957 41.2267 38.1719 41.6815C38.9057 41.9076 39.0748 41.9248 40.5787 41.9248C42.0826 41.9248 42.2517 41.9076 42.9855 41.6815C44.0368 41.3576 45.0212 40.8518 45.923 40.1723C46.9673 39.3854 47.1918 38.9541 46.8544 38.383C46.5607 37.8857 46.0305 37.8043 45.5437 38.1817C44.3813 39.0829 44.045 39.3132 43.5351 39.5565C42.508 40.0466 41.6573 40.2066 40.3174 40.1617C39.3393 40.1289 39.0196 40.0808 38.4219 39.8769C37.446 39.5438 36.6965 39.0817 35.673 38.1817C34.2849 36.9609 33.3851 36.4325 31.9326 35.9849C31.1982 35.7586 31.0295 35.7416 29.5253 35.7416C28.0211 35.7416 27.8524 35.7586 27.118 35.9849C25.6655 36.4325 24.7657 36.9609 23.3776 38.1817C22.3608 39.0758 21.6128 39.5388 20.6287 39.8832C19.9568 40.1183 19.8155 40.1347 18.4719 40.1347C17.1283 40.1347 16.987 40.1183 16.3151 39.8832C15.331 39.5388 14.583 39.0758 13.5662 38.1817C12.1716 36.9553 11.2617 36.4224 9.8258 35.9911C9.1519 35.7886 8.8318 35.7494 7.64316 35.7229C6.65446 35.7008 6.08373 35.7294 5.67628 35.8215Z" fill="white" stroke="white" stroke-width="0.3"/>
</svg>
