<svg width="45" height="45" viewBox="0 0 45 45" fill="none" xmlns="http://www.w3.org/2000/svg">
<path fill-rule="evenodd" clip-rule="evenodd" d="M11.254 1.49467V2.98934H12.0013H12.7486V1.49467V0H12.0013H11.254V1.49467ZM5.60281 2.70553L5.1006 3.2131L6.15443 4.26411L7.20817 5.31513L7.73711 4.79173L8.26604 4.26825L7.23367 3.23314C6.66578 2.66385 6.17957 2.19804 6.15311 2.19804C6.12673 2.19804 5.87906 2.42646 5.60281 2.70553ZM16.7689 3.23314L15.7366 4.26825L16.2655 4.79173L16.7944 5.31513L17.8482 4.26411L18.902 3.2131L18.3998 2.70553C18.1236 2.42646 17.8759 2.19804 17.8495 2.19804C17.823 2.19804 17.3368 2.66385 16.7689 3.23314ZM11.39 4.58758C10.0228 4.72447 8.65721 5.72423 7.99938 7.06987C7.11559 8.87789 7.45268 10.8087 8.90119 12.2349C10.6552 13.9619 13.411 13.9358 15.1713 12.1756C17.358 9.98887 16.7452 6.39287 13.95 5.00881C13.1348 4.60516 12.4084 4.48559 11.39 4.58758ZM13.3201 6.34961C15.1361 7.28405 15.5443 9.69389 14.1268 11.1113C12.8054 12.4327 10.7119 12.289 9.61863 10.8018C9.20012 10.2325 9.04318 9.7368 9.04362 8.98515C9.04389 8.45077 9.08838 8.25127 9.30844 7.79821C9.70216 6.98722 10.0962 6.60362 10.8699 6.27769C11.5791 5.97894 12.6616 6.01068 13.3201 6.34961ZM2.98934 9.01197V9.75931H4.484H5.97867V9.01197V8.26464H4.484H2.98934V9.01197ZM18.0239 9.01197V9.75931H19.5186H21.0133V9.01197V8.26464H19.5186H18.0239V9.01197ZM6.19848 13.8037L5.1457 14.8593L5.67323 15.3868L6.20076 15.9143L7.25354 14.8588L8.30631 13.8032L7.77878 13.2756L7.25125 12.7481L6.19848 13.8037ZM16.2211 13.2766L15.6973 13.806L16.7725 14.8813L17.8477 15.9565L18.3756 15.4285L18.9036 14.9005L17.8244 13.8238L16.745 12.7471L16.2211 13.2766ZM27.4749 12.8715C27.2537 12.9672 26.4646 14.2213 22.6392 20.5567C20.125 24.7206 18.0425 28.129 18.0114 28.1312C17.9802 28.1333 17.0934 26.9457 16.0406 25.4923C14.9878 24.0388 14.0248 22.7697 13.9005 22.6719C13.6646 22.4863 13.2825 22.4962 13.0442 22.6938C12.9801 22.7472 10.0188 27.4102 6.46374 33.0562C2.22767 39.7837 0 43.3998 0 43.5484C0 43.6732 0.0954829 43.8862 0.212155 44.0219L0.424398 44.2686H22.5079H44.5915L44.8127 44.0114C44.9794 43.8176 45.023 43.6877 44.9895 43.4839C44.9373 43.1658 28.5526 13.321 28.2779 13.0434C28.0229 12.7858 27.7885 12.7356 27.4749 12.8715ZM11.254 16.5293V18.0239H12.0013H12.7486V16.5293V15.0346H12.0013H11.254V16.5293ZM29.1783 17.6695C29.8566 18.9011 30.3982 19.9223 30.3817 19.9388C30.3652 19.9553 29.8337 19.7093 29.2006 19.392C27.6738 18.627 27.6059 18.628 26.7803 19.4285L26.1479 20.0417L25.6687 19.7232C25.4051 19.5481 25.1732 19.3909 25.1532 19.3741C25.1333 19.3573 25.7046 18.3715 26.4227 17.1834C27.6471 15.158 27.7352 15.0361 27.8366 15.2268C27.8961 15.3387 28.4999 16.4379 29.1783 17.6695ZM38.1466 15.1722C37.2862 15.4371 36.389 16.3063 36.1629 17.094C36.1172 17.2535 35.9731 17.4148 35.7828 17.5194C34.9691 17.9671 34.5532 18.6469 34.5532 19.5291C34.5532 20.5863 35.1423 21.3695 36.1661 21.6736C36.7103 21.8352 41.6758 21.8629 42.5159 21.709C43.5312 21.5231 44.2897 20.9297 44.7403 19.9688C45.0686 19.2686 45.066 18.2845 44.7341 17.5671C44.4526 16.9584 43.887 16.3744 43.2991 16.0851C42.9262 15.9015 42.7293 15.8687 41.9613 15.8621C41.3053 15.8565 41.0188 15.8191 40.9063 15.7247C40.1662 15.104 39.0766 14.8858 38.1466 15.1722ZM39.5382 16.6627C39.7139 16.7362 40.0473 16.9735 40.2789 17.1903C40.741 17.6225 40.8736 17.653 41.3758 17.4431C41.8348 17.2514 42.5264 17.3141 42.9021 17.5817C43.2262 17.8125 43.5164 18.3734 43.5193 18.7746C43.5221 19.159 43.1731 19.7934 42.8354 20.0177C42.4243 20.2907 41.9603 20.3247 39.0661 20.2936L36.5014 20.2659L36.2746 20.0528C35.7904 19.5976 36.0638 18.9047 36.7782 18.7773C37.2044 18.7011 37.4304 18.4737 37.4996 18.0508C37.627 17.2715 37.9856 16.7951 38.5792 16.6161C38.9465 16.5054 39.1901 16.5173 39.5382 16.6627ZM29.8934 21.4468L31.7837 22.3985L36.9804 31.8389C39.8385 37.031 42.1667 41.292 42.154 41.3076C42.1413 41.3233 39.1246 39.4736 35.4503 37.1973C30.4623 34.1072 28.7018 33.0585 28.5019 33.0585C28.3073 33.0585 28.0232 33.2194 27.4593 33.649C27.033 33.9737 24.1593 36.1696 21.0732 38.5287L15.4621 42.8179H8.77599H2.0899L2.21774 42.62C2.28807 42.5112 4.39635 39.1581 6.90291 35.1687C9.40946 31.1792 11.4689 27.9029 11.4796 27.8879C11.4902 27.8729 12.2176 28.3378 13.096 28.921C15.1973 30.3159 15.2359 30.318 16.0471 29.0801C16.2293 28.802 16.3888 28.5745 16.4015 28.5745C16.4143 28.5745 16.6839 28.929 17.0006 29.3621C17.3174 29.7953 18.2153 30.9024 18.9958 31.8225C20.5791 33.6884 20.4011 33.5958 21.1402 32.937L21.5748 32.5496L20.4808 31.2562C19.8791 30.5448 19.2972 29.8512 19.1878 29.7151L18.9891 29.4675L21.6383 25.0865C23.0954 22.677 24.2993 20.6924 24.3135 20.6764C24.3278 20.6603 24.7088 20.8956 25.1602 21.1992C26.2712 21.9467 26.3686 21.9429 27.1927 21.1188C27.5408 20.7706 27.8656 20.4879 27.9143 20.4904C27.9631 20.493 28.8537 20.9234 29.8934 21.4468ZM14.5345 25.9725L15.4574 27.2391L15.145 27.709C14.9733 27.9674 14.8225 28.1916 14.8101 28.2073C14.7976 28.2229 14.2306 27.864 13.55 27.4096L12.3127 26.5836L12.9044 25.6452C13.2297 25.1291 13.522 24.7066 13.5538 24.7064C13.5857 24.7062 14.0269 25.2759 14.5345 25.9725ZM29.5532 35.3115C30.0788 35.6318 30.5088 35.9193 30.5088 35.9503C30.5088 36.0578 28.4395 38.0701 28.3289 38.0701C28.2679 38.0701 27.9914 37.956 27.7148 37.8165C27.4382 37.677 26.7993 37.4789 26.2953 37.3763C25.7912 37.2736 25.3704 37.18 25.3602 37.1683C25.3365 37.1411 28.4943 34.7291 28.5535 34.7291C28.5777 34.7291 29.0276 34.9911 29.5532 35.3115ZM36.9243 39.8725L41.611 42.7739L35.7082 42.7965C32.4617 42.8089 27.1473 42.8089 23.8985 42.7965L17.9916 42.7739L20.7848 40.6362C22.321 39.4604 23.6302 38.4784 23.694 38.4539C23.7578 38.4294 24.4567 38.5371 25.2471 38.6933C26.4322 38.9273 26.8188 39.0441 27.4518 39.3588C28.6898 39.9746 28.6041 40.0072 30.3674 38.2523C31.7412 36.8852 31.8781 36.7725 32.0503 36.8676C32.1533 36.9245 34.3466 38.2767 36.9243 39.8725Z" fill="white"/>
</svg>
