<svg width="45" height="43" viewBox="0 0 45 43" fill="none" xmlns="http://www.w3.org/2000/svg">
<path fill-rule="evenodd" clip-rule="evenodd" d="M20.4843 0.101521C19.7934 0.219573 18.6216 0.656185 17.9865 1.03235C17.2159 1.48874 15.8872 2.84553 15.4219 3.65111C15.2124 4.01368 14.9178 4.69826 14.7673 5.1724L14.4933 6.03447V10.142C14.4933 14.5314 14.4973 14.5741 15.0386 16.0292C15.4877 17.2363 16.7656 18.8303 17.9339 19.6405C18.4701 20.0124 18.4715 20.0148 18.4715 20.5543V21.0953L14.2667 21.0936C9.66847 21.0916 9.13611 21.0414 8.18517 20.5202C7.09012 19.92 6.1397 18.7784 5.82366 17.6837C5.73936 17.3918 5.63281 16.6796 5.58678 16.1009C5.46794 14.6051 5.04213 13.8409 4.03127 13.3089C3.60576 13.085 3.38359 13.0375 2.76027 13.0375C1.58153 13.0375 0.80574 13.5264 0.21244 14.6434C0.0132302 15.0183 -0.00812096 15.2001 0.00205104 16.43C0.011518 17.5605 0.0597595 17.9759 0.279112 18.8133C0.56705 19.9124 1.12299 21.1712 1.72525 22.088C2.22962 22.8557 3.35921 24.0475 4.17026 24.6679C5.66937 25.8144 7.8646 26.6204 9.82246 26.7431L10.7914 26.8038L10.6451 27.3217C10.5561 27.6369 10.4666 28.654 10.4168 29.9188C10.3242 32.264 10.2063 32.774 9.5026 33.8703C8.43132 35.5394 6.97874 36.3488 4.77836 36.5028C3.12133 36.6187 2.42349 37.0064 1.84208 38.1338C1.65666 38.4934 1.60671 38.7514 1.60671 39.3508C1.60671 40.5108 2.09335 41.325 3.11277 41.8704C3.58129 42.1211 3.70395 42.1398 4.87525 42.1377C8.62378 42.1312 12.0392 40.2784 14.166 37.0976L14.443 36.6834V39.5753V42.4671L14.7084 42.7346C15.124 43.1529 15.6534 43.0634 15.9372 42.5269C16.0225 42.3657 16.0544 40.6979 16.0544 36.4117V30.5181L15.8071 30.2692C15.6513 30.1122 15.4449 30.0202 15.2487 30.0202C15.0525 30.0202 14.846 30.1122 14.6902 30.2692C14.4862 30.4746 14.443 30.618 14.443 31.0899C14.443 31.9546 14.0723 33.6176 13.6643 34.5841C13.154 35.7926 12.521 36.7327 11.5778 37.6826C10.1831 39.087 8.56043 39.9634 6.62191 40.359C4.66657 40.7582 3.70305 40.5995 3.32306 39.8157C3.14832 39.4553 3.14369 39.381 3.2727 39.0135C3.50031 38.3652 3.79258 38.217 5.03739 38.1193C7.10322 37.9569 8.48872 37.3347 9.86053 35.9533C10.7892 35.018 11.32 34.1619 11.6839 33.0121C11.9092 32.3003 11.9505 31.9394 12.0199 30.0709C12.1076 27.7083 12.2101 27.2334 12.906 25.9634C13.3301 25.1893 14.3702 24.1263 15.1705 23.6489C15.9908 23.1597 17.0857 22.8165 18.0463 22.7474L18.8799 22.6875L19.7208 23.5141C20.7058 24.4822 20.782 24.4994 21.7975 23.9844L22.5 23.6282L23.2025 23.9844C24.218 24.4994 24.2942 24.4822 25.2792 23.5141L26.1201 22.6875L26.9537 22.7474C29.5901 22.9369 31.8013 24.6886 32.6781 27.2819C32.8658 27.8368 32.9135 28.278 32.9801 30.0709C33.0495 31.9394 33.0908 32.3003 33.3161 33.0121C33.68 34.1619 34.2108 35.018 35.1395 35.9533C36.5113 37.3347 37.8968 37.9569 39.9626 38.1193C41.2074 38.217 41.4997 38.3652 41.7273 39.0135C41.8563 39.381 41.8517 39.4553 41.6769 39.8157C41.3162 40.5597 40.4325 40.7381 38.6618 40.4243C35.3344 39.8346 32.6485 37.6935 31.3357 34.5841C30.9277 33.6176 30.557 31.9546 30.557 31.0899C30.557 30.618 30.5138 30.4746 30.3098 30.2692C29.9828 29.9398 29.5199 29.9398 29.1929 30.2692L28.9456 30.5181V36.5111V42.5041L29.1929 42.7529C29.5199 43.0824 29.9828 43.0824 30.3098 42.7529L30.557 42.5041V39.5937V36.6834L30.834 37.0976C31.8857 38.6706 33.3677 40.0168 34.9736 40.8582C36.6992 41.7623 38.1181 42.12 40.024 42.1315C41.5012 42.1406 41.7769 42.0626 42.5334 41.4216C43.4032 40.6846 43.6759 39.1356 43.1234 38.0709C42.5761 37.0164 41.8347 36.6156 40.2226 36.5029C38.4375 36.3779 37.3364 35.9124 36.2583 34.8266C35.5973 34.1611 35.258 33.6191 34.9076 32.6693C34.6883 32.0748 34.6508 31.7598 34.5806 29.9188C34.532 28.6446 34.4445 27.6392 34.3549 27.3217L34.2086 26.8038L35.1775 26.7431C37.1354 26.6204 39.3306 25.8144 40.8297 24.6679C41.6408 24.0475 42.7704 22.8557 43.2748 22.088C43.877 21.1712 44.433 19.9124 44.7209 18.8133C44.9402 17.9759 44.9885 17.5605 44.998 16.43C45.0081 15.2001 44.9868 15.0183 44.7876 14.6434C44.4468 14.0018 44.1188 13.6593 43.5322 13.332C43.0693 13.0738 42.8907 13.0328 42.2397 13.035C41.6195 13.0371 41.3921 13.0861 40.9687 13.3089C39.9579 13.8409 39.5321 14.6051 39.4132 16.1009C39.3672 16.6796 39.2606 17.3918 39.1763 17.6837C38.8603 18.7784 37.9099 19.92 36.8148 20.5202C35.8639 21.0414 35.3315 21.0916 30.7333 21.0936L26.5285 21.0953V20.5543C26.5285 20.0148 26.5299 20.0124 27.0661 19.6405C28.2344 18.8303 29.5123 17.2363 29.9614 16.0292C30.4993 14.5832 30.5067 14.5075 30.5067 10.3955C30.5067 6.94806 30.4875 6.4865 30.3257 6.01936C29.9229 4.85709 29.0465 3.94837 27.9344 3.54005L27.3342 3.31967V1.90882C27.3342 0.546043 27.3258 0.48935 27.087 0.248985L26.8398 0L23.8893 0.0119675C22.2667 0.0184584 20.7344 0.0588233 20.4843 0.101521ZM25.7228 2.99644C25.7228 4.31987 25.7319 4.3794 25.9701 4.61916C26.1451 4.79553 26.3288 4.86845 26.5995 4.86916C27.0747 4.87037 27.9004 5.25435 28.2599 5.64137C28.71 6.12575 28.9409 6.76489 28.9434 7.53254L28.9456 8.21925L28.2669 7.76073C27.8936 7.5085 27.4971 7.30221 27.3857 7.30232C27.2743 7.30232 26.9565 7.38862 26.6796 7.4941C24.6349 8.2729 20.9267 8.25718 18.3204 7.4587C17.5875 7.23416 17.4822 7.25465 16.7181 7.77098L16.0242 8.23964L16.0797 7.18781C16.1882 5.13062 17.0414 3.60537 18.68 2.53884C19.2432 2.17221 20.1849 1.79432 20.7879 1.69269C20.9264 1.66937 22.0934 1.64411 23.3812 1.63651L25.7228 1.62271V2.99644ZM18.2708 9.12878C19.0507 9.35586 21.011 9.64156 22.1979 9.70119C23.6743 9.77533 25.1244 9.6299 26.3821 9.28142L27.2552 9.03953L28.1003 9.60596L28.9456 10.1724L28.9439 11.9067C28.9418 13.9868 28.8111 14.7114 28.2204 15.9164C27.179 18.0409 24.8795 19.469 22.5 19.469C20.1205 19.469 17.821 18.0409 16.7796 15.9164C16.1889 14.7114 16.0582 13.9868 16.0561 11.9068L16.0544 10.1725L16.8853 9.60606C17.3422 9.2945 17.7618 9.03659 17.8176 9.03294C17.8733 9.02929 18.0772 9.07239 18.2708 9.12878ZM3.44321 14.8673C3.77687 15.0875 3.96853 15.6082 3.97054 16.3C3.97749 18.6294 5.42 20.9537 7.50023 21.9877C8.72741 22.5977 9.39856 22.7141 11.6988 22.7163L13.6379 22.718L13.2148 23.0983C12.6101 23.642 12.2819 24.0112 11.8505 24.6329L11.4719 25.1785L10.213 25.1195C9.46896 25.0845 8.66578 24.9814 8.24913 24.8671C4.41176 23.8149 1.80944 20.6155 1.59271 16.6835C1.54548 15.826 1.56522 15.6145 1.72052 15.3144C2.05921 14.6598 2.82685 14.4606 3.44321 14.8673ZM42.9227 14.8673C43.3491 15.1487 43.4815 15.6538 43.412 16.7342C43.1599 20.6523 40.5644 23.8214 36.7509 24.8671C36.3342 24.9814 35.531 25.0845 34.787 25.1195L33.5281 25.1785L33.1495 24.6329C32.7181 24.0112 32.3899 23.642 31.7852 23.0983L31.3621 22.718L33.3012 22.7163C35.6014 22.7141 36.2726 22.5977 37.4998 21.9877C39.58 20.9537 41.0225 18.6294 41.0295 16.3C41.0321 15.4198 41.3512 14.8148 41.8872 14.6738C42.1786 14.5972 42.6455 14.6844 42.9227 14.8673ZM22.4496 21.0322C23.3751 21.0374 23.9286 20.991 24.338 20.8742L24.9171 20.7089V21.1341C24.9171 21.5086 24.8587 21.6173 24.4269 22.0455L23.9368 22.5317L23.3219 22.2191C22.9838 22.0473 22.6139 21.9066 22.5 21.9066C22.3861 21.9066 22.0162 22.0473 21.6781 22.2191L21.0632 22.5317L20.5731 22.0455C20.1433 21.6192 20.0829 21.5076 20.0829 21.1393V20.7193L20.6116 20.8721C20.9525 20.9705 21.6056 21.0274 22.4496 21.0322ZM22.1295 26.8954C21.6293 27.1388 21.6203 27.8875 22.1132 28.2351C22.4413 28.4666 22.7729 28.4361 23.0585 28.1485C23.7126 27.4899 22.9689 26.4867 22.1295 26.8954ZM22.1295 30.9522C21.6293 31.1956 21.6203 31.9442 22.1132 32.2919C22.4413 32.5233 22.7729 32.4929 23.0585 32.2053C23.7126 31.5467 22.9689 30.5434 22.1295 30.9522ZM22.1295 35.0089C21.6293 35.2523 21.6203 36.001 22.1132 36.3487C22.4413 36.5801 22.7729 36.5497 23.0585 36.2621C23.7126 35.6035 22.9689 34.6002 22.1295 35.0089ZM22.1295 39.0657C21.6293 39.3091 21.6203 40.0578 22.1132 40.4055C22.4413 40.6369 22.7729 40.6065 23.0585 40.3189C23.7126 39.6603 22.9689 38.657 22.1295 39.0657Z" fill="white"/>
</svg>
