<svg width="43" height="44" viewBox="0 0 43 44" fill="none" xmlns="http://www.w3.org/2000/svg">
<path fill-rule="evenodd" clip-rule="evenodd" d="M13.2858 0.0767772C13.0546 0.136218 12.733 0.252241 12.5712 0.33455C12.4093 0.416859 9.62074 3.13827 6.37428 6.38204C-0.305193 13.056 0.0021833 12.6903 0.0021833 13.9613C0.0021833 15.2317 -0.304773 14.8664 6.37428 21.5454C13.0798 28.2509 12.6809 27.9177 14.0004 27.9177C15.1377 27.9177 15.1764 27.8901 18.0781 25.007L20.6003 22.5009L20.5778 31.6129C20.5556 40.6441 20.5569 40.729 20.729 41.1892C20.9601 41.8069 21.5531 42.4294 22.1977 42.731L22.7022 42.967L31.4459 42.9925C40.5222 43.019 40.8336 43.0091 41.4951 42.6716C41.9481 42.4405 42.5016 41.8459 42.7461 41.3276L42.9641 40.8652L42.9904 32.0373C43.0173 22.9842 43.0074 22.6536 42.6949 22.0439C42.4882 21.6405 41.9003 21.0619 41.4814 20.8496C41.2633 20.7391 40.8267 20.6087 40.5112 20.5599C39.8198 20.4529 22.9836 20.4875 22.6601 20.5965C22.5384 20.6375 23.5333 19.5746 25.0243 18.0709C27.3877 15.6873 27.6134 15.4348 27.7777 14.988C28.0137 14.3468 28.0142 13.5779 27.7789 12.9346C27.61 12.4728 27.2976 12.1438 21.6625 6.49596C16.4684 1.29014 15.6607 0.513293 15.2195 0.298566C14.616 0.00489341 13.8892 -0.0785086 13.2858 0.0767772ZM14.368 1.93911C14.5148 2.00881 17.1946 4.62883 20.323 7.76128C26.5316 13.978 26.2967 13.7047 25.9884 14.3544C25.9137 14.5118 23.3206 17.1658 20.1584 20.3214C14.1159 26.351 14.2526 26.2307 13.6852 26.02C13.3413 25.8924 1.99786 14.5286 1.89084 14.2046C1.83097 14.0233 1.83224 13.869 1.89504 13.7001C2.00854 13.3947 13.2732 2.0923 13.6221 1.93373C13.9485 1.78543 14.0455 1.7861 14.368 1.93911ZM13.3917 4.7066C12.9294 4.87155 12.68 5.05736 12.449 5.40871C11.5017 6.84991 12.7626 8.6819 14.408 8.25505C15.847 7.88184 16.3111 6.21414 15.2658 5.17346C14.7125 4.62244 14.0734 4.46329 13.3917 4.7066ZM13.5261 12.1456C12.2502 12.4703 11.7061 14.0049 12.4856 15.0809C13.1206 15.9575 14.5795 16.0453 15.3194 15.2516C15.5951 14.9558 15.8464 14.3405 15.8464 13.9613C15.8464 13.582 15.5951 12.9668 15.3194 12.671C14.9122 12.2341 14.106 11.998 13.5261 12.1456ZM13.4879 19.6679C12.5006 19.9336 11.9271 20.9111 12.182 21.8935C12.3907 22.6985 12.983 23.2086 13.8241 23.3083C14.2685 23.3609 14.882 23.1449 15.2506 22.806C15.5393 22.5406 15.8484 21.8365 15.8484 21.4439C15.8484 21.0514 15.5393 20.3472 15.2505 20.0817C14.8174 19.6836 14.0763 19.5096 13.4879 19.6679ZM40.6049 22.5078C40.722 22.5612 40.8846 22.703 40.9662 22.8231C41.1051 23.0275 41.1159 23.5849 41.137 31.637C41.1617 41.0184 41.1802 40.6385 40.6839 40.9637C40.4605 41.1101 40.0353 41.1174 31.7776 41.1174C24.521 41.1174 23.0702 41.0982 22.8869 41.0001C22.3826 40.7303 22.4034 41.1566 22.4277 31.6159L22.4499 22.9014L22.7245 22.6561L22.9991 22.4108H31.6955C38.0883 22.4108 40.4484 22.4365 40.6049 22.5078ZM25.5388 24.3727C24.4517 24.7669 23.9646 26.0826 24.5414 27.0667C25.4948 28.6936 28.0176 27.9969 27.9899 26.1143C27.9712 24.8471 26.7072 23.9489 25.5388 24.3727ZM36.7531 24.3789C35.5398 24.8301 35.1423 26.3628 35.9837 27.3458C36.708 28.1919 38.0354 28.1898 38.7805 27.3413C39.3095 26.7389 39.3756 25.7462 38.9296 25.1027C38.46 24.425 37.4935 24.1036 36.7531 24.3789ZM31.0255 30.0503C30.0083 30.5135 29.6108 31.7381 30.1686 32.6898C30.7487 33.6797 32.1132 33.9039 32.9715 33.1504C33.8199 32.4053 33.822 31.0779 32.9759 30.3536C32.4208 29.8785 31.6619 29.7605 31.0255 30.0503ZM25.3925 35.6833C25.2076 35.7675 24.9195 35.9882 24.7523 36.1735C23.7034 37.337 24.5672 39.222 26.1492 39.222C27.7103 39.222 28.5684 37.3783 27.5572 36.1969C27.0108 35.5586 26.1269 35.3489 25.3925 35.6833ZM36.8271 35.5884C36.1656 35.7556 35.5235 36.6361 35.5235 37.3761C35.5235 38.3256 36.2739 39.1267 37.2355 39.2039C38.368 39.2948 39.2191 38.5105 39.2191 37.3761C39.2191 36.588 38.7917 35.9424 38.0695 35.6397C37.8061 35.5294 37.1651 35.5029 36.8271 35.5884Z" fill="white"/>
</svg>
