<svg width="45" height="44" viewBox="0 0 45 44" fill="none" xmlns="http://www.w3.org/2000/svg">
<path fill-rule="evenodd" clip-rule="evenodd" d="M23.6663 0.0240301C21.9922 0.193508 21.3871 0.278642 20.2398 0.506106C17.7204 1.00567 15.4859 1.78268 13.2009 2.95382C9.2084 5.00021 5.77211 8.02902 3.49 11.5133C0.291889 16.396 -0.782876 22.6219 0.576021 28.3938C1.79391 33.567 5.0594 38.3668 9.22852 41.1113C11.2896 42.4681 13.9467 43.4584 16.5059 43.8235C17.6862 43.9919 20.4423 43.9677 21.5539 43.7792C25.4342 43.1214 28.717 41.4537 31.3538 38.8009C33.7235 36.4168 35.104 33.5001 35.4776 30.0884C35.529 29.6193 35.571 28.9442 35.571 28.5883V27.9412L36.1611 27.4647C37.0582 26.7399 38.5996 25.1654 39.4669 24.0877C42.8086 19.9353 44.717 14.8728 44.9427 9.5617L45 8.21334L44.1733 7.40857C40.1879 3.52947 34.8624 0.991432 29.0256 0.189466C28.1045 0.0629511 24.4089 -0.0511762 23.6663 0.0240301ZM28.762 1.94838C33.9239 2.632 38.554 4.74208 42.4573 8.18954L43.2376 8.87869L43.1783 9.8504C43.0506 11.9417 42.7059 13.7054 42.0177 15.7862C41.2058 18.2414 39.7952 20.8586 38.2061 22.8587C37.4984 23.7494 35.3814 25.9141 35.3051 25.8251C35.2734 25.7882 35.1579 25.4099 35.0483 24.9845C34.0401 21.0698 31.175 17.6003 27.7453 16.1408C26.7503 15.7175 26.2041 15.8102 25.9969 16.4378C25.8734 16.8121 26.0398 17.2728 26.3543 17.4277C26.4705 17.4849 26.9439 17.7095 27.4064 17.9268C30.4532 19.3584 32.9302 22.7852 33.6067 26.5048C33.812 27.6333 33.812 29.7693 33.6067 30.8977C32.9676 34.4113 30.8805 37.4342 27.576 39.6327C24.6632 41.5705 20.7849 42.5174 17.3151 42.1381C12.2542 41.5848 8.09858 38.9649 5.0797 34.4244C0.301816 27.2382 0.735483 17.6074 6.14243 10.8222C7.70761 8.85813 10.0857 6.80683 12.4527 5.3794C15.744 3.39452 19.5227 2.17242 23.4518 1.82213C24.6935 1.71143 27.4718 1.7775 28.762 1.94838ZM22.6021 15.2539C22.3379 15.3654 22.0409 15.7726 22.0409 16.0235C22.0409 16.6864 22.7876 17.1461 23.3636 16.8378C23.5768 16.7238 23.7981 16.3029 23.7981 16.0115C23.7981 15.5193 23.0685 15.0572 22.6021 15.2539ZM18.7902 16.0453C18.6694 16.0819 18.274 16.2615 17.9116 16.4444C15.8856 17.4668 14.0988 19.2037 13.166 21.0576C12.07 23.2357 11.8845 25.9991 12.6777 28.3313C13.4374 30.5648 15.0819 32.5088 17.0074 33.4494C18.886 34.3673 21.2159 34.4788 23.1721 33.7445C26.9724 32.3179 28.7739 28.2559 27.1429 24.7916C26.3112 23.0252 24.9546 21.9091 23.18 21.5314C21.8921 21.2573 20.3806 21.5663 19.2133 22.3423C17.7293 23.3289 16.9483 25.024 17.2046 26.7025C17.3285 27.5143 17.7773 28.4702 18.2818 28.9967C18.6224 29.3521 18.7183 29.4041 19.0338 29.4041C19.5201 29.4041 19.8402 29.128 19.8997 28.6572C19.9389 28.3475 19.9011 28.2493 19.5812 27.8283C19.0661 27.1507 18.9413 26.8186 18.935 26.1095C18.9223 24.6731 20.0137 23.5079 21.6314 23.2308C22.7779 23.0344 23.8949 23.4358 24.749 24.351C26.079 25.7764 26.358 27.7201 25.4971 29.5647C25.1328 30.3451 24.0138 31.4045 23.0856 31.8477C20.7431 32.9662 18.1891 32.5866 16.3372 30.8444C14.7434 29.345 13.9572 27.4951 13.9586 25.2471C13.9596 23.6363 14.3476 22.3482 15.2355 21.0077C16.056 19.7689 17.3197 18.7038 18.8877 17.9292C19.5233 17.6152 19.6998 17.4842 19.8164 17.2396C20.1333 16.5751 19.4946 15.8319 18.7902 16.0453Z" fill="white"/>
</svg>
