<svg width="36" height="45" viewBox="0 0 36 45" fill="none" xmlns="http://www.w3.org/2000/svg">
<path fill-rule="evenodd" clip-rule="evenodd" d="M18.1734 0.179239C17.9147 0.420188 17.9147 0.898393 18.1734 1.13934C18.3423 1.29678 18.4812 1.31858 19.3161 1.31858C19.8388 1.31858 20.2665 1.33827 20.2665 1.36236C20.2665 1.38644 19.7918 2.16608 19.2116 3.0948C18.1298 4.82671 18.0171 5.11275 18.2473 5.54287C18.4403 5.90372 18.7743 5.97756 20.2124 5.97756C20.9611 5.97756 21.6689 5.94135 21.7854 5.89704C22.2331 5.72686 22.2811 4.97826 21.8588 4.75225C21.7629 4.70091 21.2666 4.65898 20.7558 4.65898C20.2449 4.65898 19.827 4.64219 19.827 4.62162C19.827 4.60114 20.2962 3.83962 20.8697 2.92945C21.4432 2.01927 21.9393 1.18857 21.9724 1.08326C22.0505 0.834046 21.8356 0.326041 21.5748 0.143374C21.4049 0.0244377 21.1144 0 19.8679 0C18.4777 0 18.3514 0.0133616 18.1734 0.179239ZM9.3496 1.9275C9.00774 2.03773 7.68547 2.91459 6.80685 3.61361C5.83313 4.38824 4.19466 6.09351 3.52552 7.02856C1.51179 9.8425 0.397059 12.7869 0.0489538 16.2114C-0.0622464 17.3048 0.00148502 17.5919 0.391257 17.7533C0.676422 17.8714 1.0494 17.76 1.17467 17.5194C1.21985 17.4324 1.30319 16.9064 1.3598 16.3504C1.71485 12.862 2.95783 9.81621 5.11441 7.15066C6.21859 5.78593 7.91543 4.28644 9.31048 3.44273C10.1845 2.91406 10.4282 3.25092 9.99122 4.38393C9.27216 6.24849 8.97644 8.0916 9.03728 10.3289C9.1032 12.7526 9.53587 14.5609 10.5518 16.6581C11.4955 18.6063 12.7011 20.1662 14.5292 21.8045C15.3932 22.5788 15.6142 22.8307 15.8712 23.3339L16.1789 23.9363L16.2034 29.3734C16.2192 32.8766 16.1973 34.8105 16.142 34.8105C15.799 34.8105 13.9709 34.3851 13.1022 34.1031C7.98461 32.4417 3.86378 28.3524 2.16677 23.251C1.84108 22.2719 1.45474 20.6373 1.45474 20.2383C1.45474 20.1436 1.37272 19.9619 1.27251 19.8345C1.03965 19.5385 0.573749 19.5169 0.300979 19.7897C0.133958 19.9567 0.120333 20.0383 0.172549 20.5589C0.204634 20.8792 0.351524 21.6357 0.499029 22.2401C2.23876 29.3715 8.27821 34.916 15.5381 36.0466L16.2158 36.152L16.2413 39.8986C16.2694 44.0328 16.2488 43.8771 16.847 44.462C17.387 44.9899 17.6172 45.0272 20.102 44.9892C22.1768 44.9574 22.3718 44.9406 22.9004 44.7482C23.9686 44.3593 24.7408 43.8069 25.3959 42.9633C26.0608 42.1071 26.5026 40.8356 26.5063 39.7681L26.5078 39.3195L27.3209 39.2684C27.7801 39.2395 28.3539 39.1403 28.6394 39.0405C29.7825 38.6406 30.903 37.5798 30.903 36.8974C30.903 36.6209 30.5579 36.3049 30.256 36.3049C30.0169 36.3049 29.9651 36.3471 29.2888 37.0923C28.8069 37.6233 28.1584 37.8969 27.2467 37.9538L26.5078 37.9999V35.1787C26.5078 33.2691 26.4757 32.287 26.4084 32.1395C26.2053 31.6935 25.5081 31.6538 25.2824 32.0754C25.2207 32.1908 25.1887 33.5829 25.1879 36.1892C25.1865 40.5215 25.1552 40.8486 24.6609 41.7126C24.3528 42.251 23.606 42.9808 23.0976 43.2401C22.3581 43.6175 21.8351 43.689 19.8148 43.689H17.9058L17.7236 43.4573C17.5419 43.2263 17.5414 43.2033 17.5414 33.7481C17.5414 27.0348 17.5124 24.1347 17.4421 23.8047C17.2236 22.7805 16.5908 21.7939 15.6734 21.0475C15.3955 20.8213 15.168 20.6066 15.168 20.5705C15.168 20.4766 18.0216 19.4167 18.4171 19.3636C18.8749 19.3023 19.6296 19.5426 20.0361 19.8794C20.2236 20.0347 20.4705 20.3624 20.5846 20.6076C20.791 21.0508 20.7922 21.0719 20.793 24.3237C20.7936 26.5314 20.8256 27.6636 20.8915 27.8082C20.9868 28.0172 21.3009 28.2176 21.5334 28.2176C21.5971 28.2176 21.7535 28.1356 21.8809 28.0354L22.1125 27.8533V25.1236V22.3941L23.6728 22.4407C25.3456 22.4906 25.7771 22.5717 26.7071 23.0113C27.9281 23.5884 28.8598 24.5044 29.4546 25.7123C30.0375 26.8962 30.0526 27.0174 30.0903 30.8314L30.1245 34.2803L30.3498 34.4575C30.7203 34.7489 31.0945 34.6779 31.3019 34.2768C31.4014 34.0843 31.4305 33.6534 31.4305 32.3708V30.7134L31.7457 30.4105C33.0407 29.1662 34.6531 26.5969 35.4573 24.4962C36.0892 22.8457 36.1195 22.3748 35.6366 21.7083C35.2848 21.2226 34.7297 20.9764 34.1034 21.0284C33.705 21.0614 33.5001 21.1577 32.6879 21.6932C31.7313 22.3238 30.7132 22.8686 29.8812 23.1949L29.4307 23.3716L29.1824 23.1123C28.8204 22.7345 27.7325 22.003 27.1467 21.7436C26.1443 21.2996 25.4351 21.1706 23.7212 21.1208L22.1214 21.0742L22.0639 20.8C21.852 19.7906 21.0526 18.8303 20.0224 18.3476C19.495 18.1005 19.3462 18.0709 18.6402 18.0726C17.8636 18.0746 17.8144 18.0878 15.9591 18.7964L14.0692 19.5183L13.6919 19.0991C12.3368 17.5936 11.0735 15.0111 10.591 12.7603C10.36 11.6824 10.2666 9.26391 10.4124 8.13124C10.5471 7.08359 10.8947 5.69398 11.2643 4.72579C11.6202 3.79294 11.6425 3.34137 11.3593 2.8048C10.9842 2.09434 10.07 1.69525 9.3496 1.9275ZM29.6724 4.65898C29.4829 4.84842 29.4442 5.18817 29.5826 5.4467C29.7148 5.69372 30.1502 5.80175 31.0134 5.80175C31.6077 5.80175 31.7903 5.82874 31.758 5.91163C31.7343 5.97211 31.2523 6.75333 30.6867 7.64777C29.7253 9.16818 29.6614 9.29687 29.7039 9.62546C29.734 9.85771 29.8275 10.0442 29.9795 10.1749C30.1996 10.3643 30.2777 10.3728 31.7836 10.3728C33.2896 10.3728 33.3653 10.3645 33.5368 10.1804C33.6353 10.0747 33.716 9.8999 33.716 9.79204C33.716 9.22074 33.3896 9.05425 32.27 9.05425C31.8082 9.05425 31.4305 9.03034 31.4305 9.00107C31.4305 8.9718 31.9102 8.17994 32.4966 7.24138C33.484 5.66066 33.5588 5.51061 33.5105 5.20681C33.4791 5.01017 33.367 4.79954 33.2306 4.68096C33.0127 4.49161 32.9353 4.48317 31.4255 4.48317C29.9653 4.48317 29.8351 4.49627 29.6724 4.65898ZM22.0098 10.1525C21.684 10.3337 21.5987 10.7587 21.8266 11.0646C21.9915 11.286 22.0427 11.2977 23.0253 11.3398L24.0516 11.3837L22.9769 13.0979C21.7407 15.0694 21.6742 15.2905 22.1819 15.744L22.4669 15.9988H23.9872C25.3958 15.9988 25.5218 15.9856 25.7 15.8195C25.9789 15.5597 25.96 15.0977 25.6608 14.8624C25.46 14.7044 25.3068 14.6802 24.5086 14.6802C23.8071 14.6802 23.5986 14.6541 23.6324 14.5703C23.6567 14.5099 24.1356 13.7315 24.6966 12.8407C25.8427 11.0208 25.8975 10.842 25.4603 10.3523L25.204 10.0652L23.7241 10.0436C22.5492 10.0265 22.196 10.0489 22.0098 10.1525ZM34.5449 22.4661C34.7247 22.646 34.7271 22.6271 34.412 23.5296C33.8596 25.1124 32.6076 27.3818 31.6634 28.5117L31.4545 28.7618L31.3905 27.9454C31.3064 26.8702 31.0809 26.0188 30.6571 25.1764L30.3108 24.4883L31.4201 23.943C32.0301 23.6431 32.8853 23.1573 33.3204 22.8633C34.1573 22.2981 34.323 22.2443 34.5449 22.4661Z" fill="white"/>
</svg>
