<svg width="45" height="45" viewBox="0 0 45 45" fill="none" xmlns="http://www.w3.org/2000/svg">
<path fill-rule="evenodd" clip-rule="evenodd" d="M20.5363 0.0452009C20.3911 0.0621888 19.896 0.118786 19.4361 0.171158C16.3205 0.525528 12.5976 1.89161 9.97389 3.64312C2.65816 8.52676 -1.13763 17.2131 0.301239 25.7781C0.465309 26.7549 0.916942 28.5963 1.0157 28.691C1.0532 28.727 1.39401 28.658 1.77312 28.5376C2.34182 28.3571 2.45202 28.2929 2.40299 28.1707C2.04686 27.2828 1.48062 23.9115 1.48001 22.6753C1.47992 22.5358 1.59875 22.5213 2.74433 22.5213C3.89027 22.5213 4.03049 22.5042 4.24068 22.3388L4.47261 22.1565V20.6485V19.1405L5.61688 17.985C6.55474 17.0378 6.76115 16.7834 6.76115 16.5743C6.76115 16.4042 6.37606 15.6739 5.60456 14.3811C4.96835 13.3152 4.37456 12.3615 4.28496 12.2621C4.12493 12.0844 4.12969 12.0687 4.55254 11.3819C6.66503 7.95102 9.50193 5.37061 13.1175 3.59119L14.1643 3.07601L16.3661 4.17265C17.5771 4.77577 18.6612 5.2693 18.7753 5.2693C18.8893 5.2693 19.5105 4.92012 20.1556 4.49331C21.3012 3.73528 21.3552 3.71063 22.4728 3.4339C24.4428 2.946 24.5246 2.91616 24.6722 2.63098C24.7454 2.48926 24.8053 2.20945 24.8053 2.0092V1.64497L25.1794 1.70421C27.3095 2.04168 29.4726 2.7322 31.3438 3.67226C33.4313 4.72093 35.0608 5.87831 36.6441 7.4368L37.4363 8.21666L36.248 8.26129C35.5725 8.28673 34.9837 8.35098 34.8837 8.41031C34.7868 8.4677 34.0941 9.1312 33.3444 9.88465L31.9811 11.2547H29.8412C27.4933 11.2547 27.2976 11.2909 27.1027 11.7616C27.0281 11.9416 27.0058 12.8059 27.0242 14.8102L27.0499 17.6076L27.2968 17.82C27.5396 18.0287 27.5729 18.0323 29.2611 18.0323C30.2799 18.0323 31.0478 17.9951 31.1491 17.9409C31.2431 17.8906 31.6378 17.3748 32.0264 16.7948L32.7331 15.7402L34.5463 15.764L36.3595 15.7877L37.7918 18.2914C38.5796 19.6685 39.2948 20.8468 39.3812 20.91C39.4969 20.9946 39.9611 21.025 41.1396 21.025C42.7258 21.025 42.7414 21.0268 42.7941 21.223C42.8737 21.5202 42.8588 22.6167 42.7598 23.7536C42.2005 30.1741 38.8752 35.8233 33.5634 39.3775C31.6838 40.6351 28.8479 41.8395 26.6502 42.3135C24.51 42.7751 21.717 42.9015 19.6386 42.6307C14.824 42.0036 10.4679 39.8044 7.16982 36.3357C6.42174 35.5489 5.1884 34.0196 4.93085 33.5594C4.85005 33.4149 4.80753 33.4248 4.37192 33.6896C3.49295 34.224 3.5264 34.1404 3.94493 34.7568C4.99106 36.2973 6.87557 38.3089 8.38952 39.5012C9.35581 40.2623 10.6045 41.0766 11.6822 41.6488L12.5859 42.1286L11.852 42.4092C10.9513 42.7538 9.53502 43.1566 8.52807 43.3547C7.5829 43.5406 5.59593 43.5616 4.91272 43.393C3.21621 42.9742 2.09272 41.8563 1.70182 40.198C1.52719 39.4574 1.53097 37.7327 1.70939 36.6861C2.46372 32.2627 5.76537 26.1117 10.4417 20.4175C10.9348 19.8171 11.3382 19.2998 11.3382 19.2677C11.3382 19.1905 10.3231 18.3535 10.2431 18.3648C10.143 18.379 8.48599 20.4284 7.41628 21.8611C3.67004 26.8788 1.24746 31.6407 0.36347 35.7244C0.0676331 37.0912 -0.014402 39.2517 0.191126 40.266C0.584489 42.2073 1.58757 43.5772 3.17915 44.3467C4.29974 44.8884 4.89494 45.0026 6.5851 45C7.81818 44.998 8.20732 44.9619 9.16243 44.761C10.4742 44.4849 12.2188 43.9243 13.5662 43.3454L14.5178 42.9368L15.4586 43.2395C17.6495 43.9444 19.7225 44.2623 22.1287 44.2623C23.9771 44.2623 25.0021 44.1694 26.5334 43.863C32.2568 42.7179 37.2947 39.3529 40.5585 34.4952C44.4808 28.6575 45.3959 21.2481 43.0105 14.6435C42.2346 12.4953 40.8173 9.98491 39.3615 8.18031C35.2107 3.03481 28.5889 -0.0747709 21.9447 0.00136672C21.3153 0.00858439 20.6816 0.028301 20.5363 0.0452009ZM23.2212 1.61645C23.2211 1.66486 22.6557 1.84601 21.9648 2.01906C20.756 2.32185 20.6731 2.3575 19.7672 2.96528C19.2494 3.3127 18.775 3.5948 18.7128 3.59234C18.5171 3.58433 16.2345 2.39526 16.3189 2.34517C16.5958 2.18102 18.9982 1.70201 20.1402 1.58327C21.1354 1.47976 23.2216 1.50229 23.2212 1.61645ZM22.7369 5.4133C22.398 5.4846 21.748 5.72296 21.2924 5.94301C20.5337 6.30961 20.3557 6.44948 19.1719 7.61064C18.4612 8.30777 17.8239 8.8777 17.7557 8.87708C17.6875 8.87655 16.0506 8.40124 14.1182 7.82084C12.1859 7.24052 10.5263 6.76565 10.4303 6.76565C10.2123 6.76565 8.3588 8.57447 8.28812 8.85613C8.26031 8.96695 8.28619 9.17494 8.34551 9.31833C8.46962 9.61795 8.41206 9.58855 11.9764 11.1683C13.3197 11.7636 14.4189 12.2754 14.4189 12.3054C14.4189 12.3354 14.1682 12.6086 13.8616 12.9124L13.3043 13.4647L11.9302 13.1191C11.1745 12.929 10.4586 12.7921 10.3394 12.8149C10.0457 12.8711 8.25749 14.69 8.25749 14.9326C8.25749 15.4156 8.40598 15.542 10.3293 16.6958L12.2353 17.8393L13.3688 19.7285C14.899 22.2793 14.9127 22.284 16.3945 20.757C17.3965 19.7245 17.3779 19.8208 16.9223 18.0118L16.6091 16.7679L17.1831 16.1939C17.4988 15.8781 17.7723 15.6378 17.7909 15.6598C17.8094 15.6818 18.3923 17.0207 19.086 18.6353C20.7158 22.428 20.5959 22.3445 22.2821 20.8648C22.7411 20.4621 23.1611 20.0252 23.2154 19.8942C23.3013 19.6867 23.177 19.1914 22.2553 16.0714C21.6729 14.1 21.1965 12.4369 21.1965 12.3755C21.1965 12.314 21.6156 11.8486 22.128 11.3411C23.2839 10.1962 23.7577 9.5926 24.1459 8.77084C24.5375 7.94169 24.7268 7.1797 24.746 6.35653C24.7604 5.73273 24.7474 5.68352 24.5143 5.4824C24.2206 5.22899 23.7077 5.20901 22.7369 5.4133ZM23.1663 7.09572C23.051 7.5764 22.7764 8.23462 22.5272 8.62745C22.3874 8.84803 20.6632 10.6258 18.6957 12.5781C16.5175 14.7395 15.0965 16.2152 15.0624 16.3512C15.0282 16.4873 15.1366 17.1027 15.3402 17.9283L15.6741 19.2822L15.4136 19.5428L15.1532 19.8032L14.2666 18.3231C13.779 17.5091 13.3068 16.7803 13.2174 16.7038C13.1278 16.6272 12.4605 16.2148 11.7343 15.7873C11.0081 15.3598 10.3766 14.9773 10.331 14.9374C10.2814 14.894 10.3459 14.7625 10.4906 14.6114L10.7332 14.3581L12.1088 14.7041C12.9505 14.9158 13.5719 15.0287 13.7097 14.9949C13.8478 14.9611 15.347 13.5342 17.5877 11.3042C19.7708 9.13128 21.4056 7.57385 21.6509 7.43328C22.0675 7.19448 22.909 6.86265 23.1126 6.85684C23.1902 6.85464 23.2065 6.92769 23.1663 7.09572ZM14.5334 9.51127L16.6283 10.1398L16.1648 10.6092C15.9098 10.8674 15.6546 11.0786 15.5976 11.0786C15.508 11.0786 10.6537 8.95507 10.4366 8.82092C10.3927 8.79381 10.4415 8.68141 10.545 8.57112L10.7332 8.37079L11.5858 8.62675C12.0548 8.76758 13.3812 9.16561 14.5334 9.51127ZM39.3423 10.6826C41.0072 13.1741 42.0733 15.9572 42.6214 19.2425L42.6691 19.5286H41.4452H40.2214L38.7848 17.0081C37.5482 14.8384 37.3088 14.4708 37.065 14.3674C36.7148 14.219 32.466 14.1941 32.0531 14.3381C31.8588 14.4058 31.6156 14.6953 31.0938 15.4796L30.3946 16.5305L29.4466 16.5332L28.4987 16.5359L28.5224 14.6655L28.5462 12.795L30.5732 12.7715L32.6002 12.7479L34.094 11.2515L35.5878 9.75517L37.171 9.77876L38.7541 9.80235L39.3423 10.6826ZM20.6619 15.9858C21.0594 17.3292 21.4489 18.6377 21.5276 18.8935L21.6707 19.3586L21.448 19.5812L21.2253 19.8039L20.0714 17.1357L18.9176 14.4674L19.3719 14.0053C19.6217 13.7512 19.8516 13.5432 19.8827 13.5432C19.9138 13.5432 20.2644 14.6424 20.6619 15.9858ZM4.2736 15.0941L5.06869 16.4248L4.04448 17.4489L3.02028 18.4728L2.99176 19.7488L2.96324 21.025H2.25265H1.54198L1.6006 20.2548C1.67797 19.2396 1.86774 18.1646 2.1862 16.9383C2.56829 15.4666 3.29358 13.5529 3.41628 13.6925C3.45052 13.7314 3.83631 14.3622 4.2736 15.0941ZM25.9514 21.138C25.5264 21.353 25.5121 21.4712 25.5108 24.7922C25.5094 28.0523 25.5374 28.3093 25.9095 28.452C25.9879 28.482 26.6033 28.5067 27.2771 28.5067H28.5022V32.6465C28.5022 37.159 28.517 37.3064 28.9878 37.4853C29.1161 37.5342 30.1189 37.5728 31.2561 37.5728H33.2944L35.0352 35.8319L36.7761 34.0911V32.5763V31.0615L38.2725 28.8122C39.9103 26.3502 39.98 26.1834 39.5419 25.7714C39.3261 25.5684 39.2462 25.5559 37.9053 25.514L36.4956 25.47L35.4256 23.3576C34.6317 21.7902 34.2988 21.2171 34.1355 21.1364C33.8165 20.9787 26.2633 20.9802 25.9514 21.138ZM34.313 24.5543C34.869 25.6724 35.411 26.6825 35.5176 26.7988C35.6991 26.9968 35.7714 27.0103 36.6493 27.0103C37.4284 27.0103 37.5789 27.0317 37.5386 27.1368C37.5119 27.2064 37.0027 27.9887 36.4069 28.8752L35.3238 30.4872L35.2963 31.9901L35.2688 33.493L33.9725 34.7872L32.6761 36.0814L31.3593 36.0569L30.0425 36.0324L30.0197 31.756L29.9969 27.4796L29.7708 27.2669C29.5568 27.0657 29.4769 27.0529 28.2753 27.0258L27.0058 26.9973V24.7593V22.5213H30.1541H33.3024L34.313 24.5543ZM10.7621 25.0259L10.546 25.2419V28.1793V31.1166L10.7729 31.33C10.9936 31.5375 11.0444 31.5442 12.6214 31.5709L14.2429 31.5983V35.328C14.2429 37.6955 14.2763 39.1455 14.3343 39.2983C14.4581 39.6237 14.6683 39.7671 15.0263 39.7705C15.2762 39.7729 15.5994 39.5683 16.983 38.5324C18.8855 37.108 18.8186 37.2089 18.8194 35.7623L18.8199 34.8761L20.4703 33.5618C21.3781 32.839 22.2098 32.1602 22.3188 32.0536C22.5135 31.8627 22.5168 31.8231 22.5168 29.7039C22.5168 27.5525 22.5164 27.5478 22.3045 27.3013L22.0922 27.0544L19.8179 27.028L17.5436 27.0018L16.4358 25.9058L15.328 24.8098H13.1531H10.9781L10.7621 25.0259ZM15.8307 27.4064L16.9426 28.5067H18.9815H21.0205V29.8553V31.2041L19.2204 32.6401C17.9224 33.6757 17.3946 34.1501 17.328 34.3413C17.2771 34.4871 17.2343 35.0263 17.2327 35.5394L17.2298 36.4725L16.5397 36.9787C16.1601 37.2571 15.8248 37.4848 15.7944 37.4848C15.764 37.4848 15.7392 35.9129 15.7392 33.9916C15.7392 30.5263 15.7377 30.4968 15.5479 30.2947C15.3609 30.0958 15.3177 30.0911 13.6994 30.0911H12.0424V28.1986V26.3062H13.3805H14.7186L15.8307 27.4064Z" fill="white"/>
</svg>
