<svg width="48" height="48" viewBox="0 0 48 48" fill="none" xmlns="http://www.w3.org/2000/svg">
<path fill-rule="evenodd" clip-rule="evenodd" d="M19.0096 1.12362C14.9388 1.75744 11.5344 4.75748 10.385 8.72386C10.0785 9.78173 9.89583 11.2616 9.96268 12.1456L10.0158 12.8486L9.19564 12.9152C6.97947 13.0951 4.97606 14.0463 3.44769 15.6446C2.65743 16.4711 2.2804 17.0204 1.80022 18.0452C1.22785 19.2666 1 20.3284 1 21.7749C1 23.2652 1.23888 24.3369 1.8517 25.5966C3.02238 28.0029 5.15582 29.747 7.66292 30.3472C8.03502 30.4363 8.41138 30.5359 8.49933 30.5684C8.63981 30.6204 8.56686 30.9562 7.89773 33.3366C7.4789 34.8266 7.13486 36.1388 7.13321 36.2526C7.13147 36.3665 7.21042 36.5587 7.30852 36.6799C7.51731 36.9378 8.02806 36.979 8.25107 36.7561C8.36678 36.6404 9.01433 34.4503 9.94149 31.0388L10.0401 30.676H11.9295C13.6848 30.676 13.8152 30.688 13.7657 30.8453C13.4876 31.7291 13.1289 33.1492 13.1301 33.3619C13.1319 33.6821 13.2061 33.8041 13.4894 33.9533C13.7908 34.1121 14.1761 33.99 14.3268 33.6881C14.3968 33.548 14.6229 32.8129 14.8293 32.0547L15.2046 30.676H17.0757C18.8127 30.676 18.9431 30.6881 18.8953 30.8453C18.8669 30.9384 18.5149 32.1972 18.1129 33.6425C17.4766 35.9303 17.397 36.3032 17.4972 36.5232C17.6724 36.9079 18.2263 37.007 18.556 36.7126C18.6441 36.634 19.059 35.3104 19.5235 33.6263L20.3366 30.6778L22.199 30.677C23.2234 30.6764 24.061 30.7086 24.0604 30.7485C24.0599 30.7885 23.9075 31.3625 23.7218 32.0243C23.5361 32.686 23.3842 33.325 23.3842 33.4443C23.3842 33.6847 23.7994 34.0623 24.0638 34.0623C24.4699 34.0623 24.6425 33.7456 25.0655 32.224L25.4825 30.7244L27.3359 30.698C28.6194 30.6799 29.1892 30.704 29.1892 30.7767C29.1892 30.8345 28.8627 32.0489 28.4636 33.4755C28.0645 34.902 27.738 36.1768 27.738 36.3085C27.738 36.8022 28.3998 37.0677 28.8313 36.7471C28.9363 36.669 29.2838 35.5858 29.8123 33.6882C30.2625 32.0723 30.6484 30.7326 30.67 30.711C30.6916 30.6893 31.5361 30.6835 32.5467 30.698L34.3842 30.7244L34.0106 32.063C33.684 33.2336 33.6525 33.4337 33.7596 33.6571C33.9434 34.0404 34.3483 34.1486 34.68 33.9029C34.905 33.7364 35.0119 33.4727 35.3744 32.191L35.8028 30.676H37.666H39.5293L39.3356 31.3774C39.229 31.7633 38.8812 33.0139 38.5627 34.1566C38.2145 35.4056 38.0061 36.3245 38.0403 36.4605C38.1042 36.7155 38.596 36.9662 38.8842 36.8909C38.9866 36.8641 39.13 36.7501 39.2029 36.6375C39.2759 36.5247 39.7121 35.083 40.1724 33.4334C40.6325 31.7838 41.0163 30.4338 41.0251 30.4335C41.0339 30.4332 41.3459 30.3316 41.7184 30.2077C44.0953 29.4175 45.9156 27.5041 46.6577 25.0161C46.8699 24.3047 46.919 23.9418 46.9262 23.0327C46.9435 20.8496 46.2956 19.1847 44.827 17.6384C43.4458 16.1839 41.8813 15.4125 39.9486 15.2329L39.2513 15.1681V14.5686C39.2513 13.7927 38.9515 12.632 38.5558 11.876C38.0882 10.9827 36.8726 9.80195 35.9618 9.35632C34.6437 8.71148 33.222 8.55619 31.8494 8.90721C31.433 9.01373 31.0863 9.08997 31.0791 9.07652C31.0718 9.06317 30.9872 8.79101 30.8911 8.47173C30.124 5.92468 28.1595 3.5657 25.7062 2.24574C23.7291 1.18196 21.2753 0.770774 19.0096 1.12362ZM21.8221 2.42879C23.2053 2.60226 24.8575 3.22524 25.9838 3.99818C26.6142 4.43075 27.6834 5.47014 28.1864 6.13917C28.7572 6.89857 29.2485 7.8713 29.5843 8.90701L29.8508 9.7293L29.2031 10.3583C28.4639 11.0759 27.9421 11.8792 27.65 12.7491C27.4137 13.453 27.4894 13.755 27.9502 13.9459C28.1942 14.047 28.2688 14.0376 28.4807 13.8792C28.6165 13.7779 28.8132 13.4653 28.918 13.1846C29.3837 11.9359 30.4604 10.8277 31.6734 10.3486C32.1397 10.1644 32.4206 10.1257 33.3011 10.1245C34.2389 10.1232 34.4378 10.1536 34.9745 10.3808C36.2019 10.9004 37.1435 11.8479 37.6224 13.0456C37.8147 13.5264 37.8443 13.7732 37.8462 14.9147C37.8477 15.8277 37.8858 16.275 37.9704 16.3771C38.0629 16.4888 38.3785 16.536 39.2766 16.5725C40.2213 16.6109 40.6171 16.6736 41.2347 16.8828C42.914 17.4517 44.1476 18.5195 44.9394 20.0895C45.3981 20.9991 45.5741 21.7833 45.5785 22.9359C45.5854 24.7403 45.0024 26.11 43.6629 27.437C43.0882 28.0062 42.686 28.3081 42.1538 28.5694C40.6046 29.3301 42.0765 29.2673 25.029 29.3002C14.2858 29.321 9.5482 29.2981 8.96838 29.2225C7.1573 28.9866 5.80579 28.3135 4.51785 27.0061C3.58817 26.0625 3.15367 25.389 2.76386 24.2873C1.88943 21.8164 2.33438 19.1616 3.97421 17.0658C4.90476 15.8765 6.42277 14.8939 8.00087 14.4594C8.87966 14.2175 10.8113 14.2215 11.6774 14.4671C13.1032 14.8715 14.2289 15.5384 15.2196 16.566C15.9453 17.3185 16.333 17.8874 16.7623 18.8295C17.1346 19.6463 17.4 19.8396 17.8519 19.623C18.2822 19.4167 18.3295 19.0728 18.0259 18.3584C17.4116 16.9131 16.3928 15.6094 15.1298 14.6527C14.3612 14.0704 12.9815 13.4098 12.0954 13.1998L11.4006 13.0352L11.3344 12.3286C11.1624 10.4928 11.8298 8.06451 12.9661 6.39159C13.7249 5.27451 15.2079 3.99402 16.4665 3.36891C18.1989 2.50851 19.9736 2.19697 21.8221 2.42879ZM20.1914 4.81069C19.8835 4.93405 19.7077 5.17447 19.7077 5.47246C19.7077 5.94093 19.9272 6.05374 21.1106 6.19316C22.5051 6.35754 22.6208 6.35125 22.8246 6.0996C23.2001 5.63588 22.9854 5.19015 22.2934 4.99626C21.7267 4.83749 20.414 4.72168 20.1914 4.81069ZM16.9486 5.87437C15.0743 7.12341 13.9811 8.96129 13.7526 11.2471C13.6918 11.8547 13.703 11.909 13.936 12.1421C14.0725 12.2785 14.295 12.3901 14.4304 12.3901C14.8478 12.3901 15.0285 12.1054 15.1053 11.3268C15.2813 9.53995 16.0873 8.14375 17.5413 7.1061C18.1181 6.69452 18.1597 6.63976 18.1597 6.29184C18.1597 6.01601 18.1037 5.87959 17.9446 5.76823C17.6388 5.55393 17.3894 5.58053 16.9486 5.87437ZM38.1949 19.1166C37.6834 19.2602 37.1495 19.5321 36.8083 19.8225C36.5966 20.0028 36.5863 20.5474 36.7909 20.752C37.084 21.045 37.3624 21.0312 37.9576 20.694C38.4634 20.4074 38.6053 20.3723 39.2513 20.3743C40.1119 20.377 40.5689 20.5774 41.1297 21.1981C41.5456 21.6584 41.7163 22.0209 41.8114 22.6457C41.9151 23.3267 41.948 23.3911 42.2581 23.5195C42.6282 23.6728 42.9883 23.5278 43.124 23.1707C43.2646 22.801 43.0807 21.835 42.7367 21.1362C41.9453 19.5286 39.9258 18.6306 38.1949 19.1166ZM12.5789 35.5377C12.3743 35.7643 10.9034 40.8634 10.9034 41.346C10.9034 41.8637 11.6548 42.1461 12.0359 41.7717C12.1466 41.6629 13.7092 36.2367 13.7092 35.9609C13.7092 35.8888 13.6189 35.7151 13.5086 35.5749C13.256 35.2537 12.8499 35.2375 12.5789 35.5377ZM22.9088 35.4893C22.6183 35.7273 21.1016 41.1532 21.2252 41.5119C21.3979 42.0125 22.1602 42.088 22.4061 41.6287C22.5595 41.342 23.9647 36.2232 23.9647 35.9508C23.9647 35.4216 23.3299 35.1442 22.9088 35.4893ZM33.1787 35.4909C32.967 35.7026 31.4826 40.9872 31.5278 41.3688C31.546 41.5226 31.6711 41.7208 31.8195 41.8312C32.0458 41.9994 32.1167 42.009 32.3676 41.905C32.526 41.8394 32.7015 41.6698 32.7574 41.5279C32.8959 41.1772 34.317 36.0605 34.317 35.9129C34.317 35.7041 33.8497 35.32 33.5957 35.32C33.4603 35.32 33.2726 35.3969 33.1787 35.4909ZM6.60747 38.4055C6.51643 38.5062 6.2701 39.2006 6.06015 39.9486C5.63532 41.4622 5.64915 41.6864 6.18128 41.9068C6.42703 42.0086 6.50008 41.9984 6.72512 41.8309C6.93642 41.6736 7.05165 41.4044 7.3421 40.3895C7.5385 39.7032 7.70172 39.0219 7.70491 38.8756C7.71681 38.3226 6.97154 38.0033 6.60747 38.4055ZM16.9644 38.3453C16.7756 38.4835 16.0377 40.8534 16.0335 41.3357C16.0287 41.8681 16.7764 42.1505 17.171 41.7653C17.2391 41.6988 17.4738 41.0018 17.6925 40.2166L18.0901 38.7888L17.8977 38.5299C17.677 38.2331 17.2368 38.146 16.9644 38.3453ZM27.2105 38.4109C26.9824 38.6629 26.2758 41.1929 26.3504 41.4903C26.3842 41.6245 26.5446 41.7855 26.7353 41.8764C27.0452 42.0242 27.0762 42.022 27.3276 41.8349C27.5454 41.6727 27.6566 41.4145 27.95 40.3895C28.1464 39.7032 28.3096 39.0219 28.3128 38.8756C28.3248 38.3184 27.5788 38.0039 27.2105 38.4109ZM37.4855 38.3918C37.2905 38.6105 36.6162 41.0404 36.6565 41.3792C36.6736 41.5221 36.8039 41.7246 36.9473 41.8312C37.1736 41.9994 37.2445 42.009 37.4954 41.905C37.6538 41.8394 37.8307 41.6698 37.8884 41.5279C38.1279 40.9397 38.6537 38.8701 38.6013 38.7217C38.4892 38.4042 38.2503 38.2225 37.9452 38.2225C37.7732 38.2225 37.5696 38.2975 37.4855 38.3918ZM10.3468 43.4871C10.2457 43.6155 9.99703 44.3322 9.79404 45.0797C9.44236 46.3751 9.43249 46.4504 9.58497 46.683C9.8104 47.027 10.1803 47.0987 10.5006 46.8603C10.7096 46.7048 10.8254 46.4327 11.1134 45.4207C11.3089 44.7342 11.4721 44.0529 11.4762 43.9066C11.4932 43.3157 10.7103 43.0249 10.3468 43.4871ZM20.692 43.4229C20.5603 43.5355 20.3787 44.0113 20.1492 44.8447C19.6999 46.4768 19.7015 46.6737 20.1652 46.9179C20.4462 47.0658 20.8451 46.9615 20.9829 46.704C21.1633 46.367 21.7395 44.2086 21.7395 43.87C21.7395 43.3311 21.1126 43.0634 20.692 43.4229ZM30.9618 43.4712C30.7189 43.7408 30.0253 46.1981 30.1038 46.5109C30.2357 47.0363 30.9696 47.1632 31.2611 46.7108C31.4129 46.4753 32.0918 44.1384 32.0918 43.8514C32.0918 43.6016 31.6897 43.2536 31.401 43.2536C31.2673 43.2536 31.0697 43.3515 30.9618 43.4712Z" fill="white" stroke="white" stroke-width="0.5"/>
</svg>
