<svg width="51" height="37" viewBox="0 0 51 37" fill="none" xmlns="http://www.w3.org/2000/svg">
<path fill-rule="evenodd" clip-rule="evenodd" d="M18.1358 0.0833341C17.5922 0.303388 17.4165 1.1731 17.8259 1.61761C17.9494 1.7517 18.2523 1.93813 18.4992 2.0318C19.1834 2.29158 19.9405 2.93253 20.5998 3.81015C21.1841 4.58799 22.1904 6.47932 22.1904 6.79964C22.1904 6.88891 22.0992 7.07824 21.9878 7.22044C21.8762 7.36254 21.6636 7.7401 21.5151 8.05953C21.2718 8.58289 21.2418 8.77333 21.2103 9.99108C21.177 11.2831 21.1643 11.3539 20.9181 11.6151L20.6608 11.8881L18.7068 9.96396C14.3161 5.64003 11.0711 3.37404 8.51542 2.84717C4.41975 2.00288 2.12417 2.1775 0.89462 3.42688C0.182231 4.15079 -0.00821158 4.72789 0.000268052 6.13838C0.00765032 7.37955 0.114693 7.97677 0.603519 9.50444C1.73181 13.0308 4.28338 16.1151 7.18501 17.4598L7.93731 17.8085L7.7337 18.1547C7.15139 19.1447 7.09443 20.3676 7.58346 21.3798C7.94608 22.1302 9.90119 24.0948 10.8177 24.6296C11.7349 25.1649 12.6914 25.438 13.6609 25.4415C14.8658 25.4458 15.861 25.0478 18.2225 23.6171C18.8561 23.2334 19.4725 22.8667 19.5924 22.8023L19.8105 22.6853L19.7435 23.7183C19.4621 28.0582 21.4462 33.6426 24.2062 36.279C25.2196 37.247 25.557 37.243 26.5816 36.2507C27.9816 34.895 29.1814 32.8238 29.9967 30.3554C30.8894 27.6533 31.1967 25.1838 30.9217 22.9251C30.8999 22.7462 30.9169 22.5999 30.9594 22.5999C31.002 22.5999 31.6838 22.9873 32.4745 23.4606C35.2294 25.11 36.0687 25.4501 37.354 25.4379C38.3195 25.4287 39.276 25.1446 40.2305 24.5834C41.0687 24.0906 43.0402 22.0861 43.3815 21.3798C43.8703 20.3681 43.8135 19.1447 43.2321 18.1561L43.0293 17.8114L43.8791 17.4119C44.9648 16.9015 45.235 16.6385 45.235 16.0923C45.235 15.7697 45.1714 15.6158 44.9434 15.3872C44.5529 14.9955 44.2015 15.0095 43.3257 15.4519C41.5013 16.3736 39.7853 16.4696 34.7602 15.9313C33.9646 15.8461 32.8087 15.7693 32.1914 15.7607L31.0692 15.7451L31.0691 14.8734V14.0017L32.5847 12.4393C37.0164 7.87099 40.7441 5.15999 43.1695 4.7416C44.8224 4.4565 46.8423 4.28788 47.4912 4.38085C49.1519 4.61871 49.3483 5.33482 48.6207 8.50144C48.5146 8.96366 48.515 9.11957 48.6232 9.38175C48.883 10.0108 49.7379 10.1588 50.2085 9.65634C50.5036 9.34132 50.9067 7.70107 50.9845 6.49903C51.1217 4.37945 50.3488 3.10755 48.5954 2.56678C48.0148 2.38775 47.6418 2.34642 46.6317 2.34912C44.7725 2.35423 42.2069 2.78683 40.9681 3.30409C38.7052 4.24905 35.7004 6.55377 32.1605 10.0595L30.309 11.8932L30.0492 11.6176C29.8001 11.3533 29.7879 11.2865 29.7546 9.99108C29.7232 8.77333 29.6932 8.58289 29.4498 8.05953C29.3013 7.7401 29.0887 7.36254 28.9772 7.22044C28.8657 7.07824 28.7746 6.88891 28.7746 6.79964C28.7746 6.47562 29.784 4.58389 30.3809 3.78933C31.047 2.90251 31.7644 2.29779 32.4657 2.0317C33.0823 1.79774 33.3635 1.46991 33.3635 0.984766C33.3635 0.455896 33.0405 0.0883376 32.5154 0.0194893C32.1852 -0.0238411 31.9734 0.0394039 31.2845 0.386647C29.8271 1.12136 28.435 2.72739 27.4453 4.81575C27.0899 5.56558 26.9994 5.68616 26.8292 5.63693C26.0269 5.40526 24.9381 5.40526 24.1357 5.63693C23.9655 5.68616 23.875 5.56558 23.5197 4.81575C22.533 2.73369 21.1354 1.11886 19.6939 0.395053C18.8787 -0.0141337 18.5426 -0.0813814 18.1358 0.0833341ZM7.22631 4.64623C9.21504 4.97917 10.1339 5.41707 12.4719 7.14599C14.148 8.38535 15.5473 9.62733 17.8259 11.8976L19.8959 13.9603V14.8527V15.7451L18.8235 15.7571C18.2336 15.7637 16.8307 15.8723 15.7059 15.9984C12.9192 16.3108 10.2018 16.319 9.1074 16.0183C6.80443 15.3855 4.66856 13.4737 3.31441 10.8332C2.22532 8.70948 1.66716 6.13418 2.08077 5.14108C2.44599 4.26426 4.03328 4.11156 7.22631 4.64623ZM26.0403 7.51975C27.152 7.80905 27.777 8.68757 27.777 9.96066V10.6916H25.4825H23.188V9.96066C23.188 8.70238 23.7988 7.81706 24.8661 7.52885C25.4674 7.36644 25.4514 7.36654 26.0403 7.51975ZM47.0083 12.1485C46.1238 12.6299 46.5482 13.9939 47.5825 13.9939C47.7163 13.9939 47.9713 13.8634 48.1491 13.7039C48.4169 13.4639 48.4728 13.3414 48.4728 12.9932C48.4728 12.6449 48.4169 12.5225 48.1491 12.2825C47.789 11.9597 47.4322 11.9177 47.0083 12.1485ZM28.3788 12.8448C28.9593 13.1459 29.024 13.4265 29.024 15.645C29.024 18.6845 29.1288 18.5971 25.4825 18.5971C21.8442 18.5971 21.941 18.6764 21.941 15.6951C21.941 12.5792 21.8065 12.6939 25.4625 12.6934C27.6131 12.6931 28.1389 12.7204 28.3788 12.8448ZM19.8537 17.9426C19.9867 18.0299 20.0954 18.173 20.0954 18.2607C20.0954 18.3482 20.2147 18.6398 20.3607 18.9087C20.598 19.3461 20.6141 19.437 20.5137 19.7728C20.4148 20.1038 20.3214 20.1858 19.7247 20.4654C19.3525 20.6398 18.2848 21.2441 17.352 21.8081C16.4192 22.3722 15.3418 22.9708 14.9577 23.1384C13.4416 23.8001 12.1447 23.4133 10.5226 21.8155C9.54435 20.8521 9.22242 20.3915 9.22192 19.9547C9.22132 19.5386 9.58774 18.8319 9.95596 18.5387C10.2576 18.2984 10.3322 18.288 12.0148 18.2516C13.496 18.2194 14.5052 18.1387 18.1501 17.7603C18.8169 17.6912 19.5984 17.7747 19.8537 17.9426ZM35.2091 18.0119C36.2516 18.123 37.9126 18.231 38.9002 18.2519C40.6357 18.2884 40.7064 18.2981 41.009 18.5389C41.3772 18.8318 41.7436 19.5385 41.743 19.9547C41.7425 20.3869 41.4234 20.8469 40.4596 21.805C39.4737 22.7851 38.5309 23.3299 37.624 23.4436C36.8204 23.5443 35.9857 23.2177 33.9848 22.0193C33.0671 21.4696 31.8618 20.7926 31.3067 20.5147C30.1075 19.9145 30.03 19.7821 30.4811 19.1022C30.6471 18.8519 30.8078 18.5244 30.8382 18.3742C30.9868 17.6417 31.4085 17.6068 35.2091 18.0119ZM28.3406 20.6434C28.4303 20.6757 28.8743 22.2514 28.8743 22.5373C28.8743 22.5717 27.3031 22.5999 25.3827 22.5999C22.6556 22.5999 21.8913 22.5725 21.8918 22.4748C21.8926 22.3254 22.2757 20.703 22.3316 20.6119C22.3733 20.544 28.1481 20.5743 28.3406 20.6434ZM28.9883 25.3018C28.9759 25.6596 28.9402 26.0986 28.9089 26.2775L28.8521 26.6027H25.3684C22.6685 26.6027 21.8762 26.5746 21.8464 26.4776C21.8254 26.4089 21.7816 25.958 21.7491 25.4757L21.6902 24.5988L25.3506 24.6251L29.0109 24.6514L28.9883 25.3018ZM28.4212 28.8293C28.3841 28.9532 28.2404 29.4035 28.102 29.83L27.8503 30.6055H25.3777H22.9052L22.5976 29.6797C22.4285 29.1704 22.2901 28.7201 22.2901 28.679C22.2901 28.6377 23.6848 28.6041 25.3894 28.6041H28.4887L28.4212 28.8293ZM26.5188 33.1823C26.0698 33.8871 25.4892 34.6083 25.3705 34.6083C25.2653 34.6083 24.4385 33.5548 24.1094 33.0012L23.875 32.6069H25.3801H26.8852L26.5188 33.1823Z" fill="white"/>
</svg>
