<svg width="48" height="44" viewBox="0 0 48 44" fill="none" xmlns="http://www.w3.org/2000/svg">
<path fill-rule="evenodd" clip-rule="evenodd" d="M34.9945 1.103C33.8927 1.41394 32.8609 2.19222 32.3474 3.0996C32.1031 3.53117 32.0357 3.58348 31.4371 3.80633C29.4822 4.53391 26.3427 6.12096 25.9141 6.59829C25.4623 7.10142 25.7704 7.9331 26.4487 8.04106C26.7397 8.08735 26.8966 8.02676 27.7072 7.55447C29.2672 6.64557 30.7894 5.94001 32.4392 5.36092C32.8674 5.21071 33.2895 5.02392 33.3772 4.94598C33.4648 4.86804 33.6433 4.56637 33.7738 4.27547C34.2207 3.27974 35.1836 2.69751 36.227 2.79207C36.8289 2.84664 37.1912 3.01375 37.7928 3.51382C38.1091 3.77684 38.3112 3.87761 38.5119 3.87267C38.6655 3.86889 39.6406 3.8368 40.6789 3.80138C42.4886 3.73954 42.5881 3.74502 43.0866 3.93442C43.8129 4.21039 44.5761 4.93429 44.9104 5.66449C45.134 6.1526 45.1691 6.33886 45.1699 7.03822C45.1712 8.44917 45.3568 8.21167 40.0206 13.6311C36.063 17.6504 35.2342 18.5376 34.5284 19.5108C34.0712 20.1411 33.6842 20.6569 33.6683 20.6569C33.6524 20.6569 33.5378 20.4836 33.4137 20.2718C33.086 19.7127 32.3535 19.0666 31.7009 18.7611C30.6466 18.2679 29.395 18.3172 28.3732 18.8921C27.7089 19.266 23.2064 23.6418 22.7323 24.3743C22.018 25.4779 21.7778 26.762 22.0608 27.9625C22.2607 28.8104 22.4271 29.1059 23.7635 30.9867L24.9396 32.6418L24.2883 33.2519C23.9301 33.5875 23.3655 34.0417 23.0338 34.2613C22.4924 34.6197 21.223 35.3093 21.1048 35.3093C21.0792 35.3093 21.1553 35.0692 21.2738 34.7758C21.6828 33.7634 21.7568 32.9238 21.532 31.8485C21.3433 30.9458 20.8331 29.9942 20.1852 29.3367C19.1557 28.2919 18.193 27.9016 16.3099 27.7657C14.834 27.6593 13.8921 27.4366 12.8869 26.956C12.2112 26.633 10.8589 25.7867 10.76 25.6249C10.6981 25.5236 11.5821 23.5247 12.2281 22.3053C14.0898 18.791 16.7044 15.5443 19.7789 12.929C20.6022 12.2287 20.7596 12.0247 20.7646 11.6521C20.7686 11.3432 20.3856 10.8877 20.0618 10.8166C19.6722 10.731 19.4203 10.8737 18.3709 11.7733C14.7414 14.8851 11.7066 18.9349 9.76053 23.2638L9.21488 24.4773L8.57494 24.1569C8.22292 23.9807 7.69741 23.782 7.40715 23.7151C6.77063 23.5687 5.60769 23.5655 4.99166 23.7087C3.54026 24.0459 2.16869 25.1596 1.53638 26.5143C0.954333 27.7611 0.86507 28.6789 1.17637 30.2163C2.46039 36.5582 7.58415 41.3341 14.0238 42.1915C15.2681 42.3571 16.2212 42.3534 16.8035 42.1804L17.2766 42.0399L18.3437 42.6299C19.5702 43.308 19.8381 43.3543 20.2353 42.9571C20.4374 42.755 20.4981 42.612 20.4981 42.3378C20.4981 41.8595 20.3258 41.6723 19.4241 41.1705C19.0065 40.938 18.6626 40.7073 18.66 40.6579C18.6571 40.6011 19.4154 40.5591 20.7196 40.5438L22.7841 40.5196L23.0344 40.2798C23.513 39.8213 23.3063 38.9944 22.6687 38.8173C22.4884 38.7672 21.5672 38.726 20.6217 38.7258L18.9025 38.7252L18.8484 38.478C18.8188 38.3421 18.7705 38.1473 18.7412 38.0452C18.693 37.8773 18.7466 37.8489 19.3009 37.7479C21.3567 37.3732 23.7906 36.1522 25.3387 34.719C25.696 34.3882 26.0018 34.1329 26.0182 34.1516C26.0347 34.1704 26.5545 34.8941 27.1732 35.76C28.3474 37.4034 29.1907 38.3047 30.1444 38.9357C32.2206 40.3096 35.117 40.8673 36.5346 40.1664L36.885 39.9931L38.1077 40.5815C38.7802 40.905 39.4465 41.2049 39.5883 41.2477C39.968 41.3625 40.4175 41.1453 40.6022 40.7579C40.735 40.4794 40.7377 40.4045 40.6256 40.1013C40.5078 39.7827 40.4165 39.7185 39.3064 39.1747C38.6503 38.8533 38.1043 38.5499 38.0928 38.5005C38.0796 38.4437 38.7949 38.3941 40.0347 38.3656L41.9974 38.3207L42.2696 38.0158C42.5061 37.7511 42.5354 37.6623 42.4923 37.3418C42.4594 37.0961 42.3642 36.9049 42.2076 36.7702C41.9794 36.5739 41.9141 36.5678 40.0542 36.5678C38.5046 36.5678 38.127 36.5439 38.0884 36.4435C38.0576 36.3632 38.1638 36.2638 38.3886 36.1624C38.9155 35.9248 39.1466 35.633 39.1466 35.2051C39.1466 34.9085 39.0929 34.7934 38.855 34.581C38.4782 34.2443 38.167 34.2472 37.4798 34.5942L36.9375 34.8679L36.3811 34.65C36.0751 34.5302 35.5213 34.4063 35.1505 34.3746C34.3715 34.3082 33.7215 34.0313 33.2912 33.5828C32.8474 33.1199 30.0994 28.8318 30.1545 28.688C30.1813 28.6179 31.6869 26.5092 33.5002 24.002L36.797 19.4433L41.3139 14.881C43.7981 12.3716 45.9822 10.0902 46.1674 9.81121C48.0373 6.99399 46.6125 3.12378 43.3414 2.13514C42.7197 1.94727 42.557 1.93747 40.7608 1.97891L38.8438 2.02314L38.4212 1.72272C38.1888 1.5574 37.7724 1.33753 37.496 1.23406C36.8337 0.98623 35.6315 0.923216 34.9945 1.103ZM35.4994 5.76364C34.2581 6.22757 33.5898 7.17297 33.5818 8.4765C33.578 9.08758 33.6152 9.27267 33.8291 9.70829C34.6856 11.4523 36.9074 11.8841 38.3309 10.5832C38.9937 9.97742 39.2354 9.4165 39.2383 8.4765C39.2402 7.86927 39.2017 7.67816 38.9907 7.24848C38.714 6.68503 38.2362 6.20591 37.649 5.90297C37.1678 5.65469 35.9946 5.57864 35.4994 5.76364ZM36.9513 7.5791C38.0332 8.13859 37.2907 9.8291 36.1066 9.50217C35.5264 9.34198 35.2295 8.76271 35.4132 8.14947C35.5976 7.53416 36.3354 7.26061 36.9513 7.5791ZM22.7798 8.57385C21.7292 9.09217 22.5235 10.6133 23.5908 10.127C23.8003 10.0316 24.0937 9.56931 24.0937 9.33488C24.0937 9.10772 23.8062 8.69664 23.5574 8.56792C23.2309 8.3991 23.1325 8.39982 22.7798 8.57385ZM30.7528 20.31C31.2225 20.4508 31.7247 20.8858 31.924 21.3247C32.1282 21.7743 32.1422 22.5252 31.9547 22.9745C31.8646 23.1904 31.0693 24.0571 29.7074 25.4236C27.6622 27.4757 27.5995 27.5491 27.601 27.8956C27.6021 28.2074 27.8536 28.6412 29.5793 31.3091C30.6667 32.9901 31.7438 34.5571 31.973 34.7914C32.785 35.6214 33.6718 36.034 34.9258 36.1651C35.2718 36.2012 35.668 36.2884 35.8062 36.3587C36.1734 36.5457 36.4083 36.987 36.4086 37.4905C36.4089 37.8489 36.3612 37.9708 36.1168 38.2369C35.7397 38.6474 35.3357 38.7382 34.3726 38.6288C32.7967 38.4497 31.229 37.6928 30.1142 36.5728C29.3252 35.7802 24.2211 28.6221 23.9286 27.8978C23.7522 27.4611 23.7205 27.2551 23.7558 26.7741C23.8342 25.7083 23.9689 25.5264 26.5873 22.9491C29.4195 20.1612 29.6882 19.9911 30.7528 20.31ZM7.4637 25.6355C7.73562 25.7451 8.634 26.3233 9.46011 26.9204C10.2862 27.5175 11.3177 28.1879 11.7524 28.4102C13.1116 29.1053 14.8216 29.5562 16.0988 29.5562C17.3266 29.5562 18.0671 29.8267 18.8397 30.5574C19.6937 31.365 20.0336 32.5467 19.7414 33.6926C19.4459 34.8517 18.6517 35.6826 17.4965 36.0412C16.9414 36.2134 16.7406 36.2281 15.5638 36.1823C13.6052 36.1058 12.1561 35.673 10.695 34.7282C9.65086 34.053 9.33121 33.7571 7.80439 32.0516C7.01909 31.1745 6.30022 30.4161 6.20691 30.3661C5.64221 30.0639 4.94671 30.5059 4.94671 31.1671C4.94671 31.5044 5.02285 31.6199 5.91306 32.6339C8.21286 35.2535 9.05119 35.9704 10.8347 36.8428C12.3731 37.5953 14.0463 38.0037 15.5989 38.0059C16.0675 38.0065 16.303 38.0524 16.5211 38.1854C17.4246 38.7362 17.366 39.9125 16.4106 40.4093C15.8755 40.6876 13.325 40.3797 11.6886 39.8393C10.6727 39.5039 9.13443 38.7222 8.2311 38.0824C7.20184 37.3534 5.87045 36.0222 5.13944 34.9914C4.10757 33.5364 3.25602 31.5471 2.93061 29.8318C2.75227 28.8917 2.75263 28.4558 2.93205 27.8421C3.50493 25.8829 5.57578 24.8745 7.4637 25.6355Z" fill="white" stroke="white" stroke-width="0.1"/>
</svg>
