<svg width="43" height="48" viewBox="0 0 43 48" fill="none" xmlns="http://www.w3.org/2000/svg">
<path fill-rule="evenodd" clip-rule="evenodd" d="M22.9679 1.09349C19.9416 1.40897 16.7026 2.72316 14.1623 4.6665C13.3915 5.25612 12.0315 6.58747 11.3963 7.37423C9.15782 10.147 7.85046 13.4385 7.5464 17.0673C7.2621 20.4614 8.14536 24.19 9.94278 27.1826L10.5288 28.1582L10.2411 29.0203C10.083 29.4945 9.62515 31.0987 9.22387 32.5852L8.49426 35.2881L7.0399 37.134C6.23993 38.1493 5.54411 39.0888 5.49352 39.2218C5.35722 39.5802 5.38211 40.3216 5.54079 40.6283C5.67485 40.8877 5.67018 40.9096 5.41194 41.2304C5.26458 41.4136 4.23154 42.4728 3.11637 43.5843C0.950459 45.743 0.850453 45.8853 1.09099 46.4661C1.32784 47.0378 0.0571398 46.9995 18.7493 46.9995H35.7899L36.0954 46.694C36.269 46.5204 36.4011 46.2974 36.4013 46.1773C36.4015 46.0611 36.5223 44.2881 36.67 42.2372C36.8176 40.1863 36.9387 38.316 36.9392 38.0807C36.94 37.6874 36.9007 37.6104 36.4501 37.1202C35.9056 36.5279 35.535 35.87 35.4523 35.3485C35.4061 35.058 35.448 34.9205 35.7195 34.4703C36.3317 33.4552 36.6957 32.1156 36.5204 31.5229C36.4357 31.2368 36.454 31.2089 37.3384 30.2802C38.528 29.0307 39.3661 27.8564 39.3661 27.439C39.3661 27.036 39.2413 26.8155 38.9186 26.6486C38.3348 26.3467 38.0613 26.4903 37.3276 27.4843C36.8239 28.1667 34.9116 30.1969 34.7726 30.1969C34.7332 30.1969 34.6551 30.0439 34.5991 29.8569C34.5124 29.5677 34.5447 29.2563 34.8153 27.7678C35.3036 25.0828 35.8654 23.6163 37.1206 21.7496C38.0775 20.3264 38.3514 19.4598 38.2645 18.1304C38.1776 16.8003 37.4914 15.4168 36.6841 14.9436C36.1423 14.6262 35.4311 14.6075 34.9389 14.8978C34.7548 15.0065 33.8739 15.6874 32.9814 16.4111C32.0889 17.1347 31.3473 17.7123 31.3336 17.6946C31.3197 17.6769 31.2238 16.3483 31.1203 14.7422C30.9136 11.5351 30.8574 11.2407 30.2975 10.4272C29.9046 9.85633 29.1474 9.30409 27.8381 8.6337C27.0218 8.2157 26.9106 8.18291 26.3106 8.18299C25.523 8.18308 24.7469 8.50799 24.2892 9.02923C24.1268 9.21424 23.0739 11.2059 21.9406 13.4722C20.2329 16.8871 19.8251 17.6353 19.5232 17.9081C19.3228 18.0891 18.3824 18.6267 17.4249 19.1077C15.7213 19.9634 15.6751 19.9941 14.8811 20.8016C14.1307 21.5647 13.9791 21.7872 12.778 23.8887C11.2914 26.4896 11.5065 26.3834 10.7942 24.8681C10.2935 23.8029 9.89157 22.591 9.623 21.3369C9.37824 20.1938 9.28524 17.7371 9.43916 16.4795C9.87863 12.8883 11.4655 9.71436 14.0827 7.19209C19.6193 1.85626 28.1265 1.36925 34.2585 6.03712C37.1438 8.23349 39.2487 11.6094 39.9953 15.2375C40.246 16.4562 40.3749 18.0439 40.3033 19.0331C40.2608 19.6203 40.2765 19.945 40.3565 20.138C40.4785 20.4329 40.8489 20.6727 41.1811 20.6721C41.4988 20.6717 41.9591 20.347 42.0368 20.0688C42.0752 19.9313 42.104 19.0709 42.1008 18.1566C42.0935 16.0832 41.862 14.6784 41.1974 12.6756C40.8524 11.6356 39.6153 9.22152 38.9414 8.27276C38.1425 7.14816 35.9773 4.98422 34.8937 4.22757C31.3603 1.76011 27.1606 0.656446 22.9679 1.09349ZM27.0213 10.2552L27.5023 10.5305L27.2363 11.0574C26.7973 11.9273 26.3816 12.0629 25.4923 11.6267L25.0027 11.3866L25.2624 10.8721C25.7349 9.93594 26.1864 9.77762 27.0213 10.2552ZM29.3071 15.036C29.4109 16.6288 29.5373 18.093 29.588 18.2899C29.7646 18.9755 30.6219 19.6013 31.3692 19.5899C31.8601 19.5823 32.3145 19.2973 34.0149 17.9302C35.4344 16.7889 35.8037 16.5319 35.8754 16.6351C36.256 17.1829 36.4397 17.7781 36.442 18.4711C36.4448 19.3116 36.3167 19.6473 35.5572 20.7886C34.5844 22.2507 33.8407 23.8655 33.4456 25.3739C33.3449 25.7584 33.1356 26.7683 32.9804 27.6182C32.6635 29.3545 32.66 30.0638 32.965 30.7533C33.1952 31.2737 33.8117 31.9529 34.2629 32.1831C34.4615 32.2845 34.6031 32.4219 34.6019 32.5124C34.5988 32.7615 34.2986 33.351 33.9302 33.8314C33.5163 34.3715 33.4577 34.7536 33.6495 35.6625C33.828 36.5083 34.1057 37.1056 34.6607 37.837L35.1057 38.4237L34.8604 41.7906C34.7255 43.6424 34.6126 45.1676 34.6095 45.1799C34.5934 45.2444 29.4822 45.1907 29.4822 45.1261C29.4822 45.0842 30.0888 43.5793 30.83 41.7821C32.2699 38.2908 32.341 38.0322 31.9757 37.6118C31.8072 37.4179 31.5921 37.3425 30.6852 37.1594C27.8816 36.5932 25.6565 35.3803 23.7194 33.3621C21.9703 31.5399 20.82 29.347 20.3621 26.9622C20.1624 25.9222 20.0677 25.7109 19.7289 25.5494C19.0926 25.2459 18.4303 25.6539 18.4303 26.3491C18.4303 27.3692 19.1172 29.5952 19.9213 31.1809C21.7612 34.8091 25.2497 37.6468 29.155 38.6919C29.5948 38.8096 29.9682 38.9194 29.9846 38.9359C30.0231 38.9742 27.5225 45.0416 27.4303 45.1338C27.3922 45.1719 22.1385 45.1928 15.7555 45.1803L4.14986 45.1575L5.45048 43.7943L6.7512 42.4311L7.26696 42.7417C8.29937 43.3634 9.19233 43.4627 10.4458 43.0953C12.4681 42.5023 15.0908 41.5837 15.841 41.2054C17.733 40.2513 19.3578 38.7326 20.4051 36.9393C20.912 36.0715 20.8662 35.5515 20.2558 35.2392C19.7586 34.985 19.3257 35.1955 18.905 35.896C17.9358 37.5096 16.555 38.8126 14.971 39.6081C14.4217 39.884 10.7747 41.1228 9.71456 41.3937C8.74324 41.6419 8.12487 41.3575 7.49518 40.3732L7.18977 39.8958L9.16097 37.4014C10.2451 36.0296 11.3807 34.6771 11.6844 34.3959C12.3088 33.8178 13.2442 33.3285 14.1187 33.1224C14.9675 32.9224 15.0159 32.9307 15.0159 33.278C15.0159 33.6783 14.7883 34.5246 14.5607 34.9708C14.2554 35.5692 13.6953 36.1012 13.009 36.4445C12.2234 36.8375 12.0686 36.9737 12.0016 37.3311C11.8912 37.9194 12.3212 38.4168 12.9255 38.3996C13.3531 38.3876 14.4221 37.8406 14.9815 37.3479C15.5927 36.8095 16.2275 35.8634 16.4951 35.0919C16.7142 34.4606 16.9028 33.0614 16.9028 32.0674C16.9028 31.5892 16.8731 31.5011 16.6289 31.2571C16.3594 30.9875 16.3452 30.9842 15.7079 31.0461C13.9365 31.2185 12.9962 31.4649 11.8841 32.0485C11.4711 32.2653 11.1533 32.3904 11.1777 32.3268C11.2021 32.2631 11.3511 31.7275 11.5087 31.1366C12.0858 28.9734 12.6025 27.8288 14.3872 24.7608C15.699 22.5058 15.9478 22.1541 16.565 21.6821C17.0201 21.3341 18.8796 20.3468 18.8796 20.4532C18.8796 20.4818 18.7759 20.9144 18.6491 21.4145C18.3942 22.42 18.3579 22.8851 18.5118 23.1727C18.7904 23.6934 19.7717 23.704 20.0471 23.1894C20.0985 23.0934 20.2848 22.441 20.461 21.7398C20.964 19.7386 21.2134 19.1145 22.7597 15.989L24.2098 13.0576L24.8917 13.3832C25.4937 13.6707 25.6526 13.7082 26.2475 13.7038C27.3409 13.6958 28.035 13.2897 28.645 12.3013C28.9403 11.823 28.9863 11.7831 29.0483 11.9508C29.0869 12.0549 29.2033 13.4433 29.3071 15.036ZM39.8471 23.002C38.9415 23.5542 39.5869 24.9535 40.5938 24.6212C40.9163 24.5147 41.252 24.0914 41.2526 23.7904C41.2533 23.511 40.9909 23.107 40.7169 22.9653C40.3703 22.786 40.1887 22.7937 39.8471 23.002Z" fill="white" stroke="white" stroke-width="0.1"/>
</svg>
