<svg width="41" height="48" viewBox="0 0 41 48" fill="none" xmlns="http://www.w3.org/2000/svg">
<path fill-rule="evenodd" clip-rule="evenodd" d="M17.9586 1.12359C17.5142 1.36512 17.4677 1.68612 17.7389 2.64209C18.4225 5.05159 18.0789 8.1606 16.7343 11.7306C16.3066 12.8662 15.2347 15.1913 15.1388 15.1913C15.1079 15.1913 14.0956 14.4424 12.8892 13.5269C11.6764 12.6066 10.579 11.8392 10.4345 11.8103C9.93612 11.7106 9.67301 11.9545 9.03209 13.1105C7.92771 15.1022 6.84256 17.4885 6.06556 19.634C5.69278 20.6634 5.65701 20.825 5.75157 21.0532C5.92191 21.4644 6.42053 21.6215 6.76112 21.3712C6.84526 21.3095 7.12949 20.6723 7.39269 19.9555C7.65588 19.2386 8.06506 18.2071 8.30201 17.6633C8.77582 16.5757 10.152 13.8019 10.344 13.5475C10.4556 13.3998 10.6447 13.5235 12.7113 15.0963C15.6209 17.3106 15.6096 17.3095 16.5488 15.4907C18.6464 11.4288 19.6877 7.32804 19.4018 4.2557C19.3486 3.68481 19.3205 3.20255 19.3392 3.18386C19.4057 3.11725 20.9964 4.57139 21.9893 5.60638C22.5444 6.18509 23.4076 7.20327 23.9074 7.869C24.4907 8.64582 24.8914 9.09824 25.0263 9.13213C25.3503 9.21348 25.7254 8.98669 25.8213 8.65167C25.8967 8.38838 25.8649 8.29903 25.5014 7.75277C24.0926 5.63551 21.6052 3.0955 19.3711 1.49258C18.6325 0.962683 18.3773 0.895985 17.9586 1.12359ZM26.3855 10.7034C26.0425 10.9732 26.0806 11.2266 26.6555 12.4976C27.6196 14.6288 28.3714 17.3303 28.6685 19.7308C28.7236 20.1757 28.7968 21.2822 28.8312 22.1896L28.8939 23.8393L29.1443 24.0548C29.3107 24.198 29.506 24.2702 29.7268 24.2703C30.026 24.2703 30.1344 24.1926 30.824 23.4837C31.7369 22.5452 32.9347 20.9716 33.7032 19.7011C34.0099 19.194 34.273 18.7913 34.2879 18.8061C34.3564 18.8747 34.9886 22.1784 35.1502 23.3133C35.3815 24.9382 35.4793 28.8377 35.3231 30.2116C35.097 32.2009 34.6799 33.7867 34.0001 35.2417L33.5988 36.1006L32.976 36.2468C31.9637 36.4844 31.2239 36.9007 30.4544 37.6656L29.7714 38.3448L29.2632 38.1621L28.7551 37.9793L28.8227 37.5294C28.8599 37.2819 28.8875 36.3109 28.8841 35.3716C28.8776 33.5881 28.7256 32.4118 28.2974 30.8321C28.0759 30.0147 27.8603 29.7534 27.4071 29.7534C27.0151 29.7534 26.8171 29.9429 26.4686 30.6523C26.3351 30.9243 26.098 31.3467 25.9419 31.5912L25.6579 32.0357L25.5877 31.6362C25.196 29.4073 24.9257 28.5407 24.1596 27.0568C23.8661 26.4882 23.3653 25.6741 23.0467 25.2476C22.0517 23.9157 20.2083 22.2046 19.6055 22.0533C19.3198 21.9816 18.9633 22.1695 18.7861 22.4851C18.6701 22.6919 18.6738 22.7966 18.819 23.4134C19.1212 24.6968 18.8781 26.2601 18.0844 28.1354C17.9065 28.5557 17.7498 28.9136 17.736 28.931C17.7223 28.9482 17.2589 28.6145 16.7063 28.1894C15.245 27.065 15.0702 27.1035 14.2175 28.737C13.352 30.3948 12.5951 32.4736 12.2435 34.158C12.1294 34.7046 12.0836 35.336 12.0824 36.3759L12.0809 37.8298L11.3717 38.0635L10.6625 38.2971L10.5265 38.0928C10.0282 37.3439 8.60548 36.387 7.79845 36.258C7.51107 36.212 7.41714 36.1376 7.21812 35.798C6.03212 33.7742 5.55148 31.8587 5.55417 29.1658C5.5557 27.5549 5.65638 26.5429 5.97603 24.9233C6.0954 24.3185 6.19311 23.7807 6.19311 23.7282C6.19311 23.5325 5.74887 23.1915 5.49377 23.1915C5.10922 23.1915 4.88665 23.5027 4.72224 24.2702C3.79458 28.6002 4.08088 32.6508 5.51606 35.5007C5.69072 35.8474 5.83355 36.1495 5.83355 36.1719C5.83355 36.1944 5.60101 36.2799 5.31668 36.362C4.61905 36.5635 3.72204 37.044 3.08364 37.5584C0.941933 39.2838 0.346953 41.9751 1.7886 43.4168C2.49649 44.1247 3.45498 44.443 5.35084 44.5996C6.68624 44.71 8.52817 44.612 9.1423 44.398C9.41682 44.3023 9.45547 44.3169 9.82546 44.658C10.0411 44.8568 10.3501 45.088 10.5121 45.1718C11.4587 45.6612 12.8654 45.894 14.0585 45.7585C14.7461 45.6805 14.7874 45.6861 15.0023 45.8886C15.8575 46.6947 17.8473 47.0836 20.6112 46.9849C22.7128 46.91 23.4986 46.6772 24.3553 45.8757L24.7838 45.475L25.3538 45.6254C25.7246 45.7232 26.2695 45.775 26.9127 45.7738C28.4182 45.7708 29.6524 45.4258 30.6838 44.7196L31.2473 44.3339L31.7767 44.4502C32.0679 44.5141 32.6439 44.59 33.0566 44.6187C33.7953 44.6701 33.8114 44.6668 34.0679 44.4102C34.3811 44.0971 34.3971 43.8635 34.1263 43.5583C33.9578 43.3683 33.8191 43.3218 33.2948 43.279C32.9488 43.2508 32.5402 43.2089 32.3871 43.1858L32.1085 43.144L32.2359 42.6736C32.5222 41.6161 32.1618 40.2934 31.3657 39.4798L30.9878 39.0934L31.232 38.7734C31.513 38.405 32.406 37.8004 32.8808 37.6572C33.8838 37.3546 35.0777 37.4939 36.1585 38.0395C37.7561 38.846 38.7567 40.1163 38.7712 41.3561C38.7771 41.8658 38.7447 41.9912 38.5356 42.2655C38.2606 42.626 37.6913 42.9238 37.0009 43.0683C36.1675 43.2427 35.8679 43.7956 36.3471 44.2747C36.6057 44.5334 36.7185 44.5418 37.4334 44.3563C39.0481 43.9371 39.9667 43.051 40.1316 41.7534C40.3916 39.7067 38.3921 37.2532 35.8022 36.441L35.0737 36.2124L35.4222 35.404C37.1035 31.5042 37.2531 25.9738 35.8499 19.5959C35.2617 16.9224 35.0421 16.4498 34.3885 16.4498C33.9339 16.4498 33.7243 16.6692 33.289 17.6005C33.0661 18.0777 32.6962 18.7723 32.4671 19.1443C31.9961 19.9091 30.6668 21.7154 30.396 21.9588C30.2191 22.1177 30.2166 22.1097 30.1544 21.1947C30.0123 19.1088 29.6989 17.2896 29.1511 15.3716C28.6359 13.5676 27.5149 10.894 27.1628 10.6294C26.9432 10.4646 26.6542 10.4921 26.3855 10.7034ZM22.0507 26.1554C23.3967 28.0272 24.0828 29.9715 24.2709 32.4471C24.3217 33.1161 24.3813 33.7539 24.4033 33.8643C24.457 34.1336 24.9192 34.3655 25.2553 34.2916C25.5399 34.2291 26.1878 33.5622 26.805 32.6963C27.0439 32.3611 27.1952 32.2185 27.2339 32.2918C27.4868 32.7707 27.6712 36.797 27.4728 37.5064C27.4055 37.7468 27.3856 37.7536 26.7537 37.755C25.4906 37.7576 24.1883 38.2324 23.4168 38.9717L23.0089 39.3626L22.6144 39.1421C21.2214 38.3635 19.6011 38.2937 17.9937 38.943L17.4666 39.1559L17.066 38.8611C16.3309 38.3203 14.639 37.7536 13.7594 37.7536C13.5268 37.7536 13.4915 37.7161 13.442 37.4165C13.1376 35.5752 13.8691 32.4449 15.237 29.7351L15.5866 29.0426L16.5952 29.8025C18.075 30.9174 18.2803 30.88 19.0072 29.3633C19.8137 27.6806 20.3058 25.9089 20.3058 24.6878V24.2301L20.935 24.8545C21.2811 25.1978 21.7831 25.7833 22.0507 26.1554ZM8.10326 37.798C8.59532 38.0403 9.34104 38.6796 9.51876 39.0115C9.5806 39.1271 9.5317 39.2615 9.32603 39.5411C9.17448 39.7472 8.96944 40.1271 8.87038 40.3853C8.65537 40.9459 8.56602 42.1327 8.69654 42.6951C8.74786 42.9163 8.77861 43.1084 8.76485 43.1222C8.7511 43.136 8.30336 43.1911 7.76986 43.2448C6.64049 43.3584 4.53788 43.2374 3.80312 43.0165C3.26297 42.8542 2.82126 42.5705 2.56085 42.219C2.29747 41.8634 2.30907 40.9364 2.58449 40.3196C3.13866 39.0791 4.54273 37.9164 5.89629 37.5773C6.53586 37.417 7.53148 37.5166 8.10326 37.798ZM14.4869 39.2339C15.0547 39.3543 16.1709 39.7896 16.1709 39.8908C16.1709 39.9157 15.864 40.2572 15.4888 40.6499C14.4739 41.7121 13.9113 43.0605 14.0697 44.051L14.1223 44.3799L13.6985 44.4278C12.9861 44.508 11.9583 44.3387 11.3425 44.0395C10.3621 43.5632 9.90807 42.7547 9.98861 41.6286C10.0375 40.9458 10.2109 40.5496 10.675 40.0606C11.4701 39.2231 12.9356 38.9052 14.4869 39.2339ZM28.238 39.2759C30.0192 39.7314 31.1114 40.8224 30.9712 42.006C30.8426 43.0924 29.9481 43.8553 28.306 44.279C27.6067 44.4594 26.1865 44.4699 25.6293 44.2988L25.245 44.1807L25.2107 43.4167C25.1619 42.3279 24.8264 41.3829 24.1511 40.4319C24.0608 40.3049 24.0802 40.238 24.2639 40.0413C25.0491 39.2009 26.701 38.8827 28.238 39.2759ZM20.8632 39.9213C22.4073 40.2461 23.5422 41.4281 23.8153 42.9957C23.9366 43.6931 23.8287 44.3621 23.5262 44.787C23.0579 45.4446 21.6869 45.7207 19.317 45.6348C16.4439 45.5307 15.4153 45.0153 15.4284 43.6863C15.435 43.0094 15.7562 42.3251 16.3871 41.6436C17.1754 40.7922 18.1963 40.1948 19.2721 39.9554C19.9561 39.8032 20.2697 39.7965 20.8632 39.9213Z" fill="white" stroke="white" stroke-width="0.5"/>
</svg>
