<svg width="46" height="40" viewBox="0 0 46 40" fill="none" xmlns="http://www.w3.org/2000/svg">
<path fill-rule="evenodd" clip-rule="evenodd" d="M10.527 0.147479C10.1803 0.298214 10.1731 0.313853 9.20573 2.99877L8.50239 4.95113L4.51767 4.97621L0.533036 5.00138L0.283878 5.25044L0.0347206 5.49942L0.00739598 7.53448C-0.0215466 9.68764 0.0207887 9.98722 0.384098 10.1956C0.503374 10.264 1.15952 10.3212 2.14699 10.3495L3.71995 10.3944V22.259V34.1237L2.14699 34.1686C1.15952 34.1969 0.503374 34.2541 0.384098 34.3225C0.0207887 34.5309 -0.0215466 34.8304 0.00739598 36.9836L0.0347206 39.0187L0.283968 39.2676L0.533126 39.5167H23H45.4669L45.716 39.2676L45.9653 39.0187L45.9926 36.9836C46.0215 34.8304 45.9792 34.5309 45.6159 34.3225C45.4966 34.2541 44.8405 34.1969 43.853 34.1686L42.28 34.1237V22.259V10.3944L43.853 10.3495C44.8405 10.3212 45.4966 10.264 45.6159 10.1956C45.9792 9.98722 46.0215 9.68764 45.9926 7.53448L45.9653 5.49942L45.7161 5.25044L45.467 5.00138L41.4823 4.97621L37.4976 4.95113L36.7943 2.99877C35.8162 0.284192 35.8227 0.298034 35.4533 0.143704C34.9888 -0.0503551 10.9739 -0.0466699 10.527 0.147479ZM35.0201 3.38347C35.3291 4.22388 35.5822 4.92156 35.5827 4.93396C35.5833 4.94637 29.9167 4.95644 22.9904 4.95644C11.033 4.95644 10.4002 4.94853 10.4591 4.79914C10.4932 4.71258 10.7393 4.04277 11.0061 3.31067C11.2728 2.57847 11.5146 1.94129 11.5434 1.89464C11.5759 1.84197 15.9332 1.81851 23.0271 1.83262L34.4586 1.85545L35.0201 3.38347ZM44.2125 7.65295V8.55178H23H1.78745V7.65295V6.75411H23H44.2125V7.65295ZM40.4374 11.5179V12.6864H38.2465C37.0415 12.6864 35.9298 12.7116 35.776 12.7423C35.0363 12.8903 34.7669 13.7327 35.2914 14.2572L35.5184 14.4841H37.9779H40.4374V24.3264V34.1686H38.1903H35.9432V25.8025V17.4364L35.6805 17.1737L35.4178 16.911H23H10.5822L10.3195 17.1737L10.0568 17.4364V25.8025V34.1686H7.80966H5.56257V24.3264V14.4841H8.02214H10.4816L10.7133 14.2525C11.2333 13.7325 10.9603 12.8896 10.224 12.7423C10.0702 12.7116 8.95846 12.6864 7.75348 12.6864H5.56257V11.5179V10.3495H23H40.4374V11.5179ZM12.513 12.7574C12.0942 12.8208 11.7627 13.3435 11.8355 13.8255C11.9287 14.4415 12.8594 14.713 13.3152 14.2572C13.9516 13.6208 13.4168 12.6209 12.513 12.7574ZM33.0964 12.7574C32.6776 12.8208 32.3461 13.3435 32.4189 13.8255C32.512 14.4415 33.4428 14.713 33.8986 14.2572C34.535 13.6208 34.0001 12.6209 33.0964 12.7574ZM34.1456 26.4386V34.1686H31.7548H29.3639L29.5508 33.852C29.8276 33.3829 30.2413 32.1498 30.3795 31.3822C30.5355 30.5154 30.5368 28.0436 30.3815 27.5861C30.245 27.1838 29.8979 26.8881 29.5623 26.8881C29.4278 26.8881 28.8112 27.1304 28.192 27.4265C27.5729 27.7226 26.9776 27.9755 26.8691 27.9882C26.6919 28.0093 26.6503 27.9293 26.4598 27.2026C25.9611 25.3004 25.1482 23.9578 24.0835 23.2781C23.3274 22.7955 22.8743 22.9853 22.1879 24.0723C21.4602 25.2246 20.9596 26.6065 20.7495 28.0426C20.6906 28.4457 20.6255 28.7756 20.6048 28.7756C20.4846 28.7756 19.5288 28.2325 18.9214 27.8192C18.5321 27.5543 18.1155 27.3375 17.9956 27.3375C17.6122 27.3375 17.2791 27.5819 17.0772 28.0114C16.3465 29.566 16.5085 31.8398 17.4758 33.6069L17.7833 34.1686H14.8189H11.8544V26.4386V18.7086H23H34.1456V26.4386ZM24.0905 25.9356C24.4846 26.6806 24.7445 27.5667 24.9364 28.819C25.0498 29.5599 25.1153 29.7597 25.3121 29.965C25.6665 30.335 26.0235 30.2938 27.4452 29.7194C28.1182 29.4475 28.6928 29.225 28.7222 29.225C28.8462 29.225 28.6294 31.1176 28.4239 31.8288C28.1715 32.7026 27.8922 33.2244 27.3792 33.781L27.0218 34.1686H23.6699H20.318L19.8132 33.7073C18.9714 32.9379 18.4159 31.5688 18.4159 30.2635V29.6931L19.3822 30.1753C20.6168 30.7913 21.4221 31.0125 21.8241 30.846C22.2244 30.6802 22.3379 30.3914 22.4085 29.3599C22.5009 28.0073 22.7491 27.0082 23.2982 25.7798L23.5726 25.1658L23.7388 25.3753C23.8302 25.4905 23.9885 25.7426 24.0905 25.9356ZM44.2125 36.8651V37.764H23H1.78745V36.8651V35.9663H23H44.2125V36.8651Z" fill="white"/>
</svg>
