<svg width="48" height="47" viewBox="0 0 48 47" fill="none" xmlns="http://www.w3.org/2000/svg">
<path fill-rule="evenodd" clip-rule="evenodd" d="M10.4621 1.23856C10.3241 1.39098 10.0768 2.28725 9.77719 3.7197C9.26111 6.18821 9.27533 6.45532 9.93598 6.68763C10.2068 6.78295 10.3386 6.7571 10.6077 6.55628C10.9096 6.33083 10.9869 6.0973 11.396 4.1739C11.6456 3.00108 11.8533 1.91735 11.8575 1.76578C11.8758 1.1153 10.9054 0.7487 10.4621 1.23856ZM13.7934 1.21442C13.5758 1.45653 12.6883 5.50808 12.7466 5.99291C12.7673 6.16493 12.9323 6.41574 13.1133 6.55028C13.4004 6.76359 13.4893 6.77548 13.809 6.64303C14.0107 6.55959 14.2109 6.39981 14.254 6.28795C14.4019 5.90506 15.1735 2.09807 15.1735 1.75157C15.1735 1.56129 15.0726 1.31428 14.9494 1.20278C14.656 0.937389 14.0369 0.943516 13.7934 1.21442ZM17.939 1.2758C17.7252 1.60209 16.8637 5.58551 16.9148 6.01141C16.9985 6.7087 18.0582 6.95338 18.3812 6.34995C18.5569 6.02158 19.3393 2.29644 19.3393 1.78808C19.3393 1.31023 19.0111 1 18.5054 1C18.2406 1 18.0631 1.08638 17.939 1.2758ZM21.3715 1.161C21.2113 1.27813 21.0217 1.93622 20.6748 3.58087C20.4128 4.82328 20.1981 5.91118 20.1977 5.99842C20.1966 6.24041 20.7678 6.75869 21.0356 6.75869C21.6381 6.75869 21.7902 6.42738 22.2919 4.02172C22.7811 1.67585 22.7873 1.38338 22.3534 1.09373C22.138 0.949887 21.6108 0.986032 21.3715 1.161ZM25.5436 1.18452C25.3005 1.42761 25.2914 1.46106 24.8054 3.87261C24.5219 5.27981 24.4208 6.03751 24.4916 6.22387C24.7178 6.81861 25.5373 6.898 25.8829 6.35852C26.0394 6.11433 26.9359 2.12331 26.9359 1.67107C26.9359 1.13515 25.9407 0.787418 25.5436 1.18452ZM28.8594 1.21809C28.6632 1.43484 27.7936 5.31534 27.7936 5.97416C27.7936 6.28048 28.3181 6.75869 28.6542 6.75869C29.224 6.75869 29.374 6.41501 29.846 4.0276C30.2662 1.90228 30.287 1.69999 30.1157 1.39331C29.8771 0.96655 29.1756 0.868653 28.8594 1.21809ZM33.0287 1.21442C32.8249 1.43962 32.082 5.14663 32.082 5.93802C32.082 6.41709 32.4152 6.75869 32.8825 6.75869C33.1377 6.75869 33.6748 6.3508 33.6748 6.15685C33.6748 6.10061 33.8399 5.17922 34.0419 4.10933C34.4707 1.83648 34.4886 1.47675 34.1858 1.20278C33.8926 0.937389 33.2738 0.943638 33.0287 1.21442ZM36.4432 1.16002C36.2586 1.29504 36.1242 1.8159 35.8012 3.64655C35.5764 4.9202 35.392 6.00614 35.3914 6.05968C35.3887 6.27227 36.0086 6.75869 36.2821 6.75869C36.8875 6.75869 37.0532 6.36171 37.4581 3.94061C37.8286 1.72535 37.8321 1.66691 37.6124 1.36758C37.3502 1.01029 36.785 0.909944 36.4432 1.16002ZM8.92466 8.59657C8.78988 8.73135 8.67936 8.88304 8.679 8.93352C8.67863 8.984 8.4859 9.93516 8.25077 11.0471C8.01564 12.159 7.82291 13.1832 7.82254 13.3231C7.82181 13.6438 8.30811 14.1102 8.64334 14.1102C9.22999 14.1102 9.38989 13.7774 9.84127 11.6179C10.0784 10.4831 10.2724 9.3751 10.2724 9.15578C10.2724 8.42173 9.44355 8.07768 8.92466 8.59657ZM12.2694 8.63921C12.1146 8.83586 11.8725 9.71033 11.5705 11.1626C11.1376 13.2447 11.1208 13.4039 11.3046 13.6843C11.6524 14.2152 12.4198 14.1952 12.7051 13.6479C12.7657 13.5315 13.0196 12.4491 13.2692 11.2426C13.7215 9.05543 13.7221 9.04795 13.4864 8.73086C13.1556 8.2856 12.5816 8.24235 12.2694 8.63921ZM16.4616 8.59473C16.2093 8.8736 15.2557 13.1777 15.3679 13.5314C15.5605 14.1381 16.4699 14.2504 16.816 13.71C16.9678 13.4732 17.869 9.48108 17.869 9.04563C17.869 8.75622 17.3772 8.35152 17.0255 8.35152C16.8365 8.35152 16.5826 8.46094 16.4616 8.59473ZM19.7882 8.57427C19.5146 8.87679 18.6518 13.0734 18.769 13.5324C18.9254 14.1455 19.9002 14.2971 20.1911 13.7535C20.3359 13.4829 21.1772 9.53058 21.1772 9.12074C21.1772 8.4749 20.2193 8.09802 19.7882 8.57427ZM24.0181 8.57378C23.8224 8.76945 23.2262 11.2268 22.9337 13.0429C22.7998 13.8741 23.6067 14.4044 24.2316 13.8958C24.4418 13.7247 24.5807 13.2649 24.919 11.6214C25.1523 10.4885 25.3431 9.3751 25.3431 9.1472C25.3431 8.44966 24.5049 8.08699 24.0181 8.57378ZM27.5162 8.50468C27.2291 8.72265 27.1447 9.01426 26.6837 11.3799L26.3542 13.0712C26.3031 13.3337 26.3813 13.6048 26.5644 13.7997C26.9166 14.1747 27.4253 14.2044 27.7297 13.8681C27.9479 13.6269 28.7738 9.92487 28.7738 9.18739C28.7738 8.53396 28.0179 8.12362 27.5162 8.50468ZM31.8662 8.43312C31.6048 8.53837 31.4657 8.92298 31.2177 10.2241C30.9211 11.7803 30.9186 12.1795 31.2033 12.4371C31.4966 12.7025 32.1158 12.6964 32.3592 12.4255C32.5474 12.2161 33.0615 9.84388 33.0619 9.18335C33.0623 8.61054 32.4223 8.20902 31.8662 8.43312ZM20.6871 24.4537C10.0733 32.2991 1.28937 38.8507 1.16721 39.0126C0.845093 39.4396 1.00131 39.9415 1.5245 40.1601C2.11102 40.4051 7.41343 40.4049 7.97901 40.1598C8.19588 40.0659 9.33818 39.2719 10.5175 38.3956C11.412 37.7309 12.6832 38.3591 12.6985 39.4734L12.7229 41.2435C12.7901 46.1086 12.7869 46.0893 13.5153 46.0893C14.3317 46.0893 14.3158 46.1983 14.3158 40.6111V39.1124C14.3158 36.8914 15.3698 34.8022 17.1561 33.4824L30.5457 23.5896C42.3053 14.9012 46.8156 11.5035 46.9209 11.2537C47.0454 10.9585 47.0309 10.8616 46.8205 10.5798C46.6657 10.3724 46.423 10.2492 46.1642 10.2468L43.2799 10.2199L42.3271 10.2111C40.807 10.1969 39.3236 10.678 38.1012 11.5816L20.6871 24.4537ZM43.473 11.8741C43.471 11.9246 35.3711 17.9483 25.4733 25.26L8.69422 37.6551C7.90239 38.2401 6.94914 38.566 5.96494 38.5885C4.47981 38.6223 4.4569 38.6187 4.69754 38.3924C4.88953 38.2118 29.1446 20.2681 38.7996 13.1639L39.5501 12.6118C40.2824 12.0729 41.1679 11.7822 42.0772 11.7822C42.847 11.7822 43.4751 11.8236 43.473 11.8741ZM7.4595 15.9193C7.243 16.0945 7.10136 16.5714 6.71075 18.4389C6.20607 20.8514 6.20631 21.0648 6.71394 21.3364C7.08249 21.5337 7.39089 21.4846 7.66118 21.1861C7.84043 20.9881 8.03623 20.3026 8.35639 18.7529C8.60156 17.5664 8.80213 16.5147 8.80213 16.4158C8.80213 16.1568 8.2792 15.703 7.98072 15.703C7.84092 15.703 7.60641 15.8003 7.4595 15.9193ZM10.782 15.9175C10.5868 16.083 10.4301 16.6091 10.0945 18.2245C9.59022 20.6521 9.57527 20.8871 9.90486 21.2167C10.2931 21.605 10.999 21.4887 11.1854 21.0057C11.327 20.6385 12.1103 16.8204 12.1103 16.4969C12.1103 15.8333 11.2986 15.4792 10.782 15.9175ZM15.0802 15.7846C14.9952 15.819 14.8719 15.9471 14.8064 16.0696C14.6608 16.3416 13.8257 20.2647 13.8257 20.6765C13.8257 21.0546 14.2315 21.4617 14.6085 21.4617C15.2384 21.4617 15.3871 21.16 15.8448 18.9534C16.0821 17.8096 16.2762 16.6962 16.2762 16.4791C16.2762 15.8983 15.6708 15.5467 15.0802 15.7846ZM18.2748 15.9787C18.0956 16.1767 17.8998 16.8621 17.5796 18.4118C17.3344 19.5984 17.1339 20.6501 17.1339 20.749C17.1339 21.0286 17.667 21.4617 18.011 21.4617C18.573 21.4617 18.7335 21.0993 19.2336 18.7015C19.7311 16.3154 19.7303 16.1004 19.2221 15.8284C18.8535 15.6311 18.5451 15.6801 18.2748 15.9787ZM22.5392 15.9175C22.3521 16.0731 22.2139 16.4633 22.0356 17.34C21.7364 18.8105 21.7365 18.7129 22.0349 19.0112C22.3251 19.3015 23.0381 19.34 23.2562 19.0771C23.4101 18.8918 23.8728 16.9553 23.8728 16.4964C23.8728 16.1702 23.389 15.703 23.0513 15.703C22.9115 15.703 22.6811 15.7995 22.5392 15.9175ZM5.88468 23.3044C5.73716 23.4417 5.61623 23.5934 5.61586 23.6413C5.6155 23.6892 5.42276 24.6382 5.18764 25.7501C4.95251 26.862 4.75978 27.8958 4.75941 28.0475C4.75794 28.6866 5.71744 29.0659 6.14383 28.5948C6.34513 28.3723 7.20931 24.5655 7.20931 23.9011C7.20931 23.1692 6.41424 22.811 5.88468 23.3044ZM9.28795 23.2785C9.06164 23.4617 8.92613 23.9013 8.54201 25.6984C8.28385 26.9061 8.07139 27.9804 8.0698 28.0856C8.06515 28.4022 8.54005 28.8133 8.91045 28.8133C9.50898 28.8133 9.67219 28.4663 10.1665 26.1448C10.4206 24.9505 10.6312 23.9021 10.6343 23.8148C10.6428 23.576 10.0716 23.0546 9.80145 23.0546C9.67109 23.0546 9.44 23.1553 9.28795 23.2785ZM13.4086 23.338C13.0726 23.6739 12.8876 24.6359 13.0872 25.0088C13.2264 25.269 13.6584 25.4333 14.0174 25.3628C14.3291 25.3016 14.6539 24.7792 14.7455 24.1923C14.8153 23.7444 14.7848 23.635 14.5151 23.3653C14.1289 22.9791 13.7762 22.9704 13.4086 23.338ZM34.7107 28.869C34.5181 29.0615 34.4099 29.3227 34.4099 29.595V37.3067C34.4099 45.3531 34.4128 45.4473 34.6639 45.7665C34.9745 46.1615 35.5276 46.1969 35.8802 45.8443C36.12 45.6045 36.1253 45.4359 36.1253 37.9452V35.4943C36.1253 32.6151 38.4492 30.2758 41.3283 30.2567C46.9709 30.2194 46.7968 30.2414 46.9677 29.5431C47.021 29.3253 46.9654 29.1316 46.783 28.8999C46.6183 28.6905 46.3666 28.5682 46.1002 28.5682H40.7668H35.4367C35.1644 28.5682 34.9032 28.6764 34.7107 28.869ZM4.39551 30.6231C4.06555 30.8902 3.76365 32.1751 3.92697 32.6167C4.06592 32.9923 4.23696 33.0975 4.71322 33.0998C5.19009 33.1021 5.34398 32.9208 5.56306 32.0977C5.79941 31.2097 5.78544 31.054 5.4382 30.7069C5.08251 30.3511 4.76309 30.3253 4.39551 30.6231ZM37.5956 31.1026C37.4945 31.1415 37.3153 31.2573 37.1974 31.3599C36.9979 31.5338 36.983 32.033 36.983 38.5457C36.983 46.329 36.9581 46.0893 37.7674 46.0893C38.6023 46.0893 38.57 46.3531 38.6053 39.2195L38.6176 36.7393C38.6284 34.5527 40.3944 32.7809 42.5809 32.763L46.1052 32.7341C46.3705 32.7319 46.6204 32.6093 46.7844 32.4008C46.9655 32.1704 47.0209 31.9766 46.9677 31.7591C46.7983 31.0675 46.8973 31.0819 42.1555 31.0561C39.7486 31.0428 37.6967 31.0638 37.5956 31.1026Z" fill="white" stroke="white" stroke-width="0.1"/>
</svg>
