<svg width="48" height="48" viewBox="0 0 48 48" fill="none" xmlns="http://www.w3.org/2000/svg">
<path fill-rule="evenodd" clip-rule="evenodd" d="M25.3446 1.1354C22.6275 1.5909 20.1323 3.15381 18.4224 5.47132C17.7938 6.32324 16.9923 7.86555 16.6895 8.80569C16.4927 9.41659 16.471 9.44492 16.1645 9.4915C13.7501 9.85905 11.6926 10.9814 10.5134 12.5738C10.2306 12.9558 9.92479 13.4342 9.83387 13.637L9.66858 14.0055L8.84463 14.0647C6.65536 14.2218 4.80413 15.0464 3.35454 16.5104C2.33769 17.5373 1.58542 18.8969 1.21229 20.3821C0.929731 21.5066 0.929191 23.5273 1.21094 24.6614C1.91555 27.4967 3.63287 29.7422 5.95228 30.861C7.52517 31.6197 7.36248 31.6005 12.4947 31.6354L17.0587 31.6665V30.9015V30.1365L12.6296 30.11L8.20055 30.0836L7.50232 29.8365C5.18876 29.0177 3.41101 27.01 2.74399 24.4629C2.45523 23.3601 2.45586 21.565 2.74543 20.5521C3.30327 18.6004 4.46329 17.1585 6.14023 16.3322C7.11895 15.85 7.95531 15.6495 9.23475 15.5906C9.95645 15.5573 10.4305 15.4941 10.559 15.4138C10.669 15.3451 10.9195 14.9552 11.1157 14.5475C12.1135 12.4737 14.0309 11.2473 16.6456 11.0103C17.5608 10.9274 17.694 10.8062 18.0005 9.77757C18.8272 7.00257 20.7521 4.62498 23.1291 3.44275C25.7817 2.12338 28.9603 2.24883 31.8971 3.78872C34.3714 5.08615 36.2063 7.36068 36.9766 10.0854C37.0552 10.3637 37.1946 10.6593 37.2862 10.7423C37.378 10.8252 37.8387 10.9909 38.3102 11.1106C41.1122 11.8216 43.2981 13.5398 44.4854 15.9645C45.6166 18.2744 45.7655 20.9844 44.8978 23.4737C43.9627 26.1568 41.8955 28.3919 39.3687 29.4519C38.1228 29.9746 37.5899 30.0624 35.3147 30.12L33.2013 30.1735L33.1752 30.9154L33.1491 31.6574L35.0188 31.6571C37.0552 31.6567 37.9457 31.5486 39.1545 31.1543C41.9551 30.2411 44.419 28.0643 45.7891 25.2927C46.2361 24.3884 46.6631 23.097 46.8366 22.1247C47.0159 21.12 46.9923 18.9228 46.792 17.9879C46.3239 15.8019 45.2889 13.9272 43.7114 12.4082C42.3099 11.0585 40.8405 10.2223 38.9053 9.67307C38.4052 9.53116 38.4037 9.52972 38.2442 9.0155C37.8379 7.70565 37.0289 6.30984 35.9609 5.07599C33.3879 2.10332 29.089 0.507682 25.3446 1.1354ZM19.634 22.7215C19.5036 22.8519 19.3969 22.9854 19.3969 23.0182C19.3969 23.0509 19.0529 25.3103 18.6325 28.0391C18.2121 30.7679 17.8694 33.1131 17.871 33.2507C17.8742 33.5372 18.0071 33.7406 18.2893 33.891C18.42 33.9606 19.0934 33.9956 20.3008 33.9956C21.9863 33.9956 22.1127 34.0068 22.0716 34.153C22.0472 34.2395 21.0915 36.9537 19.9477 40.1843C18.8039 43.415 17.8681 46.1694 17.8681 46.3051C17.8681 46.8047 18.4519 47.1545 18.9131 46.9312C19.0733 46.8537 21.3837 43.8947 25.3948 38.6301C32.0826 29.8521 31.8657 30.173 31.4558 29.6664C31.284 29.4541 31.2837 29.4541 28.6722 29.4091L26.0604 29.3641L27.6898 26.4414C29.4689 23.2498 29.5295 23.0864 29.0774 22.6976L28.8296 22.4844H24.3504H19.8711L19.634 22.7215ZM27.1874 24.1508C27.1584 24.2264 26.4424 25.5315 25.5963 27.051C24.7502 28.5705 24.0371 29.9383 24.0115 30.0903C23.9763 30.2996 24.02 30.4309 24.1911 30.6299L24.4172 30.893L26.8561 30.9379L29.2948 30.9829L25.1778 36.3896C22.9133 39.3634 21.0504 41.7879 21.0378 41.7776C21.0252 41.7673 21.6828 39.8674 22.4992 37.5558C23.3155 35.244 23.9834 33.2715 23.9834 33.1725C23.9834 33.0735 23.8651 32.8742 23.7205 32.7296L23.4577 32.4668H21.4662C19.6123 32.4668 19.4779 32.4559 19.5199 32.3094C19.5447 32.2229 19.8338 30.3714 20.1623 28.195C20.4909 26.0187 20.7756 24.1875 20.795 24.1257C20.8222 24.0385 21.5499 24.0133 24.0352 24.0133C26.8739 24.0133 27.2341 24.029 27.1874 24.1508Z" fill="white" stroke="white" stroke-width="0.4"/>
</svg>
