<svg width="48" height="48" viewBox="0 0 48 48" fill="none" xmlns="http://www.w3.org/2000/svg">
<path fill-rule="evenodd" clip-rule="evenodd" d="M1.25608 1.14424C0.799597 1.50321 0.9522 1.86473 1.72353 2.25233C2.46934 2.62708 3.0378 3.4398 3.32618 4.54363C3.48578 5.15452 3.48115 6.47833 3.31248 8.48399C3.16044 10.2915 3.90446 12.4568 5.19256 13.9558C5.64403 14.4812 6.8589 15.5934 6.98127 15.5934C7.14502 15.5934 7.02294 15.8832 6.34402 17.1052C5.90228 17.9005 5.51439 18.7544 5.31379 19.373C4.21042 22.7761 4.19304 26.8277 5.26787 30.0977C5.67068 31.323 6.66916 33.272 7.39107 34.2418C9.16353 36.6231 11.442 38.4424 14.5678 39.9722C17.6261 41.4689 19.603 42.0431 22.2522 42.204L23.2664 42.2656L23.554 42.796C23.9372 43.5029 24.6799 44.0893 26.0432 44.7614C27.349 45.4052 27.7274 45.4475 28.338 45.018C28.9857 44.5625 29.1958 44.0159 29.2429 42.6646L29.2824 41.5305L29.847 41.3516C31.3896 40.8631 34.0115 39.3029 35.781 37.8207C36.9151 36.8706 38.6207 35.1694 39.5451 34.0663C41.5364 31.6899 43.3906 27.9368 43.9565 25.1369C44.1966 23.9488 44.1931 22.8222 43.9478 22.3544C43.4573 21.4195 42.4129 21.057 40.1748 21.0451C35.881 21.0223 31.8184 22.6793 27.7592 26.1091C24.8296 28.5845 21.97 29.6723 18.7254 29.5458C16.25 29.4494 13.956 28.6757 12.1904 27.3418C10.6169 26.1532 9.82468 24.6676 9.72858 22.7255C9.64722 21.0796 9.9615 20.0667 11.124 18.2286L11.6386 17.415L12.3473 17.3494C14.2832 17.1702 15.875 16.527 17.3794 15.3159C18.2651 14.6029 18.8986 13.8493 19.8869 12.3334C20.8446 10.8642 21.6952 9.98412 22.5762 9.55041C23.2911 9.19843 24.1303 9.08164 24.6681 9.25909C24.9603 9.35557 25.0524 9.35028 25.2417 9.2263C25.7943 8.86422 25.6134 8.40839 24.7641 8.02334C21.0951 6.35974 16.7021 6.49997 12.9363 8.40093C12.6154 8.56298 12.3123 8.69555 12.2631 8.69555C12.2138 8.69555 12.1004 8.47236 12.011 8.19947C11.4638 6.52869 10.2959 5.14148 8.33144 3.82881C7.19217 3.0676 5.05073 2.06307 3.439 1.53383C1.5318 0.907637 1.55212 0.911322 1.25608 1.14424ZM5.2605 3.45416C8.45825 4.89032 10.3887 6.66788 10.9965 8.7359C11.1623 9.3001 11.3389 9.52518 11.7537 9.70074C12.2418 9.90739 12.544 9.85533 13.4679 9.40565C15.1293 8.59709 16.806 8.12955 18.5427 7.99065C19.3416 7.92677 20.9249 8.05339 21.7784 8.24955L22.28 8.36483L21.5538 8.83729C20.6151 9.44798 20.0022 10.1303 18.892 11.8005C17.4906 13.9089 16.2674 15.0133 14.5898 15.685C13.9677 15.9342 12.3572 16.2962 12.2679 16.207C12.2492 16.1882 12.3019 15.9016 12.3851 15.57C12.5782 14.8 12.5766 14.3772 12.3799 14.1598C12.0434 13.788 11.4024 14.0972 11.4024 14.6313C11.4024 15.3159 10.8793 16.5185 9.9117 18.0585C8.85927 19.7335 8.52241 20.9288 8.59573 22.7274C8.64827 24.0146 8.85388 24.8108 9.38879 25.7983C10.9109 28.6082 14.5577 30.5242 18.6782 30.679C22.1995 30.8112 25.3339 29.6253 28.5111 26.9587C31.3732 24.5565 33.934 23.2121 37.0093 22.4975C39.4095 21.9398 42.2477 22.0608 42.8548 22.7467C43.0638 22.9828 43.0738 23.0469 43.0126 23.7491C42.9766 24.1617 42.9271 24.5516 42.9025 24.6156C42.878 24.6797 42.6794 24.7852 42.4613 24.8502C41.497 25.1376 39.2997 26.0671 37.9542 26.7567C35.6451 27.9402 34.8209 28.575 31.6051 31.6475C30.5498 32.6558 29.3408 33.8102 28.9183 34.2129C27.9774 35.11 27.6666 35.6874 27.5317 36.7893C27.4461 37.4884 27.4666 37.7342 27.7458 39.3577C28.2448 42.2597 28.231 43.7482 27.702 44.089C27.5365 44.1957 27.384 44.1481 26.4736 43.7064C25.2624 43.1187 24.7335 42.6969 24.4268 42.0741C24.126 41.4634 24.1427 40.2889 24.4774 38.5155C24.8726 36.4219 24.777 35.1717 24.1467 34.1894C23.842 33.7145 23.6222 33.5892 23.2556 33.6812C22.8725 33.7773 22.856 34.1523 23.2068 34.7904C23.4021 35.1457 23.5307 35.5347 23.5661 35.877L23.6211 36.4102L22.0709 36.3528C18.5216 36.2215 14.8948 34.9773 10.9425 32.5354C9.14368 31.424 6.32304 29.3166 6.12121 28.9332C5.96294 28.6326 5.72671 27.2592 5.62533 26.0501C5.46091 24.0888 5.7459 21.7363 6.39089 19.7309C6.53943 19.2688 6.97853 18.3083 7.3666 17.5964C8.90632 14.7719 9.24649 13.2311 8.33031 13.2311C7.94535 13.2311 7.76809 13.4532 7.67086 14.0574C7.63533 14.278 7.5707 14.4805 7.52714 14.5074C7.42027 14.5734 6.63477 13.8888 6.10666 13.2693C5.49058 12.5465 5.00868 11.6908 4.72833 10.8216C4.451 9.96201 4.4167 9.16555 4.54473 6.56951C4.62477 4.94928 4.53575 4.25969 4.12746 3.3368L3.94339 2.92076L4.15316 2.98586C4.26844 3.02167 4.76678 3.23239 5.2605 3.45416ZM33.2597 4.44782C32.6146 4.57538 31.8048 5.02478 31.2836 5.54457C29.7397 7.08439 29.7811 9.53066 31.3764 11.0393C32.6066 12.2028 34.3123 12.4584 35.853 11.7102C37.3626 10.977 38.2532 9.2692 37.9685 7.65313C37.5768 5.42967 35.4875 4.0075 33.2597 4.44782ZM35.3498 5.8065C36.3222 6.28226 36.8646 7.16613 36.8618 8.27034C36.8591 9.3928 36.2813 10.2722 35.2305 10.7533C33.1955 11.6849 30.8871 9.88443 31.3372 7.71653C31.7077 5.93198 33.6836 4.99133 35.3498 5.8065ZM24.6333 14.477C24.0702 14.8596 23.8527 15.2741 23.8952 15.883C23.9405 16.5317 24.2232 16.9633 24.7634 17.2087C25.2533 17.4311 25.6152 17.4311 26.105 17.2087C26.6933 16.9415 26.9461 16.522 26.9461 15.8129C26.9461 14.8886 26.4434 14.3574 25.5063 14.2919C25.051 14.26 24.908 14.2903 24.6333 14.477ZM44.5794 15.0696C44.0986 15.2244 43.5632 15.6979 43.3762 16.1337C43.3044 16.3009 43.2464 16.6623 43.2472 16.9368C43.2526 18.6599 45.4164 19.4423 46.5886 18.145C46.7707 17.9433 46.9702 17.6099 47.0319 17.404C47.4564 15.9873 46.0088 14.6094 44.5794 15.0696ZM25.7461 15.5178C26.0893 15.8611 25.6447 16.3994 25.2099 16.1667C24.84 15.9687 25.006 15.4044 25.4342 15.4044C25.5434 15.4044 25.6837 15.4554 25.7461 15.5178ZM45.7733 16.4053C46.4325 17.1431 45.3123 18.141 44.6116 17.4402C44.1964 17.0251 44.3692 16.3497 44.9465 16.1305C45.1909 16.0378 45.5523 16.158 45.7733 16.4053ZM42.2969 26.895C41.9167 27.991 40.871 30.1474 40.1743 31.2723C38.314 34.2764 34.4099 37.9029 31.3968 39.426C30.6882 39.7841 29.1412 40.4484 29.1025 40.4111C29.0932 40.4022 28.9722 39.7576 28.8336 38.9786C28.4261 36.6885 28.5803 36.0635 29.844 34.8836C30.2698 34.486 31.6076 33.22 32.817 32.0703C35.6748 29.353 36.6924 28.5919 38.8991 27.5209C39.7881 27.0895 42.5131 25.9798 42.5628 26.0291C42.577 26.0431 42.4574 26.4328 42.2969 26.895ZM30.0281 28.2202C29.5388 28.5629 29.4546 29.3002 29.8543 29.7406C30.5085 30.4614 31.6234 29.9985 31.6234 29.0063C31.6234 28.5564 31.0972 28.0661 30.6145 28.0661C30.4129 28.0661 30.149 28.1355 30.0281 28.2202ZM9.53365 28.6857C9.22107 28.9045 9.26038 29.2921 9.63069 29.6424C11.6556 31.5579 15.7259 32.9804 19.1791 32.9793C20.1035 32.9791 21.5185 32.8372 22.1018 32.6864C22.6413 32.547 22.8257 32.037 22.4572 31.7035C22.2799 31.543 22.2146 31.5405 21.4414 31.6653C20.1378 31.8755 17.6319 31.8292 16.4104 31.5724C14.3866 31.1468 12.4835 30.3543 11.1311 29.3742C9.83337 28.4335 9.8706 28.4496 9.53365 28.6857ZM30.6785 29.1055C30.6785 29.1575 30.6598 29.2 30.6368 29.2C30.6138 29.2 30.5689 29.1575 30.5367 29.1055C30.5046 29.0535 30.5234 29.011 30.5784 29.011C30.6334 29.011 30.6785 29.0535 30.6785 29.1055ZM24.7256 30.681C24.2526 30.8851 24.0641 31.0824 24.0641 31.3733C24.0641 31.651 24.3196 31.9402 24.5649 31.9402C24.6503 31.9402 24.9551 31.8364 25.2421 31.7094C25.879 31.4277 26.0629 31.1284 25.8234 30.763C25.6396 30.4823 25.2529 30.4534 24.7256 30.681ZM8.94563 32.5882C13.5537 35.7541 18.4022 37.5152 22.5098 37.5152C23.059 37.5152 23.4972 37.5544 23.4972 37.6035C23.4972 37.6521 23.4354 37.9855 23.3599 38.3443C23.2844 38.7032 23.1706 39.4769 23.1069 40.0636L22.9913 41.1304L22.1678 41.0682C19.722 40.8836 17.5546 40.2251 14.804 38.8307C11.8549 37.3356 9.61585 35.4823 8.13103 33.3071C7.61813 32.5557 6.96133 31.3867 6.96133 31.2252C6.96133 31.1927 7.16335 31.3182 7.41016 31.5039C7.65697 31.6896 8.34798 32.1776 8.94563 32.5882ZM4.00699 36.3869C3.17547 36.5892 2.53879 37.1014 2.13456 37.8931C1.96873 38.2182 1.91789 38.4743 1.91893 38.9798C1.92073 39.773 2.08098 40.185 2.61183 40.761C3.83756 42.0908 5.9414 41.8768 6.90095 40.3248C7.45051 39.436 7.32805 38.0721 6.62504 37.2508C6.03825 36.5653 4.86496 36.1781 4.00699 36.3869ZM5.40195 37.6928C6.10165 38.0964 6.34364 39.1203 5.89821 39.7926C5.5846 40.2659 4.90058 40.5772 4.35433 40.4953C3.83284 40.4171 3.24511 39.9305 3.08447 39.444C2.65492 38.1423 4.18132 36.9888 5.40195 37.6928ZM40.8916 38.2386C40.6621 38.3228 40.2922 38.5739 40.0695 38.7967C39.0128 39.8533 39.2424 41.5719 40.5483 42.3792C40.9572 42.632 41.0936 42.6649 41.7339 42.6649C42.3739 42.6649 42.511 42.6319 42.9224 42.3787C44.4433 41.4426 44.4545 39.3584 42.9436 38.4287C42.3867 38.086 41.5248 38.0061 40.8916 38.2386ZM42.3097 39.3624C42.6351 39.5307 42.9614 40.0144 42.9619 40.3293C42.9625 40.7127 42.6979 41.1914 42.3773 41.3868C41.7461 41.7717 40.9107 41.5148 40.6331 40.8505C40.2077 39.8324 41.3161 38.8485 42.3097 39.3624ZM7.85559 43.8769C7.1488 44.1502 6.7732 44.6835 6.77272 45.4148C6.77197 46.4249 7.73199 47.1847 8.72575 46.9605C9.66244 46.7493 10.2012 45.7795 9.89583 44.8542C9.75768 44.4358 9.2548 43.9828 8.78282 43.8517C8.34836 43.731 8.22391 43.7345 7.85559 43.8769ZM8.64657 45.0363C9.10976 45.3608 8.61529 46.1038 8.14331 45.7925C7.86485 45.6087 7.84812 45.2203 8.11081 45.0363C8.2293 44.9534 8.34987 44.8854 8.37869 44.8854C8.40751 44.8854 8.52808 44.9534 8.64657 45.0363Z" fill="white" stroke="white" stroke-width="0.7"/>
</svg>
