<svg width="46" height="46" viewBox="0 0 46 46" fill="none" xmlns="http://www.w3.org/2000/svg">
<path fill-rule="evenodd" clip-rule="evenodd" d="M17.9841 0.208152C17.675 0.364846 17.4212 0.578952 17.2653 0.814622L17.0242 1.17886V22.6217V44.0645L17.2829 44.4378C17.6471 44.9634 18.3609 45.3065 18.9284 45.2288C19.7425 45.1171 20.3271 44.5584 20.4815 43.7441C20.6083 43.0756 20.6083 2.16557 20.4815 1.4971C20.3245 0.66862 19.723 0.105726 18.8973 0.0142612C18.5414 -0.0251819 18.3744 0.0103079 17.9841 0.208152ZM9.56383 7.29262C9.17596 7.46162 8.7473 7.91885 8.60803 8.3123C8.51082 8.58696 8.48872 11.2433 8.48872 22.6655V36.6817L8.69402 37.0984C9.34101 38.4116 11.2628 38.3791 11.8688 37.0448C12.0265 36.6975 12.0337 36.0706 12.0337 22.6206C12.0337 9.13979 12.0269 8.54464 11.8679 8.20008C11.7767 8.00241 11.6052 7.75165 11.4867 7.64284C11.0026 7.19774 10.1415 7.04096 9.56383 7.29262ZM26.4582 10.5509C26.0606 10.761 25.8772 10.9439 25.6625 11.3447L25.4699 11.7041V22.6206V33.537L25.6625 33.8964C26.0009 34.5279 26.5132 34.8398 27.2116 34.8398C27.9946 34.8398 28.5252 34.5049 28.8485 33.8066C29.0075 33.4631 29.0149 32.9694 29.0149 22.6206C29.0149 12.2718 29.0075 11.7781 28.8485 11.4346C28.6549 11.0163 28.2719 10.6328 27.9124 10.4969C27.5439 10.3577 26.7695 10.3864 26.4582 10.5509ZM1.03138 12.4523C0.594094 12.661 0.321497 12.946 0.13722 13.3871C0.0148475 13.68 -0.00159453 14.789 0.000112572 22.6402C0.00199937 31.1002 0.0106247 31.5792 0.167049 31.9235C0.48421 32.6219 1.19984 33.0166 1.9808 32.9241C2.75016 32.833 3.31386 32.3086 3.49518 31.5155C3.62213 30.9605 3.62213 14.2807 3.49518 13.7257C3.3038 12.8886 2.72923 12.3842 1.89374 12.3196C1.52213 12.2909 1.29688 12.3255 1.03138 12.4523ZM34.9937 12.4579C34.5587 12.6587 34.285 12.9431 34.0995 13.3871C33.9772 13.68 33.9607 14.789 33.9624 22.6402C33.9643 31.1205 33.9726 31.5781 34.1303 31.9198C34.6776 33.1057 36.1975 33.2992 37.079 32.2952C37.2367 32.1156 37.3981 31.8161 37.4376 31.6297C37.5314 31.1872 37.5314 14.054 37.4376 13.6115C37.3981 13.4251 37.2367 13.1256 37.079 12.946C36.5323 12.3234 35.7049 12.1297 34.9937 12.4579ZM43.6477 18.0864C43.0968 18.2612 42.6311 18.795 42.5013 19.4005C42.4459 19.6586 42.4061 21.0056 42.4061 22.6206C42.4061 24.2356 42.4459 25.5826 42.5013 25.8407C42.8506 27.4693 45.0293 27.7678 45.7667 26.288L46 25.8198V22.6206V19.4214L45.7667 18.9532C45.3732 18.1635 44.5135 17.8119 43.6477 18.0864Z" fill="white"/>
<path d="M26.3355 7.53C26.3355 7.46333 26.3121 6.48 26.2655 4.58C26.2388 3.26667 26.2588 2.2 26.3255 1.38C26.3388 1.24 26.3955 1.12667 26.4955 1.04C26.6021 0.953333 26.7255 0.913333 26.8655 0.92C26.9321 0.926667 26.9955 0.946666 27.0555 0.98C27.8355 0.82 28.5388 0.783333 29.1655 0.869999C30.2655 1.02333 30.9788 1.52333 31.3055 2.37C31.4321 2.77667 31.4788 3.11 31.4455 3.37C31.4188 3.62333 31.3421 3.85333 31.2155 4.06C31.0955 4.26 30.9388 4.42333 30.7455 4.55C30.5588 4.67667 30.3688 4.78 30.1755 4.86C29.9821 4.93333 29.7755 4.99 29.5555 5.03C28.8755 5.17 28.1188 5.19333 27.2855 5.1C27.3188 6.38 27.3355 7.19 27.3355 7.53C27.3355 7.67 27.2855 7.79 27.1855 7.89C27.0921 7.98333 26.9755 8.03 26.8355 8.03C26.6955 8.03 26.5755 7.98333 26.4755 7.89C26.3821 7.79 26.3355 7.67 26.3355 7.53ZM27.2655 4.11C27.3055 4.10333 27.3488 4.1 27.3955 4.1C28.1221 4.18667 28.7755 4.17 29.3555 4.05C30.0421 3.91 30.4088 3.64333 30.4555 3.25C30.4688 3.15667 30.4388 2.98333 30.3655 2.73C30.1855 2.25 29.7421 1.96 29.0355 1.86C28.5288 1.79333 27.9488 1.82333 27.2955 1.95C27.2621 2.53667 27.2521 3.25667 27.2655 4.11Z" fill="white"/>
</svg>
