<svg width="46" height="46" viewBox="0 0 46 46" fill="none" xmlns="http://www.w3.org/2000/svg">
<path fill-rule="evenodd" clip-rule="evenodd" d="M17.9841 0.208152C17.675 0.364846 17.4212 0.578952 17.2653 0.814622L17.0242 1.17886V22.6217V44.0645L17.2829 44.4378C17.6471 44.9634 18.3609 45.3065 18.9284 45.2288C19.7425 45.1171 20.3271 44.5584 20.4815 43.7441C20.6083 43.0756 20.6083 2.16557 20.4815 1.4971C20.3245 0.66862 19.723 0.105726 18.8973 0.0142612C18.5414 -0.0251819 18.3744 0.0103079 17.9841 0.208152ZM9.56383 7.29262C9.17596 7.46162 8.7473 7.91885 8.60803 8.3123C8.51082 8.58696 8.48872 11.2433 8.48872 22.6655V36.6817L8.69402 37.0984C9.34101 38.4116 11.2628 38.3791 11.8688 37.0448C12.0265 36.6975 12.0337 36.0706 12.0337 22.6206C12.0337 9.13979 12.0269 8.54464 11.8679 8.20008C11.7767 8.00241 11.6052 7.75165 11.4867 7.64284C11.0026 7.19774 10.1415 7.04096 9.56383 7.29262ZM26.4582 10.5509C26.0606 10.761 25.8772 10.9439 25.6625 11.3447L25.4699 11.7041V22.6206V33.537L25.6625 33.8964C26.0009 34.5279 26.5132 34.8398 27.2116 34.8398C27.9946 34.8398 28.5252 34.5049 28.8485 33.8066C29.0075 33.4631 29.0149 32.9694 29.0149 22.6206C29.0149 12.2718 29.0075 11.7781 28.8485 11.4346C28.6549 11.0163 28.2719 10.6328 27.9124 10.4969C27.5439 10.3577 26.7695 10.3864 26.4582 10.5509ZM1.03138 12.4523C0.594094 12.661 0.321497 12.946 0.13722 13.3871C0.0148475 13.68 -0.00159453 14.789 0.000112572 22.6402C0.00199937 31.1002 0.0106247 31.5792 0.167049 31.9235C0.48421 32.6219 1.19984 33.0166 1.9808 32.9241C2.75016 32.833 3.31386 32.3086 3.49518 31.5155C3.62213 30.9605 3.62213 14.2807 3.49518 13.7257C3.3038 12.8886 2.72923 12.3842 1.89374 12.3196C1.52213 12.2909 1.29688 12.3255 1.03138 12.4523ZM34.9937 12.4579C34.5587 12.6587 34.285 12.9431 34.0995 13.3871C33.9772 13.68 33.9607 14.789 33.9624 22.6402C33.9643 31.1205 33.9726 31.5781 34.1303 31.9198C34.6776 33.1057 36.1975 33.2992 37.079 32.2952C37.2367 32.1156 37.3981 31.8161 37.4376 31.6297C37.5314 31.1872 37.5314 14.054 37.4376 13.6115C37.3981 13.4251 37.2367 13.1256 37.079 12.946C36.5323 12.3234 35.7049 12.1297 34.9937 12.4579ZM43.6477 18.0864C43.0968 18.2612 42.6311 18.795 42.5013 19.4005C42.4459 19.6586 42.4061 21.0056 42.4061 22.6206C42.4061 24.2356 42.4459 25.5826 42.5013 25.8407C42.8506 27.4693 45.0293 27.7678 45.7667 26.288L46 25.8198V22.6206V19.4214L45.7667 18.9532C45.3732 18.1635 44.5135 17.8119 43.6477 18.0864Z" fill="white"/>
<path d="M26.4571 7.97C26.3171 7.96333 26.2005 7.91 26.1071 7.81C26.0138 7.71 25.9705 7.59 25.9771 7.45C25.9838 7.34333 26.0205 7.24667 26.0871 7.16C26.0871 6.83333 26.0838 6.33 26.0771 5.65C26.0705 4.96333 26.0671 4.44333 26.0671 4.09C26.0671 3.97 26.0671 3.75 26.0671 3.43C26.0738 3.10333 26.0738 2.86667 26.0671 2.72C26.0671 2.56667 26.0605 2.37 26.0471 2.13C26.0338 1.88333 26.0138 1.66333 25.9871 1.47C25.9605 1.33 25.9871 1.20667 26.0671 1.1C26.1538 0.986666 26.2638 0.92 26.3971 0.9C26.5038 0.879999 26.6038 0.893333 26.6971 0.94C26.7305 0.926667 26.7671 0.92 26.8071 0.92C27.5538 0.873333 28.1405 0.87 28.5671 0.909999C29.3805 0.976666 29.9905 1.18333 30.3971 1.53C30.6638 1.75667 30.8471 2.03333 30.9471 2.36C31.0538 2.68667 31.0738 3.01667 31.0071 3.35C30.9405 3.68333 30.8038 3.98 30.5971 4.24C30.7238 4.3 30.8338 4.37 30.9271 4.45C31.2005 4.67667 31.3871 4.94667 31.4871 5.26C31.5871 5.56667 31.6005 5.86333 31.5271 6.15C31.4605 6.43 31.3371 6.69667 31.1571 6.95C30.9771 7.19667 30.7638 7.39333 30.5171 7.54C30.3171 7.64667 30.0938 7.73667 29.8471 7.81C29.6005 7.88333 29.3705 7.93667 29.1571 7.97C28.9505 8.00333 28.7005 8.02333 28.4071 8.03C28.1205 8.03667 27.8938 8.03667 27.7271 8.03C27.5605 8.02333 27.3305 8.01333 27.0371 8C26.7438 7.98667 26.5505 7.97667 26.4571 7.97ZM27.0871 7C27.4671 7.01333 27.8205 7.02667 28.1471 7.04C28.4805 7.04667 28.8138 7.02 29.1471 6.96C29.4871 6.9 29.7771 6.8 30.0171 6.66C30.3171 6.49333 30.4938 6.25667 30.5471 5.95C30.6005 5.64333 30.5138 5.39667 30.2871 5.21C30.1271 5.07667 29.7605 4.99333 29.1871 4.96C28.9738 4.99333 28.7371 5.01 28.4771 5.01C28.2771 5.00333 27.9805 4.98667 27.5871 4.96C27.4938 4.95333 27.4138 4.95 27.3471 4.95C27.2938 4.94333 27.2405 4.93 27.1871 4.91L27.0671 4.9C27.0671 5.02667 27.0705 5.34 27.0771 5.84C27.0838 6.34 27.0871 6.72667 27.0871 7ZM27.6571 3.96C27.7238 3.96 27.8805 3.95667 28.1271 3.95C28.5405 3.94333 28.8571 3.94667 29.0771 3.96H29.1371C29.3305 3.92667 29.4838 3.87333 29.5971 3.8C29.8571 3.64667 30.0038 3.40333 30.0371 3.07C30.0705 2.73667 29.9771 2.47667 29.7571 2.29C29.5105 2.08333 29.0838 1.95333 28.4771 1.9C28.1171 1.87333 27.6371 1.87667 27.0371 1.91C27.0638 2.24333 27.0738 2.90333 27.0671 3.89H27.0971C27.3571 3.92333 27.5438 3.94667 27.6571 3.96Z" fill="white"/>
</svg>
