<svg width="48" height="41" viewBox="0 0 48 41" fill="none" xmlns="http://www.w3.org/2000/svg">
<path fill-rule="evenodd" clip-rule="evenodd" d="M16.719 1.16393C16.5709 1.28383 16.4965 1.47437 16.4418 1.8745C16.4007 2.17523 16.2362 2.73848 16.0762 3.12621C15.8059 3.78105 15.7853 3.90454 15.7853 4.86469C15.7853 5.84102 15.8022 5.93809 16.0924 6.61728C16.3619 7.24822 16.3995 7.42986 16.3988 8.10024C16.398 8.75688 16.3571 8.96225 16.107 9.562C15.5512 10.8948 15.634 11.8751 16.3022 11.8751C16.7765 11.8751 16.9218 11.7046 16.9998 11.0565C17.0379 10.7401 17.2023 10.1579 17.3652 9.7626C17.6393 9.09743 17.6613 8.97043 17.6595 8.05531C17.6578 7.14126 17.6351 7.01247 17.3585 6.34765C16.9341 5.32782 16.8962 4.66427 17.2121 3.78509C17.7868 2.1861 17.8521 1.58285 17.4898 1.22065C17.2272 0.958028 16.9944 0.940951 16.719 1.16393ZM22.1355 1.0932C21.8975 1.18883 21.7549 1.51248 21.7549 1.9571C21.7549 2.13101 21.6333 2.57679 21.4848 2.9478C21.3362 3.31872 21.1685 3.90184 21.1121 4.24346C20.9838 5.02045 21.102 5.82574 21.4848 6.78158C21.8693 7.74191 21.8601 8.438 21.4487 9.50681C20.9754 10.7363 20.9381 11.5369 21.3414 11.8063C21.5252 11.929 21.9954 11.8765 22.1334 11.7178C22.2086 11.6312 22.2958 11.331 22.3271 11.0505C22.3584 10.77 22.5154 10.224 22.6761 9.8372C22.9518 9.17328 22.9679 9.07334 22.9634 8.05531C22.9589 7.03647 22.9419 6.93706 22.6543 6.25778C22.2292 5.25332 22.2266 4.49143 22.6449 3.4716C22.8525 2.96542 22.9542 2.55109 22.9882 2.07187C23.0353 1.40984 23.0298 1.38566 22.7881 1.19557C22.517 0.982294 22.4411 0.970431 22.1355 1.0932ZM27.3949 1.17796C27.2193 1.3161 27.1545 1.47194 27.1054 1.8745C27.0705 2.15968 26.915 2.69642 26.7598 3.06716C26.4944 3.70106 26.4775 3.80819 26.4775 4.86469C26.4775 5.94015 26.4905 6.01888 26.782 6.70716C27.2054 7.70713 27.2066 8.46865 26.7861 9.49333C26.4142 10.3997 26.3122 11.4179 26.5652 11.6975C26.6629 11.8054 26.8412 11.8751 27.02 11.8751C27.4205 11.8751 27.6867 11.5329 27.6867 11.0181C27.6867 10.7901 27.8198 10.2944 28.0153 9.79442C28.3119 9.03613 28.3439 8.87076 28.3433 8.10024C28.3425 7.24228 28.335 7.20957 27.8222 5.85333C27.5964 5.25574 27.6745 4.0851 27.9843 3.42667C28.2934 2.76958 28.4526 1.77959 28.306 1.42584C28.2124 1.19953 27.9251 1 27.693 1C27.6535 1 27.5193 1.08008 27.3949 1.17796ZM6.50938 14.26L6.28154 14.4879L6.32342 19.4055C6.36773 24.6027 6.37681 24.7261 6.83554 26.4208C7.8995 30.3509 10.5117 33.6175 14.1481 35.5653L14.8793 35.957L8.1081 35.982L1.33698 36.0069L1.16514 36.2191C0.962827 36.469 0.94647 36.9023 1.11571 37.5348C1.42488 38.6905 2.14722 39.5577 3.2403 40.0854L3.91437 40.4109L21.7549 40.4348C33.801 40.4508 39.7413 40.4284 40.0447 40.3655C41.7143 40.0196 43.0049 38.5453 43.0735 36.9054C43.0906 36.4954 43.0595 36.3753 42.8927 36.2085L42.6911 36.0069L35.9329 35.9827L29.1745 35.9585L29.8911 35.5901C31.8528 34.5813 33.7039 32.9745 35.0283 31.1311L35.4319 30.5694L39.1763 30.568C43.3153 30.5666 43.6225 30.535 44.6064 30.0106C45.7239 29.415 46.6792 28.1058 46.9203 26.8395C46.9888 26.48 47.0131 25.2814 46.9934 23.2444C46.9653 20.3374 46.954 20.1626 46.7625 19.6529C46.1771 18.0957 44.8227 16.9239 43.2862 16.6453C42.989 16.5914 41.6465 16.5486 40.2529 16.5486H37.7529V15.4701C37.7529 14.5114 37.7329 14.3716 37.5731 14.2118C37.3948 14.0335 37.2736 14.0321 22.0654 14.0321H6.7373L6.50938 14.26ZM36.4713 19.9415C36.4366 24.5815 36.4359 24.5948 36.2045 25.5363C35.5587 28.163 34.4167 30.2176 32.5835 32.0508C31.0884 33.5459 29.3407 34.6373 27.416 35.2776C25.6106 35.8783 25.2779 35.9173 21.9796 35.9146C19.2066 35.9124 18.9581 35.8989 18.1607 35.7074C15.3769 35.0388 13.1699 33.7877 11.2711 31.8015C9.88469 30.3512 8.91196 28.7309 8.27141 26.8046C7.64434 24.9192 7.61989 24.6687 7.57756 19.7168L7.53972 15.2904H22.023H36.5062L36.4713 19.9415ZM43.4029 17.976C44.1007 18.1931 44.7462 18.6699 45.1502 19.2666C45.7139 20.0993 45.7519 20.3709 45.7519 23.5673C45.7519 26.0885 45.7327 26.4809 45.5858 26.9527C45.2508 28.0289 44.4915 28.7956 43.4281 29.1309C42.899 29.2978 42.6096 29.3111 39.5035 29.3111H36.1502L36.5238 28.5022L36.8974 27.6933H39.7996C42.2159 27.6933 42.7577 27.67 43.0347 27.5542C43.4789 27.3687 43.7635 27.0948 43.9642 26.6597C44.1141 26.3351 44.1302 26.0343 44.1302 23.559C44.1302 21.0837 44.1141 20.7829 43.9642 20.4583C43.7635 20.0232 43.4789 19.7493 43.0347 19.5638C42.7616 19.4497 42.2575 19.4247 40.2274 19.4247H37.7529V18.6158V17.8069H40.3064C42.5534 17.8069 42.925 17.8272 43.4029 17.976ZM42.7115 20.8317C42.8634 20.9692 42.8758 21.1753 42.8758 23.5666C42.8758 25.7977 42.8564 26.172 42.7346 26.2939C42.6126 26.4158 42.233 26.4351 39.9485 26.4351C38.4937 26.4351 37.3035 26.4209 37.3035 26.4038C37.3035 26.3865 37.3883 25.9922 37.492 25.5275C37.6402 24.8632 37.6905 24.2547 37.7274 22.6827L37.7744 20.683H40.1608C42.2552 20.683 42.5672 20.7011 42.7115 20.8317ZM41.7074 37.3586C41.7074 37.6348 41.3461 38.1952 40.9342 38.5579C40.15 39.248 41.643 39.1976 22.0306 39.197C10.3315 39.1967 4.34299 39.1658 4.12271 39.1046C3.57707 38.9531 2.95117 38.462 2.63363 37.9364C2.47293 37.6704 2.34153 37.4005 2.34153 37.3365C2.34153 37.2417 5.9792 37.2202 22.0245 37.2202C39.6868 37.2202 41.7074 37.2344 41.7074 37.3586Z" fill="white" stroke="white" stroke-width="0.5"/>
</svg>
