<svg width="48" height="47" viewBox="0 0 48 47" fill="none" xmlns="http://www.w3.org/2000/svg">
<path fill-rule="evenodd" clip-rule="evenodd" d="M8.31098 1.20321C7.92656 1.3625 7.62705 1.579 7.26997 1.95559C6.78527 2.46674 6.74983 2.48617 6.19829 2.54382C5.63641 2.60256 5.01409 2.87941 4.76252 3.18252C4.68732 3.27318 4.49637 3.32265 4.22186 3.32265C3.66619 3.32265 2.78771 3.75645 2.43531 4.205C1.91795 4.86339 1.83574 5.10606 1.83538 5.97599C1.83502 6.70472 1.86156 6.83334 2.10072 7.26516C2.40329 7.8113 2.69795 8.08563 3.35445 8.43191L3.81379 8.67431H8.71573H13.6177L14.184 8.36724C14.7484 8.06125 15.1051 7.69752 15.4264 7.10029C15.5563 6.85888 15.5958 6.59688 15.5961 5.97599C15.5964 5.24727 15.5699 5.11865 15.3307 4.68683C14.8611 3.83902 13.9965 3.31527 13.0592 3.31078L12.5374 3.30835L12.2966 2.79828C11.7662 1.67488 10.8193 1.05247 9.5702 1.00614C8.9691 0.983838 8.76178 1.01631 8.31098 1.20321ZM10.3035 2.79153C10.7583 3.07252 10.9903 3.52232 10.9883 4.11856C10.9856 4.88066 11.2109 5.20329 11.7492 5.20859C11.9087 5.21021 12.1718 5.1307 12.3338 5.03194C13.0714 4.58222 13.9927 5.00973 14.0842 5.84414C14.1195 6.16542 14.0857 6.30861 13.9152 6.55928C13.7981 6.7317 13.6022 6.92337 13.4801 6.98525C13.3111 7.07079 12.1528 7.09795 8.63766 7.09894L4.01751 7.10029L3.65693 6.73971C3.31028 6.39315 3.29805 6.36113 3.34113 5.9133C3.37891 5.52043 3.43728 5.40035 3.7144 5.14635C4.02777 4.85925 4.07274 4.84603 4.68229 4.86141L5.3217 4.8776L5.67626 4.50487C6.10484 4.05443 6.30694 3.99345 6.79723 4.16659C7.43484 4.39163 7.71169 4.25231 8.05087 3.53519C8.49654 2.5932 9.46523 2.27336 10.3035 2.79153ZM39.691 5.6933C39.4378 5.75743 39.0466 5.9178 38.8215 6.04975C38.4378 6.27461 37.7676 6.95296 37.7676 7.11648C37.7676 7.15705 37.5437 7.19024 37.27 7.19024C36.7193 7.19024 36.2631 7.34773 35.8799 7.67027C35.711 7.8122 35.4578 7.90277 35.1174 7.9428C34.2167 8.04866 33.3949 8.61927 32.9383 9.45592C32.6878 9.91455 32.7079 11.3347 32.9716 11.828C33.2412 12.3323 33.7671 12.822 34.3217 13.0851L34.7883 13.3064L39.6284 13.3055L44.4684 13.3046L44.9631 13.0753C45.5782 12.79 45.9884 12.4046 46.2965 11.8223C46.5 11.438 46.5346 11.2615 46.5348 10.6081C46.535 9.98839 46.4968 9.77163 46.3331 9.46384C45.8393 8.53463 45.055 8.01529 44.0201 7.93218L43.4361 7.88532L43.2143 7.40107C42.6208 6.10461 41.0578 5.34702 39.691 5.6933ZM41.3235 7.50126C41.7365 7.81625 41.905 8.20966 41.905 8.85825C41.905 9.29591 41.9398 9.39755 42.1679 9.62565C42.4907 9.94837 42.6434 9.95232 43.2936 9.6547C43.9145 9.37039 44.2921 9.41131 44.6864 9.80554C45.1842 10.3034 45.1303 11.1319 44.5744 11.5285L44.2885 11.7324L39.7241 11.7573C34.6744 11.7848 34.7935 11.7971 34.4361 11.2108C34.1135 10.6819 34.2622 9.99586 34.7724 9.65893C34.9641 9.53229 35.1701 9.49676 35.6354 9.51007L36.2464 9.52761L36.6392 9.12349C37.0581 8.69248 37.1832 8.65992 37.7941 8.82326C38.4077 8.98741 38.6262 8.8846 38.9273 8.29043C39.3618 7.43335 39.7511 7.17288 40.5269 7.22037C40.8694 7.24141 41.0801 7.31562 41.3235 7.50126ZM16.1234 11.5476C15.929 11.6322 15.8081 11.7698 15.7358 11.9888C15.6337 12.2982 15.69 12.4396 17.7161 16.9664C18.8631 19.529 19.821 21.6764 19.8448 21.7384C19.8791 21.8279 18.7896 21.8511 14.5483 21.8511H9.20862L7.36567 18.1545C6.27897 15.9749 5.43467 14.3878 5.30821 14.2869C5.11339 14.1316 4.9272 14.1159 3.27898 14.1159C1.59892 14.1159 1.45006 14.129 1.2744 14.2927C1.16998 14.3901 1.058 14.5534 1.02544 14.6558C0.992969 14.7583 1.29824 16.8329 1.70398 19.2659C2.39933 23.4362 2.43234 23.6951 2.28034 23.7824C1.92101 23.9884 1.40662 24.5129 1.23618 24.847C0.668721 25.9595 1.16494 27.4315 2.28483 27.9578C2.60926 28.1104 4.06536 28.3394 9.2804 29.058C12.9026 29.5572 15.8779 29.9763 15.8921 29.9891C15.9062 30.002 15.1133 31.1815 14.1299 32.6102C9.67049 39.0891 9.52523 39.3101 9.52523 39.6165C9.52523 40.1732 9.68731 40.2607 11.6117 40.7437C12.9191 41.0718 13.4373 41.167 13.5903 41.1071C13.7043 41.0625 16.2818 38.8163 19.318 36.1156C23.6484 32.2638 24.8894 31.2055 25.0745 31.2064C25.2042 31.2071 26.6056 31.3305 28.1886 31.4805C33.0264 31.9389 35.5607 31.9355 39.3416 31.4652C41.6685 31.1758 42.6911 30.9213 44.4917 30.1838C46.2573 29.4606 46.4864 29.3167 46.7766 28.7482C47.1717 27.9738 47.0335 27.0697 46.4351 26.5136C46.162 26.2599 41.8459 23.7136 40.7807 23.1779C39.9396 22.7548 38.7599 22.3455 37.6956 22.1076C36.8939 21.9284 36.513 21.9096 32.9963 21.8752L29.1692 21.8377L24.7214 16.7745C22.275 13.9896 20.1661 11.6452 20.0348 11.5644C19.8356 11.4419 19.5155 11.4181 18.101 11.4211C16.872 11.4237 16.3282 11.4584 16.1234 11.5476ZM23.1835 17.3767L27.0829 21.8061L24.3617 21.83C22.8649 21.8431 21.6225 21.836 21.6007 21.8142C21.5165 21.7298 17.7108 13.1652 17.7105 13.0591C17.7102 12.9777 17.9272 12.9467 18.4971 12.9469L19.2841 12.9472L23.1835 17.3767ZM6.1982 19.3378C7.21178 21.3689 8.11626 23.0992 8.208 23.1829C8.3627 23.3242 9.39733 23.3387 22.5091 23.384C35.3846 23.4285 36.6993 23.4464 37.2729 23.5853C39.0023 24.0042 40.5668 24.6754 40.7815 25.0907C40.9174 25.3534 40.9168 25.3547 40.5606 25.5365C40.2457 25.697 40.032 25.7187 38.7606 25.7187H37.3179V26.4832V27.2477H38.9236H40.5292L41.5238 26.7596C42.0708 26.4912 42.5524 26.2141 42.5939 26.1438C42.654 26.0426 42.9459 26.1783 44.0098 26.8022C45.3615 27.5951 45.5465 27.7488 45.4503 27.9993C45.3457 28.2722 42.4996 29.3637 41.2096 29.6257C39.0468 30.0651 35.2174 30.3607 32.8323 30.2724C31.4516 30.2213 27.9711 29.9469 26.9009 29.8048L26.5125 29.7533L27.2838 29.0177C27.8983 28.4317 28.055 28.2304 28.0544 28.0278C28.0537 27.761 27.6298 27.2484 27.4085 27.2468C27.3428 27.2464 25.3527 27.0667 22.9859 26.8475C20.1891 26.5885 18.6097 26.4768 18.4743 26.5283C18.3584 26.5723 17.9754 27.029 17.6112 27.5572C17.1375 28.2442 16.9051 28.5069 16.7711 28.5069C16.4278 28.507 3.45743 26.7098 3.11726 26.6151C2.71252 26.5024 2.46805 26.1127 2.55466 25.7183C2.62203 25.4116 2.73536 25.3088 3.39753 24.9542C3.74309 24.7691 3.92874 24.6054 3.98873 24.4329C4.05628 24.2388 3.92595 23.2646 3.41741 20.1606C3.05502 17.9491 2.73797 16.0283 2.71279 15.8923L2.667 15.645H3.51113H4.35525L6.1982 19.3378ZM11.0543 24.9542V25.7187H11.8188H12.5833V24.9542V24.1896H11.8188H11.0543V24.9542ZM14.1124 24.9542V25.7187H14.8769H15.6414V24.9542V24.1896H14.8769H14.1124V24.9542ZM17.2604 24.9542V25.7187H18.0249H18.7894V24.9542V24.1896H18.0249H17.2604V24.9542ZM20.3185 24.9542V25.7187H21.083H21.8475V24.9542V24.1896H21.083H20.3185V24.9542ZM23.3766 24.9542V25.7187H24.1411H24.9056V24.9542V24.1896H24.1411H23.3766V24.9542ZM26.5246 24.9542V25.7187H27.2891H28.0537V24.9542V24.1896H27.2891H26.5246V24.9542ZM29.5827 24.9542V25.7187H30.3472H31.1118V24.9542V24.1896H30.3472H29.5827V24.9542ZM22.2251 28.33C23.8725 28.48 25.257 28.6137 25.3016 28.6269C25.3914 28.6535 13.3746 39.3683 13.1644 39.449C13.0225 39.5034 11.7776 39.2316 11.6536 39.119C11.5717 39.0448 19.0617 28.0572 19.1941 28.0572C19.2138 28.0572 20.5778 28.18 22.2251 28.33ZM23.9404 39.0204C23.3585 39.2372 23.0379 39.4617 22.5956 39.9623C22.2861 40.3125 22.2006 40.3568 21.7274 40.4118C21.1749 40.476 20.8201 40.6208 20.347 40.9748C20.1717 41.1059 19.9375 41.189 19.7432 41.189C18.9334 41.189 17.9281 41.8502 17.5163 42.6538C17.248 43.1771 17.1886 44.1645 17.3891 44.768C17.6003 45.4039 18.1429 45.9858 18.831 46.3142L19.3998 46.5857H24.1762H28.9527L29.5314 46.3122C30.5125 45.8487 31.1092 44.9471 31.1109 43.9258C31.1122 43.1033 30.8939 42.5769 30.3089 41.9919C29.739 41.422 29.199 41.189 28.4474 41.189H27.9738L27.7323 40.6508C27.4465 40.0142 26.8098 39.3784 26.1881 39.1091C25.5604 38.8372 24.5402 38.7969 23.9404 39.0204ZM25.6072 40.5958C26.1548 40.8808 26.4532 41.3871 26.4483 42.0228C26.4439 42.5972 26.6204 42.941 26.9852 43.0681C27.2308 43.1538 27.3391 43.136 27.747 42.943C28.5085 42.5827 28.989 42.6732 29.3776 43.2498C29.7676 43.8285 29.5501 44.5977 28.915 44.8862C28.5744 45.0409 28.2395 45.0527 24.1861 45.0527C20.0928 45.0527 19.8006 45.0421 19.4475 44.8819C18.6134 44.5032 18.5506 43.4456 19.3305 42.9149C19.5981 42.7326 19.7134 42.7094 20.1198 42.7559C20.6629 42.8182 20.8315 42.7508 21.2437 42.3072C21.5684 41.9579 21.7822 41.9182 22.4007 42.0928C22.7696 42.1969 22.8463 42.193 23.0504 42.0592C23.1777 41.9759 23.3866 41.6861 23.5146 41.4156C23.7276 40.9652 24.0174 40.6654 24.366 40.5344C24.6304 40.435 25.3683 40.4715 25.6072 40.5958Z" fill="white" stroke="white" stroke-width="0.1"/>
</svg>
