<svg width="48" height="45" viewBox="0 0 48 45" fill="none" xmlns="http://www.w3.org/2000/svg">
<path fill-rule="evenodd" clip-rule="evenodd" d="M3.23546 1.05559C2.44479 1.30018 1.7521 1.90478 1.42526 2.6354C1.14301 3.26661 1.144 4.17593 1.42778 4.81199C1.66068 5.33425 2.35041 6.03602 2.82611 6.23477L3.132 6.36259L3.1613 8.17009C3.18998 9.9447 3.19438 9.98074 3.40275 10.1493C3.65372 10.3523 4.03081 10.3715 4.2745 10.1936C4.43423 10.0769 4.45275 9.9153 4.49392 8.28344L4.53886 6.50066L11.753 6.47765L18.9671 6.45464L18.9442 15.2419L18.9212 24.0292H11.73H4.53886L4.49392 18.1228C4.44996 12.3486 4.44493 12.2133 4.2692 12.0806C3.87179 11.7803 3.37992 11.9745 3.23205 12.4901C3.18081 12.669 3.14557 15.088 3.14557 18.4329V24.0741L2.85343 24.0761C2.14591 24.0809 1.29277 24.7862 1.08458 25.5386C1.00925 25.8109 0.98741 27.3038 1.00656 30.868L1.03316 35.819L1.30517 36.2589C1.47362 36.5313 1.74473 36.8025 2.0171 36.971C2.43958 37.2323 2.50394 37.2442 3.65516 37.2742C4.71828 37.302 4.85348 37.3231 4.85348 37.4608C4.85348 37.7503 5.29897 38.9275 5.66608 39.6081C6.75645 41.6297 8.59244 43.065 10.8821 43.6862C11.9379 43.9726 13.9014 43.971 14.9661 43.683C15.7676 43.4662 16.9479 42.93 17.5962 42.4883C19.1887 41.4031 20.465 39.5663 20.944 37.6699L21.0406 37.2879H21.9136L22.7865 37.288L22.791 38.2992C22.7949 39.1866 22.8286 39.4045 23.066 40.0784C23.408 41.0492 23.8512 41.7178 24.6323 42.4408C26.8324 44.4778 30.2564 44.4128 32.3852 42.2934C32.742 41.9382 33.1139 41.4959 33.2116 41.3105C33.3094 41.125 33.4115 40.9734 33.4384 40.9734C33.4654 40.9734 33.5674 41.1251 33.6652 41.3105C33.7629 41.4959 34.1349 41.9382 34.4917 42.2934C36.6204 44.4128 40.0444 44.4778 42.2446 42.4408C43.0256 41.7178 43.4689 41.0492 43.8108 40.0784C44.0476 39.4062 44.0819 39.1855 44.0859 38.3093L44.0904 37.3081L44.8264 37.2695C45.7431 37.2213 46.2788 36.9316 46.6948 36.2589L46.9668 35.819L46.9934 30.868C47.0126 27.3038 46.9907 25.8109 46.9154 25.5386C46.7808 25.0518 46.2679 24.4547 45.8033 24.2436C45.5885 24.146 45.2283 24.0773 44.9263 24.0761L44.4138 24.0741L44.3869 20.1864L44.36 16.2986L44.1262 15.8001C43.7949 15.0939 43.3986 14.6825 42.7339 14.3553C42.2453 14.1148 42.0261 14.0644 41.3033 14.0266L40.4498 13.9819V12.0722V10.1625L40.7742 9.91521C41.6853 9.22019 41.765 7.76802 40.9375 6.93923C40.3447 6.34542 40.2003 6.32088 37.3037 6.32088C34.8501 6.32088 34.7266 6.32906 34.3823 6.51486C33.055 7.2311 32.8555 8.93505 33.9857 9.90236L34.3373 10.2034V12.1049V14.0065H32.5845H30.8316V12.1049V10.2034L31.1942 9.89292C31.7035 9.45713 31.9103 9.00921 31.9103 8.3425C31.9103 7.52504 31.5372 6.91847 30.7867 6.51621C30.4518 6.3367 30.2725 6.32124 28.1747 6.29194C25.7062 6.25742 25.0587 6.32609 24.5257 6.67882C23.6956 7.22814 23.419 8.47437 23.9329 9.34882C24.069 9.58037 24.3017 9.85616 24.4498 9.96169L24.7191 10.1534V12.0799V14.0065H22.5168H20.3145V10.1904V6.37428L20.7099 6.19935C21.2193 5.974 21.8089 5.38189 22.0526 4.85109C22.3312 4.24434 22.3247 3.15254 22.0392 2.57293C21.774 2.03431 21.2302 1.49056 20.6916 1.2253L20.2696 1.01738L11.8649 1.00174C7.2423 0.993114 3.35906 1.01738 3.23546 1.05559ZM20.2799 2.55108C20.6744 2.84565 20.8701 3.16827 20.9194 3.60513C20.9781 4.12577 20.7007 4.6492 20.2243 4.91698C19.8862 5.10701 19.8707 5.10737 11.7087 5.10737H3.53174L3.23456 4.90512C2.73981 4.56839 2.56767 4.26339 2.56767 3.72307C2.56767 3.33312 2.61603 3.17887 2.82332 2.90714C3.29191 2.29274 2.78512 2.32429 11.8358 2.34604C19.958 2.36555 20.034 2.36744 20.2799 2.55108ZM30.3729 7.84047C30.6299 8.07328 30.6299 8.61352 30.3729 8.84633C30.2001 9.00292 29.9986 9.02 28.0133 9.04607C25.55 9.07843 25.2528 9.03339 25.0734 8.60031C24.9756 8.36416 24.9779 8.28102 25.0878 8.08515C25.3366 7.64208 25.4855 7.61898 27.9234 7.64505C30.0007 7.66725 30.1992 7.68307 30.3729 7.84047ZM39.7754 7.75318C40.1118 7.89377 40.2403 8.18151 40.1418 8.57406C40.0294 9.02171 39.685 9.07681 37.1952 9.04562C34.9601 9.01766 34.9497 9.01667 34.7787 8.80534C34.4635 8.41576 34.6366 7.77305 35.0797 7.68765C35.1905 7.66626 36.2229 7.64325 37.374 7.63651C39.0101 7.62698 39.5341 7.65242 39.7754 7.75318ZM29.4833 12.2087V14.0065H27.7754H26.0675V12.2087V10.4109H27.7754H29.4833V12.2087ZM39.1015 12.2087V14.0065H37.3936H35.6857V12.2087V10.4109H37.3936H39.1015V12.2087ZM10.921 11.0693C9.86735 11.3384 8.92045 12.1168 8.46525 13.088C8.25176 13.5433 8.22435 13.7097 8.22435 14.5477C8.22435 15.4297 8.24367 15.5328 8.51154 16.0768C8.87811 16.8214 9.50527 17.4475 10.2469 17.8092C10.7834 18.0708 10.9046 18.0943 11.73 18.0953C12.5567 18.0963 12.6779 18.0732 13.2379 17.808C15.5585 16.7088 16.032 13.7062 14.1608 11.956C13.2814 11.1332 12.0212 10.7883 10.921 11.0693ZM12.7565 12.5645C13.1617 12.7713 13.6335 13.2874 13.8217 13.7302C14.0168 14.189 13.9979 14.9583 13.7794 15.451C13.1074 16.9663 11.1238 17.2467 10.0392 15.9796C9.03048 14.8011 9.57206 12.9107 11.0559 12.4317C11.5561 12.2701 12.2923 12.3277 12.7565 12.5645ZM42.2656 15.6065C42.8965 15.9989 43.0075 16.3064 43.0426 17.7594L43.0735 19.0403H31.694H20.3145V17.1961V15.3519L31.1238 15.3758L41.933 15.3997L42.2656 15.6065ZM43.0117 22.2314V24.0292L34.757 24.0741C26.7168 24.1179 26.4991 24.1236 26.3748 24.2935C26.1967 24.5371 26.2159 24.9143 26.419 25.1653L26.5909 25.3775L35.9553 25.4225L45.3198 25.4674L45.4917 25.6796C45.6559 25.8825 45.6634 26.0985 45.6634 30.5969C45.6634 33.8536 45.6327 35.3693 45.5637 35.5209C45.4194 35.8376 45.1167 35.9399 44.3333 35.9369L43.6409 35.9343L43.3263 35.3758C42.6572 34.1879 41.2303 33.112 39.8526 32.7562C39.1508 32.5751 37.7754 32.5718 37.0754 32.7498C35.8011 33.0738 34.3802 34.0702 33.734 35.0932C33.5961 35.3113 33.4631 35.4898 33.4384 35.4898C33.4137 35.4898 33.2808 35.3113 33.1429 35.0932C32.4967 34.0702 31.0758 33.0738 29.8015 32.7498C29.1014 32.5718 27.726 32.5751 27.0243 32.7562C25.6465 33.112 24.2197 34.1879 23.5506 35.3758L23.2359 35.9343L22.2371 35.9369L21.2381 35.9396L21.1753 35.1652C21.0449 33.5578 20.3246 31.547 19.8091 31.351C19.5138 31.2387 19.1575 31.401 18.9717 31.7324C18.8461 31.9565 18.8517 32.0073 19.0473 32.4066C19.697 33.7331 19.9617 35.187 19.7893 36.4819C19.4074 39.3504 17.4341 41.6122 14.6463 42.3767C13.847 42.596 12.0376 42.6017 11.2357 42.3876C10.4364 42.1743 9.13628 41.5166 8.53896 41.0235C7.54478 40.2028 6.79501 39.1124 6.35734 37.8507C6.12596 37.1839 6.0776 36.8904 6.04182 35.9362C6.0065 34.9932 6.0305 34.6852 6.18897 34.0485C6.80184 31.587 8.70256 29.6354 11.1458 28.9593C12.0597 28.7064 13.9466 28.7301 14.829 29.0056C15.6154 29.251 16.2068 29.5382 16.9162 30.0192C17.5101 30.4219 17.8087 30.4534 18.1163 30.1457C18.5841 29.6779 18.326 29.2501 17.1571 28.5557C13.8227 26.5747 9.44208 27.212 6.84256 30.0563C6.21801 30.7397 5.90375 31.2097 5.47884 32.096C4.98247 33.131 4.76602 33.9452 4.70175 35.0182L4.64664 35.9396H3.8104C2.88579 35.9396 2.58538 35.8481 2.43634 35.5209C2.36731 35.3693 2.33657 33.8499 2.33657 30.5828V25.8637L2.55724 25.6431L2.77783 25.4225H13.3381C20.4271 25.4225 23.9791 25.3917 24.1441 25.3291C24.6352 25.1424 24.7811 24.6306 24.4459 24.2709C24.2681 24.08 24.2036 24.0741 22.2886 24.0741H20.3145V22.231V20.3879L31.6631 20.4107L43.0117 20.4336V22.2314ZM12.1089 30.8193C11.8229 30.8638 11.2415 31.0629 10.8169 31.2618C9.13745 32.0489 8.00277 33.8263 8.00277 35.6699C8.00277 37.7997 9.52118 39.7824 11.6153 40.3868C12.224 40.5625 13.4308 40.5838 14.0672 40.4301C15.3378 40.1232 16.6727 39.0778 17.2468 37.9402C18.1938 36.0632 17.917 33.8954 16.5392 32.4002C15.3781 31.1403 13.7602 30.5629 12.1089 30.8193ZM13.5909 32.174C14.6754 32.4009 15.692 33.2063 16.1634 34.2121C16.3767 34.6673 16.4043 34.834 16.4043 35.6699C16.4043 36.4992 16.376 36.6737 16.1709 37.1081C15.8318 37.8261 15.193 38.4898 14.5236 38.8193C12.3545 39.8872 9.86537 38.6229 9.41979 36.2269C9.14787 34.7644 9.96893 33.1606 11.3308 32.4943C12.1276 32.1044 12.8017 32.0089 13.5909 32.174ZM29.768 34.1469C30.473 34.3843 31.1346 34.8118 31.6253 35.3469C31.9989 35.7543 32.5529 36.797 32.6665 37.3065L32.7207 37.5498L30.1052 37.5762L27.4896 37.6025L27.3178 37.8148C27.0952 38.0899 27.0988 38.499 27.3259 38.7261C27.4974 38.8977 27.6255 38.9059 30.1142 38.9059H32.7227L32.6635 39.1531C32.3504 40.4583 31.5352 41.5211 30.4029 42.1002C28.3757 43.1369 25.9074 42.4263 24.7179 40.4636C24.145 39.5184 23.957 38.2852 24.2275 37.2467C24.6138 35.7637 25.7086 34.5893 27.128 34.1356C27.8582 33.902 29.0566 33.9072 29.768 34.1469ZM39.7437 34.1385C41.5076 34.6837 42.8008 36.4437 42.7817 38.2731C42.753 41.0406 40.0729 43.1356 37.4349 42.4527C35.9137 42.0589 34.7836 41.0039 34.3381 39.5617C34.2388 39.24 34.1575 38.9609 34.1575 38.9414C34.1575 38.9219 35.189 38.9059 36.4497 38.9059C38.6221 38.9059 38.7514 38.8965 38.9217 38.7261C39.1489 38.499 39.1524 38.0899 38.9298 37.8148C38.7586 37.6031 38.752 37.6024 36.4578 37.5757C35.1926 37.561 34.1575 37.5294 34.1575 37.5054C34.1575 37.4815 34.24 37.2174 34.3406 36.9185C34.7875 35.592 35.7679 34.6044 37.0888 34.1501C37.8056 33.9036 38.967 33.8985 39.7437 34.1385Z" fill="white" stroke="white" stroke-width="0.4"/>
</svg>
