<svg width="51" height="46" viewBox="0 0 51 46" fill="none" xmlns="http://www.w3.org/2000/svg">
<path fill-rule="evenodd" clip-rule="evenodd" d="M27.9906 1.19156C24.3242 1.95849 21.5968 4.58155 20.6565 8.24503C20.5113 8.8112 20.4733 9.29576 20.4733 10.5871V12.2151L19.7755 12.4859C18.8134 12.8591 17.4787 13.7595 16.6482 14.5956L15.9527 15.2958L14.9355 13.6908C13.8347 11.954 13.657 11.7899 13.0086 11.9112C12.7886 11.9523 12.5944 12.0789 12.4425 12.2801C12.0504 12.7995 6.90522 20.9639 6.77663 21.2707C6.61004 21.6682 6.70348 22.0423 7.03974 22.3244C7.28935 22.5338 7.41296 22.562 8.08165 22.562C8.49891 22.562 8.84024 22.5828 8.84024 22.6082C8.84024 22.6336 8.04373 23.961 7.07019 25.5581C6.09655 27.1551 5.25466 28.5808 5.19913 28.7264C5.06489 29.0785 5.15901 29.4571 5.44816 29.7279C5.65028 29.9173 5.80951 29.9552 6.54991 29.9905C7.15741 30.0194 7.40252 30.0651 7.37236 30.1433C7.34881 30.2047 6.50347 31.6458 5.49402 33.3457C4.48458 35.0457 3.63426 36.5578 3.60458 36.706C3.5748 36.8541 3.60496 37.1065 3.6716 37.2668C3.88683 37.7848 4.12017 37.8356 6.28527 37.8356C8.11774 37.8356 8.25571 37.8232 8.49221 37.6377C8.81812 37.3822 8.83871 36.8806 8.53491 36.5984C8.34303 36.42 8.20238 36.4037 6.85936 36.4037C6.05308 36.4037 5.39339 36.3869 5.39339 36.3663C5.39339 36.3458 6.21939 34.9389 7.22884 33.24C8.23838 31.5411 9.11503 30.0083 9.17698 29.8337C9.32357 29.4206 9.25989 29.121 8.96691 28.846C8.76364 28.6553 8.6027 28.6169 7.83395 28.576L6.93787 28.5282L8.79859 25.4759C10.8384 22.1301 10.8959 21.9876 10.4284 21.4457C10.2141 21.1973 10.1374 21.1753 9.37517 21.1441C8.92297 21.1256 8.553 21.0959 8.553 21.0781C8.553 21.0604 9.60448 19.3886 10.8896 17.3632L13.2262 13.6806L15.576 17.3814L17.9258 21.0823L17.1169 21.1325C16.3986 21.1769 16.2787 21.2117 16.047 21.4427C15.5361 21.9522 15.5945 22.101 17.5902 25.3718C18.581 26.9958 19.4135 28.3812 19.4402 28.4504C19.4777 28.5479 19.314 28.576 18.7075 28.576C17.803 28.576 17.4453 28.7168 17.2685 29.1423C17.1087 29.5271 17.1887 29.7946 17.7445 30.7328L18.2113 31.5207L17.1706 33.9384L16.1298 36.356L13.6848 36.4037C10.9383 36.4574 10.8509 36.4791 10.8509 37.1119C10.8509 37.5872 11.2008 37.8356 11.8706 37.8356H12.3857L12.3603 40.6756L12.335 43.5155L6.85984 43.5401L1.38471 43.5648L1.1869 43.8156C0.847291 44.246 0.980377 44.6967 1.50583 44.896C1.87177 45.0347 49.1282 45.0347 49.4942 44.896C50.0195 44.6968 50.1527 44.246 49.8132 43.8157L49.6156 43.5652L45.2892 43.5403L40.9629 43.5155L40.9367 41.8688L40.9106 40.2221H43.7806C45.6404 40.2221 46.731 40.1857 46.8789 40.1186C47.1629 39.9895 47.4258 39.5586 47.4258 39.222C47.4258 38.8643 45.7396 34.9602 45.4974 34.757C45.0804 34.4074 44.3619 34.716 44.3619 35.2448C44.3619 35.3621 44.6805 36.2076 45.0699 37.1241L45.7778 38.7902H43.3464H40.9151V37.3063C40.9151 35.858 40.9094 35.8166 40.68 35.588C40.4194 35.3281 40.2702 35.3028 39.9248 35.4596C39.5476 35.631 39.4789 35.9317 39.4789 37.4105V38.7902H37.2688C36.0216 38.7902 35.0726 38.7533 35.0906 38.7055C35.5141 37.5807 40.4047 26.4065 40.4522 26.4548C40.4896 26.4926 41.0563 27.7693 41.7116 29.2919C42.3669 30.8145 42.9568 32.1755 43.0225 32.3163C43.3423 33.0015 44.3619 32.78 44.3619 32.0253C44.3619 31.9204 43.9968 30.9875 43.5507 29.9522L42.7394 28.0698L43.3032 27.4688C44.8374 25.8337 45.7101 23.5555 45.7093 21.1879C45.7088 19.3683 45.2571 17.7397 44.3418 16.2568C43.7758 15.3397 42.6536 14.1277 41.8237 13.537C41.2753 13.1465 39.7189 12.3371 39.3135 12.2315C39.1415 12.1866 39.1301 12.1352 39.1992 11.7158C39.3098 11.0448 39.3035 10.2651 39.1858 10.0458C39.0376 9.76972 38.6383 9.64295 38.3248 9.77239C38.0176 9.89926 37.8512 10.2252 37.8512 10.7001C37.8512 10.8914 37.78 11.4454 37.693 11.9311C37.4826 13.1058 37.5293 13.1797 38.7374 13.581C42.0816 14.6917 44.2694 17.657 44.272 21.0823C44.2732 22.6054 44.0675 23.5246 43.4497 24.7576C43.1324 25.391 42.2976 26.5713 42.1669 26.5713C42.1271 26.5713 41.9075 26.131 41.6788 25.5928C41.1483 24.3442 41.0632 24.2169 40.6737 24.0887C40.4152 24.0036 40.2953 24.0123 40.0608 24.1333C39.7055 24.3164 39.6613 24.4001 38.5972 26.9054C38.1289 28.008 37.7088 28.9469 37.6637 28.992C37.6185 29.0371 37.2868 29.0956 36.9265 29.122C36.5662 29.1486 36.1773 29.2289 36.0622 29.3008C35.9471 29.3727 35.6891 29.7437 35.4887 30.1254C34.6464 31.7302 32.7397 33.1083 30.9814 33.3831L30.5745 33.4467V29.3201V25.1933L32.3937 23.3709C34.3724 21.3888 34.4499 21.2624 33.9778 20.7917C33.5271 20.3422 33.3457 20.436 31.8987 21.8655L30.5745 23.1737V21.2883C30.5745 19.414 30.5732 19.4018 30.3395 19.1688C30.2102 19.04 29.9929 18.9345 29.8564 18.9345C29.72 18.9345 29.5026 19.04 29.3734 19.1688L29.1383 19.4031V23.7225V28.0419L27.8618 26.7815C26.4658 25.4034 26.2788 25.3088 25.8308 25.7556C25.3602 26.2247 25.44 26.356 27.367 28.2871L29.1383 30.062V31.7616V33.4613L28.7368 33.3936C28.1613 33.2967 27.4016 33.0221 26.7486 32.6751L26.1829 32.3745L24.4958 28.4467C23.5166 26.1668 22.7116 24.4208 22.5772 24.285C22.4178 24.124 22.2396 24.0512 22.0053 24.0512C21.5134 24.0512 21.2877 24.3371 20.7085 25.6939C20.4327 26.3402 20.177 26.8342 20.1404 26.7917C20.1039 26.7492 19.5103 25.7843 18.8214 24.6474L17.5691 22.5804L18.4312 22.5473C19.2378 22.5163 19.3081 22.4971 19.5242 22.2464C19.9757 21.7231 19.8983 21.5147 18.3328 19.0375C17.5503 17.7996 16.8826 16.7372 16.8489 16.6768C16.7636 16.5238 18.0331 15.1922 18.7408 14.6924C19.5079 14.1505 20.0054 13.9034 21.0471 13.547C22.1633 13.1651 22.2285 13.055 21.9992 11.9404C21.7823 10.886 21.8529 9.14665 22.1511 8.1952C22.4763 7.15745 22.9663 6.23788 23.6317 5.41596C24.6817 4.11923 25.9938 3.24691 27.6543 2.74164C28.4187 2.5091 28.6619 2.48018 29.8086 2.48533C30.8126 2.48982 31.2721 2.53669 31.8671 2.69534C34.1044 3.29169 35.9959 4.84731 37.0725 6.97617C37.5159 7.85297 37.9389 8.04351 38.4496 7.59637C38.7143 7.36469 38.6483 6.92787 38.2206 6.07913C36.3639 2.39417 32.0635 0.339479 27.9906 1.19156ZM30.1248 5.9599C29.8308 6.06834 29.5843 6.47691 29.6516 6.7442C29.7263 7.04118 30.986 8.24293 31.2225 8.24293C31.5705 8.24293 31.915 7.8798 31.915 7.51294C31.915 7.23754 31.8208 7.08032 31.3799 6.61943C30.8059 6.01946 30.4584 5.83685 30.1248 5.9599ZM31.3405 11.2977C30.9671 11.67 31.0807 12.0262 31.8027 12.746C32.5381 13.4792 32.8134 13.5607 33.2118 13.1634C33.6103 12.7662 33.5286 12.4917 32.7931 11.7585C32.0712 11.0387 31.7139 10.9254 31.3405 11.2977ZM24.9722 12.2535C24.6336 12.6267 24.7418 12.97 25.4098 13.6421C25.7464 13.9807 26.1015 14.2829 26.1988 14.3137C26.4767 14.4016 26.9142 14.1708 27.0147 13.8832C27.1458 13.5084 26.9624 13.1533 26.3328 12.5625C25.729 11.9959 25.2955 11.8974 24.9722 12.2535ZM37.799 17.546C37.4083 17.9355 37.4868 18.1995 38.2139 18.9404C38.7511 19.4879 38.9171 19.6027 39.1713 19.6027C39.5733 19.6027 39.8619 19.3124 39.8619 18.908C39.8619 18.6486 39.7513 18.4859 39.2132 17.9534C38.4812 17.2293 38.1984 17.1478 37.799 17.546ZM22.3054 18.1778C22.1183 18.3245 22.0532 18.4623 22.0532 18.7116C22.0532 18.9977 22.1452 19.1393 22.6726 19.6652C23.2378 20.2287 23.3228 20.2802 23.6444 20.253C24.1015 20.2143 24.4074 19.842 24.309 19.444C24.2723 19.295 23.9672 18.9047 23.6311 18.5765C22.96 17.921 22.7235 17.8499 22.3054 18.1778ZM36.7092 23.2908C36.4751 23.5875 36.4642 23.7227 36.646 24.0732C36.8388 24.4449 37.6921 25.2154 37.9949 25.2912C38.3773 25.3868 38.7526 25.0732 38.7907 24.6258C38.8179 24.3052 38.7663 24.2204 38.2011 23.6569C37.6737 23.131 37.5316 23.0393 37.2447 23.0393C36.9947 23.0393 36.8564 23.1042 36.7092 23.2908ZM24.7193 32.5853C26.1494 35.9193 27.3195 38.6792 27.3194 38.7186C27.3193 38.7581 26.242 38.7902 24.9255 38.7902H22.5319V37.3212C22.5319 36.0281 22.5104 35.8257 22.3527 35.6315C22.2231 35.4718 22.0742 35.4109 21.8138 35.4109C21.5534 35.4109 21.4045 35.4718 21.2748 35.6315C21.1171 35.8257 21.0957 36.0281 21.0957 37.3212V38.7902H18.8935C17.6824 38.7902 16.6914 38.7652 16.6914 38.7346C16.6914 38.5456 21.9964 26.383 22.0513 26.4459C22.0886 26.4886 23.2892 29.2514 24.7193 32.5853ZM35.2205 34.7755C33.4536 38.8864 33.3103 39.312 33.5455 39.7501C33.7786 40.1844 34.042 40.2221 36.8411 40.2221H39.4789V41.8927V43.5633H35.0267H30.5745V39.2256V34.8881L31.0293 34.8205C32.7356 34.5669 34.2998 33.75 35.4923 32.4897C36.0714 31.8777 36.2387 31.6562 36.7428 30.8349C36.8343 30.6859 36.9282 30.5831 36.9516 30.6065C36.975 30.6298 36.196 32.5059 35.2205 34.7755ZM27.8048 34.6306C28.0379 34.7054 28.4338 34.7941 28.6845 34.8275L29.1403 34.8884L29.1154 39.202L29.0905 43.5155L25.8112 43.5406L22.5319 43.5657V41.8979V40.23L25.4924 40.2022L28.453 40.1744L28.6985 39.9443C29.1852 39.4881 29.1486 39.2928 28.1305 36.9111C27.6185 35.7133 27.1787 34.6795 27.1533 34.6138C27.0931 34.4581 27.2827 34.463 27.8048 34.6306ZM15.4467 37.8815C15.4467 37.9067 15.3331 38.2029 15.1944 38.5397C14.9122 39.225 14.9314 39.4853 15.2953 39.9074L15.5256 40.1744L18.3106 40.2024L21.0957 40.2304V41.8968V43.5633H17.4574H13.819V40.6994V37.8356H14.6329C15.0805 37.8356 15.4467 37.8563 15.4467 37.8815Z" fill="white" stroke="white" stroke-width="0.2"/>
</svg>
