<svg width="49" height="46" viewBox="0 0 49 46" fill="none" xmlns="http://www.w3.org/2000/svg">
<path fill-rule="evenodd" clip-rule="evenodd" d="M36.5886 0.222638C36.4796 0.342263 36.1497 0.92715 35.8554 1.52247C35.2516 2.74423 35.4831 2.59794 33.7541 2.85101C32.7098 3.00387 32.4367 3.13529 32.2579 3.57108C32.0543 4.06726 32.2021 4.34207 33.2029 5.32796L34.1429 6.25404L33.9339 7.49947C33.8189 8.18447 33.7434 8.84289 33.7659 8.96251C33.7886 9.08224 33.916 9.28989 34.0488 9.4241C34.44 9.81892 34.8276 9.75476 36.1101 9.08291L37.227 8.49793L38.3154 9.08291C39.6034 9.77515 39.961 9.82714 40.3985 9.38555C40.7347 9.04619 40.7385 8.94908 40.4743 7.44015L40.2702 6.27462L41.2401 5.27974C42.1103 4.38719 42.21 4.24882 42.21 3.9342C42.21 3.6879 42.1317 3.49532 41.9468 3.28718C41.6998 3.00919 41.6039 2.97904 40.3974 2.80066C39.6899 2.69611 39.1025 2.60055 39.092 2.58818C39.0814 2.57591 38.81 2.03508 38.4887 1.38623C38.1675 0.73747 37.8209 0.161376 37.7183 0.105911C37.3825 -0.0753621 36.806 -0.0158394 36.5886 0.222638ZM37.4847 3.68471C37.7799 4.2322 38.0277 4.39927 38.6932 4.50005C38.9426 4.53774 39.1467 4.59185 39.1467 4.62016C39.1467 4.64848 38.9528 4.88077 38.7159 5.13644C38.259 5.62944 38.2233 5.77554 38.3711 6.54634L38.4489 6.9515L37.9873 6.71544C37.4039 6.41705 37.0588 6.41773 36.4706 6.71863L36.0027 6.95797L36.056 6.24544L36.1094 5.53291L35.6631 5.05132L35.2167 4.56963L35.7467 4.50276C36.3731 4.42382 36.7352 4.15693 36.99 3.58654C37.0864 3.37057 37.1777 3.19394 37.1927 3.19394C37.2078 3.19394 37.3392 3.41473 37.4847 3.68471ZM13.2695 6.78926C13.0589 6.86492 12.5018 7.64016 10.7114 10.3495C9.18096 12.6654 8.38735 13.9539 8.31642 14.238C8.18642 14.759 8.32168 15.363 8.67349 15.8324L8.91215 16.1506L7.03382 19.0336C5.2273 21.8066 4.96978 22.2779 4.97189 22.8087C4.97275 23.038 5.31757 23.8413 5.55517 24.1678C5.64516 24.2914 5.29814 24.8818 3.62391 27.4532C1.4269 30.8276 1.30331 31.0849 1.50789 31.857C1.66756 32.4596 1.96031 32.8198 2.51918 33.1009L2.99822 33.3418H6.80857H10.619V35.999V38.6563L7.57958 38.6575C5.21992 38.6583 4.42259 38.6902 4.01439 38.7998C2.54953 39.1933 1.27727 40.2433 0.592799 41.6236C0.129369 42.5582 -0.0392125 43.4329 0.00750393 44.66C0.038712 45.4781 0.0579538 45.5486 0.309437 45.7668L0.578057 46H24.4999H48.4218L48.6904 45.7668C48.9422 45.5484 48.9611 45.4785 48.9925 44.6542C49.0381 43.4585 48.8788 42.6283 48.4187 41.6641C47.7426 40.2469 46.4923 39.2046 44.9819 38.7988C44.6124 38.6996 43.9208 38.6582 42.6169 38.6575L40.7741 38.6563V36.8204V34.9844L43.9571 34.9821C45.7078 34.9809 47.3091 34.9403 47.5157 34.892C48.4269 34.6786 48.9516 33.8632 48.7782 32.93C48.744 32.7464 48.0922 31.646 47.2845 30.4085L45.8514 28.2131L46.0411 27.8558C46.1594 27.633 46.2307 27.3125 46.2307 27.0036C46.2307 26.5301 46.1719 26.4174 44.8888 24.4317L43.5469 22.3549L43.7379 21.9299C43.9641 21.4268 43.981 21.0828 43.8011 20.6482C43.7285 20.4727 42.9335 19.2166 42.0344 17.857C40.9328 16.1909 40.3283 15.3619 40.1805 15.3145C39.8207 15.1993 39.4272 15.2487 39.2197 15.4353C39.0136 15.6206 36.1274 19.9371 35.8582 20.4625C35.6395 20.8895 35.6555 21.6226 35.892 22.0142L36.0829 22.3304L34.8276 24.2274C34.1371 25.2708 33.5125 26.2686 33.4397 26.4447C33.2553 26.89 33.2742 27.3415 33.4955 27.7795C33.5991 27.9846 33.6548 28.2004 33.6194 28.259C33.5839 28.3175 32.924 29.2568 32.153 30.3463C31.382 31.4358 30.6967 32.4313 30.6303 32.5584C30.4525 32.8988 30.5482 33.7321 30.807 34.0991C30.9253 34.2668 31.2239 34.5237 31.4705 34.67L31.919 34.9361L35.3913 34.9658L38.8637 34.9955L38.8376 36.8017L38.8116 38.608L32.3259 38.6328L25.8401 38.6576V33.4409V28.2242L26.0555 28.1846C28.6093 27.7152 30.1057 27.0479 31.7071 25.6642C36.3203 21.678 36.591 14.5479 32.2946 10.1926C30.9336 8.81293 29.34 7.89903 27.3789 7.37338C26.5964 7.1636 26.2454 7.12639 24.9786 7.11876C24.0877 7.11335 23.2652 7.15973 22.9204 7.235C20.6763 7.72433 18.9385 8.63968 17.4582 10.1119C17.1069 10.4613 16.7867 10.711 16.7467 10.6666C16.7068 10.6223 16.1575 9.80327 15.5262 8.84666C14.8948 7.89004 14.2971 7.03711 14.1978 6.95121C13.95 6.7367 13.5906 6.67398 13.2695 6.78926ZM26.365 9.13896C28.0413 9.43406 29.5081 10.1953 30.7859 11.4336C32.0523 12.6607 32.9077 14.1897 33.2659 15.8664C33.4585 16.7671 33.4642 18.4935 33.2777 19.3807C32.5568 22.8111 29.8864 25.4683 26.4863 26.1382L25.8401 26.2655V24.2271V22.1886L27.3718 20.6323C28.7913 19.19 28.9035 19.05 28.9035 18.7217C28.9035 18.1857 28.4737 17.7408 27.9558 17.7408C27.5891 17.7408 27.5055 17.7985 26.7015 18.6062L25.8401 19.4716V17.3689C25.8401 15.1105 25.7826 14.7694 25.3503 14.4637C24.9936 14.2115 24.5286 14.2623 24.2054 14.5886L23.9255 14.871V20.5312C23.9255 26.0793 23.9218 26.1913 23.7388 26.1913C23.636 26.1913 23.345 26.1465 23.092 26.0917C22.6483 25.9957 22.6122 25.9612 22.0729 25.1175L21.5137 24.2429L21.7033 24.0334C22.2053 23.4787 22.3589 22.5255 22.045 21.9128C21.9585 21.7438 21.0744 20.3755 20.0804 18.8719L18.2732 16.1382L18.5149 15.8752C18.8432 15.5177 18.9775 15.0584 18.9284 14.4606C18.8963 14.0703 18.7888 13.8068 18.4388 13.2606C18.1921 12.8757 17.9903 12.5188 17.9903 12.4675C17.9903 12.2751 19.3552 10.9332 19.9769 10.5144C20.7904 9.96628 21.2204 9.75051 22.0429 9.47744C23.4917 8.99662 24.9205 8.88463 26.365 9.13896ZM15.3938 12.1065C16.2953 13.4742 17.033 14.6156 17.033 14.643C17.033 14.6703 16.888 14.6926 16.7109 14.6926C16.2394 14.6926 15.8842 15.0824 15.8843 15.5996C15.8843 15.957 16.1065 16.3335 18.086 19.3308L20.2878 22.6644L16.8992 22.7127C13.1341 22.7665 13.238 22.7471 13.013 23.4352C12.8858 23.8242 12.9989 24.1581 13.3531 24.4394C13.605 24.6393 13.6971 24.6453 16.5468 24.6453H19.4813L21.6316 27.9444C22.8143 29.759 23.7963 31.2809 23.8138 31.3264C23.8314 31.3721 19.2488 31.4092 13.5966 31.4092H3.34754L4.14497 30.1772C4.58351 29.4997 5.65952 27.8427 6.53622 26.4953C8.18871 23.9551 8.30302 23.7026 8.03143 23.1906C7.91473 22.9703 7.45427 22.7127 7.17751 22.7127C7.06953 22.7127 6.98127 22.6941 6.98127 22.6712C6.98127 22.6484 7.86112 21.2837 8.93656 19.6386L10.8919 16.6476L11.9145 16.6094C12.9273 16.5716 12.94 16.5682 13.2141 16.2585C13.5933 15.8301 13.5921 15.3597 13.2111 14.9751L12.9313 14.6926H11.5735C10.4384 14.6926 10.2242 14.6701 10.2679 14.5551C10.4125 14.1748 13.6138 9.4644 13.6788 9.53619C13.7204 9.58209 14.4922 10.7387 15.3938 12.1065ZM40.7725 19.4251C41.2999 20.221 41.7314 20.8916 41.7314 20.9154C41.7314 20.9391 41.6021 21.089 41.4442 21.2484C40.9127 21.7849 40.9734 21.9505 42.6366 24.5016L44.1163 26.7711H42.7339H41.3515L41.0411 27.0511C40.6222 27.4288 40.6021 27.9941 40.9936 28.3896C41.2513 28.65 41.283 28.6559 42.5709 28.6863L43.8853 28.7175L45.1957 30.7155C45.9164 31.8146 46.5349 32.7898 46.5701 32.8828C46.6307 33.0429 46.2611 33.0519 39.6299 33.0519C34.0528 33.0519 32.6401 33.0272 32.6963 32.9311C32.735 32.8647 33.4887 31.7876 34.3712 30.5376C35.2536 29.2877 36.0169 28.155 36.0677 28.0205C36.2033 27.6602 36.0969 27.283 35.7847 27.0179C35.6331 26.889 35.5089 26.7582 35.5089 26.7273C35.5089 26.6964 36.1054 25.7694 36.8344 24.6675C37.5635 23.5656 38.2339 22.5196 38.3243 22.343C38.5348 21.9322 38.4487 21.5015 38.088 21.1613L37.8195 20.9081L38.7847 19.443C39.3155 18.6373 39.7643 17.978 39.7818 17.978C39.7994 17.978 40.2452 18.6291 40.7725 19.4251ZM14.6397 36.0023V38.6629L13.6106 38.6354L12.5815 38.608L12.556 35.9749L12.5306 33.3418H13.5851H14.6397V36.0023ZM23.9031 35.9749L23.8777 38.608H20.2399H16.6022L16.5767 35.9749L16.5512 33.3418H20.2399H23.9286L23.9031 35.9749ZM44.806 40.7775C45.4948 41.0417 45.9882 41.4108 46.3886 41.9613C46.7315 42.4327 47.0923 43.3933 47.0923 43.8345V44.0674H24.4999H1.90756V43.8435C1.90756 43.4151 2.20968 42.5668 2.53325 42.0866C2.938 41.4858 3.41215 41.1016 4.10227 40.815L4.63587 40.5934L24.4749 40.5912C43.9239 40.5888 44.3238 40.5925 44.806 40.7775Z" fill="white"/>
</svg>
