<svg width="48" height="46" viewBox="0 0 48 46" fill="none" xmlns="http://www.w3.org/2000/svg">
<path fill-rule="evenodd" clip-rule="evenodd" d="M14.1442 1.05963C13.9995 1.11716 13.8295 1.29988 13.7665 1.46551C13.6054 1.88941 13.638 5.19554 13.8166 6.51722C13.8985 7.12454 13.9491 7.64154 13.9288 7.66607C13.9086 7.69048 12.9262 7.33945 11.7456 6.8858C8.38535 5.59468 5.96585 4.75083 5.44443 4.6883C5.03924 4.6396 4.9373 4.67226 4.77609 4.90252C4.50701 5.28667 4.53397 5.59108 4.9817 7.22392C5.96224 10.7994 7.68017 14.0876 10.1992 17.2106C11.2907 18.5639 13.3699 20.6358 14.677 21.6727C15.145 22.044 15.5048 22.4079 15.4767 22.4816C14.0454 26.2269 13.6807 30.4505 14.4263 34.6456C14.5343 35.2529 14.6265 35.8754 14.6312 36.0289C14.6396 36.2956 14.35 36.4048 8.12836 38.4806C4.54688 39.6755 1.50076 40.7153 1.35907 40.791C0.879496 41.0477 0.880543 41.8433 1.36082 42.1003C1.75787 42.3128 4.86373 43.1901 6.80423 43.6379C17.402 46.0836 27.5452 45.3409 35.2135 41.5577L36.9575 40.6974L41.7621 40.6645L46.5666 40.6316L46.7887 40.3571C47.0836 39.9928 47.0693 39.6208 46.7493 39.3316C46.5866 39.1846 45.0169 38.6451 42.594 37.9036C40.4524 37.2481 38.3817 36.6136 37.9924 36.4934C37.3184 36.2854 37.2778 36.2516 37.1396 35.78C36.3803 33.1891 33.6355 31.1667 30.8699 31.1603C30.2183 31.1588 30.1377 31.1343 30.1949 30.9552C30.2306 30.8434 30.447 30.2213 30.6758 29.5729C31.3598 27.6342 31.8932 24.7592 31.8982 22.983C31.9002 22.3143 31.8193 21.9824 31.3886 20.8908C30.4524 18.5177 29.7754 15.9979 29.6175 14.298C29.5302 13.3582 29.2717 12.8867 28.133 11.5897C26.3727 9.58484 21.1454 5.37349 16.3253 2.07724C14.7481 0.998487 14.5409 0.901897 14.1442 1.05963ZM16.7027 4.27149C20.6759 7.08583 24.0729 9.80615 26.0451 11.753C27.8111 13.4964 27.8983 13.6379 28.1184 15.1185C28.3165 16.4507 28.789 18.3163 29.3354 19.9241C29.6349 20.8054 29.6563 20.9417 29.4851 20.8788C29.3751 20.8385 28.7968 20.6136 28.1997 20.379C27.1864 19.9811 27.0934 19.9642 26.8049 20.1254C26.5621 20.2611 26.4883 20.3994 26.4608 20.7695C26.4399 21.0535 26.4861 21.2903 26.5771 21.3655C26.6602 21.4341 27.5127 21.803 28.4717 22.1852L30.2152 22.88L30.2515 23.3705C30.3 24.0248 29.9794 26.1795 29.6236 27.5901C29.2963 28.8883 28.7865 30.2399 28.2893 31.1278C27.8882 31.844 27.8653 32.1213 28.1811 32.4371C28.3832 32.6393 28.5692 32.6697 29.6049 32.6705C31.8861 32.6722 33.2026 33.0874 34.2732 34.143C35.4525 35.3055 35.8525 36.34 35.8525 38.2273V39.4917L34.3227 40.2205C27.5573 43.4435 18.6751 44.2705 9.35136 42.5456C7.75269 42.2498 4.58581 41.483 4.58581 41.3916C4.58581 41.3523 7.24022 40.4441 10.4846 39.3733C15.2386 37.8043 16.9474 37.1824 19.2893 36.1683C21.7243 35.1141 22.2119 34.8632 22.299 34.6199C22.4582 34.1746 22.3017 33.7641 21.9109 33.6022C21.5897 33.4691 21.4015 33.5294 19.2214 34.4639C17.9321 35.0166 16.8501 35.4417 16.817 35.4084C16.7249 35.3164 16.9986 32.1435 17.1994 30.9732C17.6011 28.6333 18.2778 26.5262 19.2418 24.6146C19.7505 23.6058 20.9391 21.8009 21.3243 21.4523C21.7099 21.1033 21.6289 20.5269 21.1061 19.9002C18.3804 16.632 16.1 11.3584 15.4699 6.86592C15.2705 5.44556 15.1141 3.2627 15.2115 3.2627C15.2483 3.2627 15.9194 3.71671 16.7027 4.27149ZM8.88643 7.50497C11.6242 8.50004 14.1472 9.51835 14.2994 9.6898C14.3677 9.76686 14.5456 10.2744 14.6947 10.8178C15.0914 12.2644 16.0152 14.589 16.8103 16.1419C17.3605 17.2166 18.7196 19.3857 19.6374 20.654C19.7141 20.76 19.7141 20.8681 19.6374 20.9751C17.7878 23.553 16.686 26.0067 15.9255 29.2407L15.6248 30.5193L15.684 29.1718C15.783 26.9145 16.2112 24.9042 16.9786 23.0939C17.2193 22.5261 17.3533 22.0476 17.3153 21.8918C17.2805 21.7494 16.8998 21.3664 16.4691 21.0406C11.9847 17.6485 8.56586 13.0136 6.90815 8.07939C6.65371 7.32202 6.44554 6.68134 6.44554 6.65554C6.44554 6.62974 6.53701 6.64392 6.64895 6.68716C6.76088 6.73039 7.76769 7.09839 8.88643 7.50497ZM35.3474 8.35707C35.0921 8.63917 35.1027 9.22347 35.3676 9.46314C35.8568 9.90576 36.6661 9.56717 36.6661 8.91987C36.6661 8.26583 35.7745 7.88517 35.3474 8.35707ZM37.372 17.6332C37.0364 18.0596 37.0693 18.309 37.527 18.8085L37.9229 19.2405L37.527 19.6789C37.0573 20.1988 37.0302 20.4912 37.4164 20.8772C37.8024 21.2633 38.0948 21.2363 38.6147 20.7666L39.053 20.3707L39.4851 20.7666C39.9845 21.2243 40.234 21.2572 40.6604 20.9216C41.0758 20.595 41.0568 20.1625 40.6029 19.6119L40.2392 19.1706L40.6029 18.7954C41.0276 18.3572 41.0761 17.9012 40.7342 17.5593C40.4033 17.2284 39.992 17.2713 39.5199 17.6858L39.1112 18.0446L38.6757 17.6858C38.1311 17.2368 37.6974 17.2194 37.372 17.6332ZM5.92912 18.7476C5.3139 19.6258 6.53306 20.4972 7.17281 19.6364C7.5594 19.1162 7.1928 18.4892 6.50191 18.4892C6.22877 18.4892 6.05523 18.5674 5.92912 18.7476ZM6.91047 23.258C6.02989 23.4126 5.35818 24 5.06679 24.8703C4.86733 25.466 4.90743 25.9231 5.21742 26.589C5.60215 27.4152 6.22202 27.8207 7.19512 27.8827C8.29143 27.9524 9.1125 27.458 9.52013 26.4823C10.2348 24.7718 8.74834 22.9352 6.91047 23.258ZM7.84033 24.9982C8.53587 25.6938 7.64646 26.7644 6.87641 26.1587C6.48948 25.8543 6.46483 25.407 6.81446 25.0347C7.12515 24.7042 7.53174 24.6896 7.84033 24.9982ZM6.87641 33.7176C6.45647 34.0479 6.45286 34.5431 6.86805 34.8696C7.25313 35.1726 7.54336 35.175 7.84033 34.878C8.53587 34.1825 7.64646 33.1119 6.87641 33.7176ZM31.4759 34.4676C31.1528 34.694 31.085 35.0009 31.2643 35.427C31.4602 35.8933 31.946 36.022 32.357 35.7165C32.7576 35.4188 32.806 34.9327 32.4703 34.5754C32.1716 34.2575 31.8291 34.2203 31.4759 34.4676ZM39.2813 38.5505C40.0485 38.7833 40.6978 38.9937 40.7246 39.0181C40.7512 39.0424 40.032 39.0624 39.1264 39.0624H37.4797V38.5316C37.4797 38.0793 37.5098 38.0101 37.6831 38.064C37.7949 38.0989 38.5142 38.3178 39.2813 38.5505Z" fill="white" stroke="white" stroke-width="0.2"/>
</svg>
