<svg width="197" height="49" viewBox="0 0 197 49" fill="none" xmlns="http://www.w3.org/2000/svg">
<path d="M26.1075 31.0694C26.1075 32.0586 24.9946 33.1561 22.7687 34.3618C20.5738 35.5675 17.9924 36.1703 15.0246 36.1703C10.6965 36.1703 7.1104 34.4236 4.26624 30.9303C1.42208 27.406 0 23.1243 0 18.0852C0 13.0151 1.43754 8.73343 4.31261 5.24006C7.18769 1.74669 10.7893 0 15.1173 0C17.6833 0 19.9864 0.47918 22.0268 1.43754C24.0672 2.3959 25.0874 3.47792 25.0874 4.68359C25.0874 5.17823 24.9328 5.56466 24.6236 5.8429C24.3454 6.12113 23.9435 6.26025 23.418 6.26025C22.9233 6.26025 22.3205 6.01293 21.6094 5.51829C20.9293 5.02365 20.0482 4.52902 18.9662 4.03438C17.9151 3.50883 16.6322 3.24605 15.1173 3.24605C11.8095 3.24605 9.08895 4.71451 6.95583 7.65141C4.82271 10.5574 3.75615 14.0044 3.75615 17.9924C3.75615 21.9495 4.82271 25.4274 6.95583 28.4262C9.08895 31.4249 11.794 32.9243 15.071 32.9243C16.5858 32.9243 17.946 32.7697 19.1517 32.4605C20.3883 32.1205 21.3158 31.765 21.934 31.394C22.5523 31.023 23.1243 30.6829 23.6498 30.3738C24.1754 30.0337 24.5773 29.8637 24.8555 29.8637C25.6902 29.8637 26.1075 30.2656 26.1075 31.0694Z" fill="white"/>
<path d="M45.4629 24.2527C45.4629 26.5713 45.6329 28.4725 45.973 29.9564C46.313 31.4094 46.7149 32.2287 47.1786 32.4142C47.3641 32.5069 47.5805 32.5687 47.8279 32.5997C48.1061 32.6306 48.2916 32.6769 48.3843 32.7388C48.508 32.8006 48.5698 32.9243 48.5698 33.1098C48.5698 33.9445 48.3379 34.6246 47.8742 35.1501C47.4414 35.6757 46.7767 35.9385 45.8802 35.9385C44.9837 35.9385 44.2881 35.3665 43.7935 34.2227C43.2988 33.0788 43.0515 31.6104 43.0515 29.8173C42.2786 31.5486 41.1348 33.0015 39.62 34.1763C38.1361 35.3511 36.4512 35.9385 34.5654 35.9385C32.7105 35.9385 31.1029 35.3202 29.7427 34.0836C27.2695 31.8268 26.0329 28.5962 26.0329 24.3918C26.0329 21.0221 27.0067 18.0852 28.9544 15.5811C30.902 13.077 33.4061 11.8249 36.4667 11.8249C38.7853 11.8249 40.7947 12.6132 42.495 14.1899C42.495 12.6132 43.0824 11.8249 44.2572 11.8249C45.6793 11.8249 46.3903 12.9224 46.3903 15.1173C46.3903 17.2814 46.0812 20.3265 45.4629 24.2527ZM42.7733 24.67L42.5414 17.5287C40.6865 15.7356 38.7389 14.8391 36.6985 14.8391C34.6891 14.8391 32.9578 15.7511 31.5048 17.5751C30.0518 19.399 29.3253 21.594 29.3253 24.1599C29.3253 26.6949 29.7891 28.7971 30.7165 30.4665C31.6749 32.105 33.0197 32.9243 34.7509 32.9243C36.4821 32.9243 38.0588 32.1514 39.4809 30.6056C40.9029 29.0599 42.0004 27.0814 42.7733 24.67Z" fill="white"/>
<path d="M53.3132 18.0852L53.545 33.6198C53.545 35.1656 52.9577 35.9385 51.7829 35.9385C50.6081 35.9385 50.0207 35.1656 50.0207 33.6198L50.2526 18.0852L50.0207 2.55047C50.0207 1.00473 50.6081 0.231861 51.7829 0.231861C52.9577 0.231861 53.545 1.00473 53.545 2.55047L53.3132 18.0852Z" fill="white"/>
<path d="M90.0693 20.8675L89.8374 28.1479C89.8374 29.0135 89.8374 29.6782 89.8374 30.1419C89.8683 30.5747 89.9611 31.0385 90.1157 31.5331C90.3012 31.9968 90.5176 32.2905 90.7649 32.4142C91.0122 32.5069 91.2595 32.5687 91.5068 32.5997C91.7851 32.6306 91.9706 32.6769 92.0633 32.7388C92.187 32.8006 92.2488 32.9243 92.2488 33.1098C92.2488 33.9135 91.986 34.5937 91.4605 35.1501C90.9658 35.6757 90.3784 35.9385 89.6983 35.9385C88.5236 35.9385 87.7043 35.4747 87.2406 34.5473C86.8078 33.6198 86.5914 32.2596 86.5914 30.4665L86.7769 21.934C86.7769 19.8318 86.3595 18.1315 85.5248 16.8331C84.721 15.5347 83.5772 14.8855 82.0933 14.8855C80.6403 14.8855 79.2182 15.7665 77.827 17.5287C76.4359 19.2908 75.4621 21.2848 74.9056 23.5107L75.0447 33.5735C75.0447 35.1501 74.4573 35.9385 73.2826 35.9385C71.8605 35.9385 71.1494 34.8564 71.1494 32.6924C71.1494 30.4974 71.4586 27.4369 72.0769 23.5107C72.0769 17.7606 70.5002 14.8855 67.3469 14.8855C65.8939 14.8855 64.4718 15.7665 63.0807 17.5287C61.6895 19.2908 60.7157 21.2848 60.1592 23.5107L60.2983 33.5735C60.2983 35.1501 59.711 35.9385 58.5362 35.9385C57.1141 35.9385 56.4031 34.8564 56.4031 32.6924C56.4031 30.4974 56.7122 27.4369 57.3305 23.5107C57.3305 22.2123 57.1914 20.4192 56.9132 18.1315C56.6659 15.8438 56.5422 14.4372 56.5422 13.9117C56.5422 13.3552 56.6968 12.876 57.0059 12.4741C57.346 12.0413 57.7942 11.8249 58.3507 11.8249C58.9072 11.8249 59.34 12.0413 59.6491 12.4741C59.9892 12.876 60.1592 13.3397 60.1592 13.8653C60.1592 14.3908 60.1438 15.04 60.1129 15.8129C60.1129 16.5549 60.1129 17.1886 60.1129 17.7142C62.2151 13.788 64.8428 11.8249 67.9961 11.8249C69.8201 11.8249 71.304 12.3659 72.4479 13.4479C73.6226 14.499 74.4264 15.9211 74.8592 17.7142C76.9614 13.788 79.5892 11.8249 82.7425 11.8249C85.0611 11.8249 86.8542 12.706 88.1217 14.4681C89.4201 16.2303 90.0693 18.3634 90.0693 20.8675Z" fill="white"/>
<path d="M105.054 17.8941L104.824 2.39818C104.824 1.72177 105.008 1.15297 105.377 0.69178C105.746 0.230593 106.207 0 106.761 0C107.745 0 108.482 0.415069 108.974 1.24521C109.251 1.67565 111.511 5.71872 115.754 13.3744C120.028 20.9994 122.841 25.9033 124.194 28.0863V17.8941C124.194 12.698 124.147 8.87017 124.055 6.4105C123.994 3.95084 123.963 2.49041 123.963 2.02922C123.963 1.56804 124.147 1.12222 124.516 0.69178C124.885 0.230593 125.331 0 125.854 0C126.377 0 126.822 0.230593 127.191 0.69178C127.56 1.12222 127.745 1.56804 127.745 2.02922C127.745 2.49041 127.729 3.4589 127.699 4.9347C127.576 8.37823 127.514 12.698 127.514 17.8941L127.606 33.1594C127.606 33.8665 127.407 34.4353 127.007 34.8657C126.638 35.2962 126.115 35.5114 125.439 35.5114C124.762 35.5114 124.178 35.0963 123.686 34.2662C123.533 34.0202 122.964 33.021 121.98 31.2685C118.998 25.7957 116.768 21.8295 115.293 19.3699C113.848 16.8795 112.464 14.4352 111.142 12.037C109.82 9.60807 108.898 7.97854 108.375 7.1484V17.8941L108.605 33.1594C108.605 33.8358 108.421 34.4046 108.052 34.8657C107.683 35.2962 107.237 35.5114 106.715 35.5114C106.192 35.5114 105.746 35.2962 105.377 34.8657C105.008 34.4046 104.824 33.8358 104.824 33.1594L105.054 17.8941Z" fill="white"/>
<path d="M146.359 30.0233C147.866 28.2093 148.619 26.0263 148.619 23.4744C148.619 20.9225 147.896 18.7549 146.451 16.9717C145.037 15.1884 143.269 14.2968 141.148 14.2968C139.026 14.2968 137.212 15.2038 135.706 17.0178C134.23 18.8318 133.492 21.0148 133.492 23.5667C133.492 26.1186 134.199 28.2861 135.613 30.0694C137.058 31.8527 138.842 32.7443 140.963 32.7443C143.085 32.7443 144.883 31.8373 146.359 30.0233ZM141.055 11.2991C144.222 11.2991 146.82 12.4828 148.849 14.8502C150.879 17.1869 151.893 20.0616 151.893 23.4744C151.893 26.8872 150.863 29.7927 148.803 32.1909C146.743 34.5583 144.145 35.742 141.009 35.742C137.873 35.742 135.291 34.5737 133.261 32.237C131.232 29.8696 130.217 26.9794 130.217 23.5667C130.217 20.1539 131.232 17.2638 133.261 14.8963C135.321 12.4982 137.919 11.2991 141.055 11.2991Z" fill="white"/>
<path d="M156.99 23.5205L157.221 33.2055C157.221 34.7428 156.637 35.5114 155.469 35.5114C154.3 35.5114 153.716 34.7428 153.716 33.2055L153.947 23.5205L153.716 13.8356C153.716 12.2983 154.3 11.5297 155.469 11.5297C156.637 11.5297 157.221 12.2983 157.221 13.8356L156.99 23.5205Z" fill="white"/>
<path d="M176.113 28.4091C176.113 30.4998 175.252 32.2062 173.53 33.5283C171.839 34.8504 169.795 35.5114 167.396 35.5114C165.029 35.5114 162.969 34.9734 161.216 33.8973C159.464 32.7904 158.588 31.6989 158.588 30.6228C158.588 30.1616 158.726 29.7927 159.003 29.516C159.279 29.2085 159.587 29.0548 159.925 29.0548C160.294 29.0548 160.586 29.1317 160.801 29.2854C161.017 29.4084 161.309 29.6697 161.678 30.0694C162.047 30.4691 162.369 30.8073 162.646 31.084C162.954 31.3607 163.553 31.6682 164.445 32.0064C165.367 32.3446 166.213 32.5137 166.981 32.5137C168.672 32.5137 170.056 32.1755 171.132 31.4991C172.239 30.7919 172.792 29.7773 172.792 28.4552C172.792 26.8565 171.255 25.519 168.18 24.4429C166.92 24.0125 165.644 23.5513 164.353 23.0594C163.092 22.5367 162.016 21.8295 161.124 20.9379C160.233 20.0463 159.787 18.9855 159.787 17.7557C159.787 16.0954 160.54 14.6504 162.047 13.4205C163.553 12.16 165.398 11.5297 167.581 11.5297C169.764 11.5297 171.486 11.914 172.746 12.6826C174.037 13.4205 174.683 14.2046 174.683 15.0347C174.683 16.0493 174.145 16.5566 173.069 16.5566C172.608 16.5566 172.147 16.3875 171.685 16.0493C170.24 15.0347 168.857 14.5274 167.535 14.5274C166.213 14.5274 165.137 14.8349 164.306 15.4498C163.476 16.0339 163.061 16.7257 163.061 17.5251C163.061 18.2938 163.507 18.9548 164.399 19.5082C165.29 20.0616 166.366 20.5689 167.627 21.0301C168.918 21.4913 170.21 22.014 171.501 22.5982C172.792 23.1516 173.884 23.9356 174.775 24.9502C175.667 25.9341 176.113 27.0871 176.113 28.4091Z" fill="white"/>
<path d="M186.678 22.6443C188.768 22.6443 190.429 22.2907 191.658 21.5836C192.919 20.8764 193.549 19.9233 193.549 18.7242C193.549 17.5251 193.134 16.4951 192.304 15.6342C191.505 14.7426 190.352 14.2968 188.845 14.2968C186.816 14.2968 185.11 15.0654 183.726 16.6027C182.342 18.1093 181.451 19.8772 181.051 21.9064C182.742 22.3983 184.618 22.6443 186.678 22.6443ZM188.43 11.2991C190.921 11.2991 192.934 11.9909 194.472 13.3744C196.04 14.758 196.824 16.5566 196.824 18.7703C196.824 20.984 195.855 22.675 193.918 23.8434C192.012 24.981 189.66 25.5498 186.862 25.5498C185.263 25.5498 183.311 25.3192 181.005 24.858C181.189 27.0102 181.989 28.8703 183.403 30.4384C184.848 31.9756 186.447 32.7443 188.2 32.7443C189.245 32.7443 190.213 32.6059 191.105 32.3292C191.997 32.0218 192.673 31.6989 193.134 31.3607C194.364 30.4076 195.163 29.931 195.532 29.931C195.932 29.931 196.24 30.054 196.455 30.3C196.701 30.5152 196.824 30.7919 196.824 31.1301C196.824 31.991 195.932 32.9749 194.149 34.0817C192.396 35.1886 190.49 35.742 188.43 35.742C185.233 35.742 182.696 34.6198 180.821 32.3753C178.945 30.1309 177.93 27.4253 177.777 24.2584C176.147 23.7665 175.332 22.9671 175.332 21.8603C175.332 21.3991 175.455 21.0455 175.701 20.7995C175.978 20.5228 176.301 20.3845 176.67 20.3845C177.039 20.3845 177.5 20.5228 178.053 20.7995C178.73 18.0324 180.006 15.7572 181.881 13.974C183.788 12.1907 185.97 11.2991 188.43 11.2991Z" fill="white"/>
<path d="M157.129 1.10684C156.821 0.676402 156.345 0.461182 155.699 0.461182C155.053 0.461182 154.5 0.737894 154.039 1.29132C153.608 1.814 153.393 2.42891 153.393 3.13607C153.393 3.84322 153.547 4.41202 153.854 4.84246C154.192 5.2729 154.684 5.48812 155.33 5.48812C155.976 5.48812 156.514 5.18066 156.944 4.56574C157.375 3.92008 157.59 3.2898 157.59 2.67488C157.59 2.02922 157.436 1.50654 157.129 1.10684Z" fill="white"/>
<path fill-rule="evenodd" clip-rule="evenodd" d="M162.725 39.4483C162.88 39.4627 163.458 39.5121 164.009 39.558C168.956 39.9697 173.156 40.8551 174.965 41.8674C177.161 43.096 176.718 44.8188 173.935 45.8764C171.262 46.8924 167.033 47.5725 161.2 47.9249C159.081 48.053 152.571 48.0532 150.445 47.9254C145.165 47.6079 141.002 46.9853 138.366 46.1188C136.85 45.6206 135.742 44.9021 135.426 44.2129C134.779 42.8021 136.338 41.5945 139.936 40.7178C142.445 40.1066 146.288 39.5832 149.407 39.428L150.496 39.3738L150.671 39.5949C150.895 39.8769 150.892 40.0509 150.661 40.3173C150.478 40.5286 150.458 40.532 148.554 40.6793C143.376 41.0799 139.429 41.8424 137.449 42.8248C136.839 43.1278 136.48 43.436 136.48 43.6567C136.48 43.8113 136.998 44.2271 137.506 44.4805C141.887 46.6632 155.967 47.5375 166.417 46.2758C169.634 45.8875 172.496 45.2406 173.914 44.5819C174.577 44.2738 175.166 43.8387 175.166 43.6567C175.166 43.4513 174.836 43.152 174.306 42.8772C172.374 41.874 168.352 41.0878 163.051 40.6766C161.173 40.531 161.169 40.5302 160.978 40.3106C160.836 40.1472 160.801 40.0368 160.839 39.8828C160.944 39.4662 161.087 39.3955 161.795 39.4093C162.152 39.4163 162.571 39.4338 162.725 39.4483Z" fill="white" stroke="white" stroke-linejoin="round"/>
<ellipse cx="155.46" cy="43.6974" rx="7.92665" ry="1.44121" fill="white"/>
</svg>
