<svg width="45" height="45" viewBox="0 0 45 45" fill="none" xmlns="http://www.w3.org/2000/svg">
<path fill-rule="evenodd" clip-rule="evenodd" d="M13.2812 0.115252C13.0311 0.253768 12.8394 0.572723 12.8351 0.857313C12.8334 0.97034 13.4094 2.49305 14.115 4.2411C15.5117 7.70144 15.6277 7.90271 16.224 7.90271C16.653 7.90271 17.0508 7.50949 17.0508 7.08542C17.0508 6.89786 16.5626 5.57722 15.7732 3.62894C14.7842 1.18787 14.4366 0.421375 14.2338 0.234256C13.9467 -0.0306463 13.6183 -0.0716913 13.2812 0.115252ZM31.2451 0.160252C31.1484 0.201649 31.0044 0.309402 30.925 0.399666C30.6997 0.656043 28.125 6.8468 28.125 7.13235C28.125 7.27236 28.1657 7.463 28.2155 7.55598C28.3296 7.76921 28.7507 7.9906 29.0421 7.9906C29.5259 7.9906 29.7207 7.64704 31.1055 4.35158C31.8349 2.616 32.4316 1.08407 32.4316 0.947225C32.4316 0.434471 31.7149 -0.0409295 31.2451 0.160252ZM21.9199 2.13709L21.6211 2.43592V4.34314V6.25037L21.9199 6.5492C22.2397 6.86894 22.5058 6.92168 22.898 6.743C23.3321 6.54524 23.3789 6.3126 23.3789 4.35167C23.3789 2.39909 23.3365 2.17541 22.9267 1.9635C22.532 1.75942 22.2487 1.80829 21.9199 2.13709ZM8.15186 7.64607C7.90198 7.79162 7.71249 8.2432 7.77234 8.55056C7.84239 8.91082 10.2107 11.3692 10.5681 11.4529C11.1604 11.5914 11.7766 10.9742 11.6343 10.3849C11.5987 10.2373 11.0785 9.64172 10.2915 8.84754C9.06003 7.60485 8.99235 7.55124 8.65626 7.55379C8.46343 7.55528 8.23641 7.59677 8.15186 7.64607ZM36.2549 7.81605C35.9206 7.96424 33.6006 10.3105 33.5408 10.5607C33.4495 10.9434 33.6892 11.4019 34.062 11.5576C34.5861 11.7767 34.8172 11.6345 36.1941 10.2457C37.3518 9.07807 37.4414 8.96408 37.4414 8.65919C37.4414 8.2389 37.3246 8.02567 37.0037 7.85965C36.7178 7.71181 36.5164 7.70004 36.2549 7.81605ZM21.0059 8.52858C18.9481 8.76501 16.3194 9.64761 16.035 10.1975C15.8297 10.5945 15.8748 10.959 16.1651 11.2493C16.4878 11.572 16.8385 11.5829 17.4676 11.2899C18.1288 10.9821 19.4354 10.5771 20.3498 10.3966C21.5156 10.1664 23.6597 10.1862 24.8456 10.4382C29.9102 11.5141 33.5911 15.2532 34.5959 20.3424C34.8261 21.5082 34.8064 23.6523 34.5544 24.8382C33.4784 29.9026 29.7349 33.5878 24.6502 34.588C23.5724 34.7999 21.4276 34.7999 20.3498 34.588C19.1393 34.3498 17.9853 33.9499 16.875 33.3838C13.4925 31.6589 11.1712 28.5233 10.4038 24.6427C10.1751 23.486 10.1958 21.3392 10.4471 20.1469C10.6619 19.1278 11.06 17.9448 11.4446 17.1822C11.5889 16.8961 11.707 16.5252 11.707 16.3581C11.707 15.7063 11.0755 15.3024 10.4919 15.5807C10.2328 15.7042 10.1209 15.86 9.80227 16.5395C7.70467 21.014 8.09991 26.2015 10.8516 30.3124C11.8632 31.8236 13.1708 33.1313 14.6802 34.1412C20.5287 38.0544 28.2545 37.0733 32.988 31.8164C34.1495 30.5266 35.2574 28.6164 35.817 26.9389C37.1884 22.8283 36.5727 18.2994 34.1494 14.6728C31.2804 10.3789 26.0758 7.94604 21.0059 8.52858ZM13.1298 12.1197C12.8494 12.233 12.5684 12.6403 12.5684 12.9331C12.5684 13.3012 13.0686 13.7914 13.4443 13.7914C13.815 13.7914 14.033 13.664 14.1935 13.3537C14.4445 12.8682 14.3011 12.3888 13.8393 12.1696C13.5203 12.0183 13.4016 12.0099 13.1298 12.1197ZM0.420908 12.8156C0.0478125 13.1489 0.0178418 13.6774 0.353584 14.0018C0.626572 14.2657 6.78621 16.8676 7.13795 16.8676C7.27901 16.8676 7.47044 16.8269 7.56343 16.777C7.77665 16.6629 7.99805 16.2419 7.99805 15.9504C7.99805 15.4635 7.65773 15.2705 4.35718 13.8857C2.62063 13.1571 1.0887 12.5609 0.952822 12.5609C0.804551 12.5609 0.592031 12.6627 0.420908 12.8156ZM40.696 14.1369C37.2461 15.5445 37.0898 15.6346 37.0898 16.2201C37.0898 16.6468 37.4847 17.0433 37.9098 17.0433C38.1005 17.0433 39.4034 16.5628 41.3662 15.7683C44.6716 14.4306 45 14.2482 45 13.7502C45 13.2464 44.5874 12.8214 44.1035 12.8269C43.9923 12.8281 42.4589 13.4176 40.696 14.1369ZM30.2633 18.402C29.7368 18.6309 29.6742 19.0409 30.0089 20.0665C30.807 22.5113 30.3261 25.2793 28.7476 27.3265C28.3987 27.7791 28.3065 27.9677 28.3039 28.2342C28.2995 28.7109 28.6782 29.0844 29.1662 29.0844C29.6109 29.0844 29.897 28.8135 30.6021 27.725C32.1276 25.3704 32.5474 22.4944 31.7614 19.7823C31.4771 18.8011 31.3333 18.547 30.9785 18.3987C30.6197 18.2488 30.6152 18.2488 30.2633 18.402ZM2.40715 21.5215C2.30511 21.5641 2.13319 21.711 2.02526 21.8481C1.76353 22.1801 1.82268 22.7139 2.15279 22.9978C2.37595 23.1897 2.43958 23.1957 4.2627 23.1957C6.08581 23.1957 6.14944 23.1897 6.3726 22.9978C6.5257 22.8661 6.61887 22.6791 6.65104 22.4389C6.69314 22.1255 6.66448 22.0388 6.43333 21.7799L6.16711 21.4818L4.37994 21.4628C3.39697 21.4524 2.50928 21.4787 2.40715 21.5215ZM38.6274 21.9874C38.4743 22.119 38.3811 22.306 38.349 22.5462C38.3069 22.8597 38.3355 22.9462 38.5668 23.2052L38.8332 23.5033H40.7373H42.6414L42.9078 23.2052C43.1391 22.9462 43.1677 22.8597 43.1256 22.5462C43.0935 22.306 43.0003 22.119 42.8472 21.9874C42.6241 21.7954 42.5604 21.7894 40.7373 21.7894C38.9142 21.7894 38.8506 21.7954 38.6274 21.9874ZM3.60352 29.2271C0.328359 30.5628 0 30.7465 0 31.2434C0 31.7341 0.413262 32.1605 0.88875 32.1605C0.986309 32.1605 2.49724 31.5838 4.24644 30.879C7.8242 29.4373 7.96896 29.3504 7.8815 28.6985C7.81857 28.2288 7.49707 27.9393 7.0483 27.9482C6.84404 27.9522 5.56673 28.4264 3.60352 29.2271ZM37.4194 28.2125C37.2175 28.3301 37.002 28.7546 37.002 29.0347C37.002 29.5201 37.3437 29.7138 40.6433 31.0987C42.3801 31.8278 43.9121 32.4242 44.0476 32.4242C44.1954 32.4242 44.4082 32.3222 44.5791 32.1695C44.9521 31.8363 44.982 31.3083 44.6464 30.982C44.3628 30.7063 38.2074 28.1167 37.844 28.1202C37.6951 28.1217 37.504 28.1632 37.4194 28.2125ZM25.249 29.8553C25.1415 29.9389 25.0093 30.135 24.9552 30.2912C24.8135 30.7009 25.0652 31.191 25.5011 31.3543C26.3496 31.672 27.0184 30.601 26.374 29.9565C26.072 29.6545 25.5659 29.6091 25.249 29.8553ZM10.2308 33.4392C10.0811 33.5143 9.41871 34.1207 8.75865 34.7867C7.64745 35.9082 7.55859 36.0222 7.55859 36.3262C7.55859 36.5067 7.59929 36.7306 7.64912 36.8236C7.78535 37.0783 8.24449 37.2836 8.54385 37.2237C8.86764 37.159 11.1792 34.9919 11.3833 34.5619C11.727 33.8377 10.9486 33.0796 10.2308 33.4392ZM33.8401 33.6329C33.4079 33.8502 33.2384 34.311 33.4368 34.729C33.5155 34.895 34.1256 35.5715 34.7926 36.2323C35.9155 37.345 36.0296 37.434 36.3336 37.434C36.5142 37.434 36.738 37.3933 36.831 37.3434C37.0854 37.2073 37.291 36.748 37.2313 36.4492C37.1649 36.1175 34.8786 33.6976 34.5102 33.5691C34.1794 33.4539 34.1996 33.452 33.8401 33.6329ZM15.4772 37.2362C15.2857 37.4156 14.8776 38.291 13.8938 40.633C13.1648 42.3683 12.5684 43.9003 12.5684 44.0374C12.5684 44.1882 12.6689 44.3992 12.8231 44.5716C13.1563 44.9447 13.6842 44.9745 14.0106 44.639C14.2852 44.3565 16.8757 38.2005 16.8731 37.8366C16.8698 37.3898 16.4408 36.9945 15.9594 36.9945C15.836 36.9945 15.6192 37.1031 15.4772 37.2362ZM28.42 37.1696C28.1508 37.2782 27.9492 37.6036 27.9492 37.9297C27.9492 38.088 28.5057 39.5832 29.2261 41.3598C30.5642 44.6601 30.7487 44.9926 31.2424 44.9926C31.7395 44.9926 32.168 44.5834 32.168 44.1087C32.168 44.0045 31.5901 42.4897 30.8838 40.7425C29.5242 37.379 29.3556 37.0762 28.8487 37.0879C28.7165 37.091 28.5237 37.1278 28.42 37.1696ZM22.0702 38.4356C21.6656 38.6598 21.6275 38.854 21.6242 40.7123C21.6208 42.6076 21.6694 42.8448 22.102 43.0418C22.4942 43.2205 22.7603 43.1678 23.0801 42.848L23.3789 42.5492V40.7867C23.3789 39.6075 23.3442 38.948 23.2739 38.7938C23.0815 38.3714 22.4988 38.198 22.0702 38.4356Z" fill="white"/>
</svg>
