<svg width="42" height="45" viewBox="0 0 42 45" fill="none" xmlns="http://www.w3.org/2000/svg">
<path fill-rule="evenodd" clip-rule="evenodd" d="M20.2111 0.0576725C18.793 0.415101 17.7978 1.80867 17.8799 3.32149L17.9052 3.78736L17.5023 4.01005C16.3269 4.65965 15.3207 5.74679 14.6911 7.04713C14.2479 7.96269 14.0845 8.66198 14.0193 9.9216L13.9661 10.9491L14.2358 11.2189C14.4777 11.4607 14.5609 11.4886 15.04 11.4886H15.5745V12.2758C15.5745 13.31 15.6919 13.8394 16.12 14.736C16.7788 16.1155 18.1341 17.2118 19.6607 17.5998C20.3324 17.7706 21.5465 17.7706 22.2182 17.5998C24.1367 17.1121 25.6835 15.5653 26.1711 13.6469C26.2444 13.3586 26.3044 12.7545 26.3044 12.3046V11.4865L26.8925 11.4992C27.4374 11.511 27.4965 11.4935 27.696 11.2616C27.9061 11.0174 27.9102 10.9849 27.8594 9.95264C27.7963 8.66743 27.6356 7.9721 27.1878 7.04713C26.5582 5.74679 25.552 4.65965 24.3766 4.01005L23.9737 3.78736L23.999 3.32149C24.0712 1.99292 23.322 0.750717 22.131 0.22381C21.665 0.0177433 20.7006 -0.065721 20.2111 0.0576725ZM21.5799 1.58343C22.1215 1.81509 22.5225 2.40373 22.5225 2.96688V3.22861L21.8409 3.16168C20.9962 3.07875 20.8827 3.07875 20.038 3.16168L19.3564 3.22861V2.96688C19.3564 2.41394 19.7522 1.82247 20.2798 1.58694C20.6247 1.43303 21.2246 1.43136 21.5799 1.58343ZM22.6105 4.80555C23.4883 5.09808 24.0869 5.47758 24.8187 6.20554C25.3454 6.72937 25.5642 7.03051 25.846 7.61881C26.2178 8.39487 26.4279 9.21888 26.3776 9.70374L26.3484 9.98492L25.7767 9.71219C25.3531 9.51008 24.9924 9.22644 24.3841 8.61712C23.405 7.63631 23.3762 7.63033 22.2789 8.1779C20.4118 9.10973 18.3659 9.68325 15.9923 9.94024L15.4866 9.99495V9.64675C15.4866 9.05274 15.6639 8.39672 16.0347 7.61881C16.6486 6.33069 17.9039 5.24284 19.2684 4.81611C20.0826 4.56149 20.1809 4.54944 21.1593 4.58401C21.7562 4.60512 22.2226 4.67627 22.6105 4.80555ZM23.6063 9.95414C23.9031 10.2227 24.319 10.5493 24.5305 10.6797L24.9151 10.9169L24.867 12.0163C24.799 13.5712 24.522 14.3125 23.7029 15.1316C22.9436 15.8908 22.0326 16.2643 20.9395 16.2643C19.8463 16.2643 18.9353 15.8908 18.176 15.1316C17.3994 14.355 17.0942 13.5924 17.0105 12.2191C16.9559 11.3248 16.9563 11.3225 17.1667 11.2785C17.2826 11.2542 17.8127 11.1507 18.3445 11.0484C19.4979 10.8266 21.4462 10.2031 22.3027 9.78176C22.6413 9.61518 22.9517 9.47595 22.9925 9.47235C23.0332 9.46874 23.3094 9.68554 23.6063 9.95414ZM15.6185 17.9213C13.2051 18.1583 11.0575 19.9866 10.4324 22.3366C10.3532 22.6344 10.0788 24.4549 9.8226 26.3821L9.35673 29.8861L7.12808 32.1161L4.89943 34.346L4.55449 34.0344C4.08484 33.6102 3.69566 33.4651 3.02733 33.4651C1.74071 33.4651 0.723573 34.1636 0.216982 35.3953C-0.215115 36.4458 0.00854137 37.6516 0.795164 38.5123C1.26218 39.0232 1.75698 39.3087 2.45495 39.4698C2.70746 39.528 2.90112 39.5984 2.88538 39.6261C2.86964 39.6538 2.76876 39.8625 2.6612 40.0899C1.7196 42.0802 2.94791 44.4998 5.10796 44.9094C5.74463 45.0302 36.1343 45.0302 36.7709 44.9094C38.931 44.4998 40.1593 42.0802 39.2177 40.0899C39.1101 39.8625 39.0091 39.6534 38.9932 39.6251C38.9773 39.5968 39.1761 39.5263 39.4351 39.4683C40.3784 39.2572 41.17 38.6409 41.5842 37.7951C41.9191 37.1113 41.9639 36.0947 41.6912 35.3715C41.3234 34.3959 40.4092 33.6543 39.3747 33.4921C38.5339 33.3603 37.8769 33.5352 37.3184 34.0398L36.9778 34.3475L34.7346 32.0869L32.4914 29.8261L32.0292 26.2642C31.4637 21.9063 31.3173 21.3828 30.3201 20.1517C29.2046 18.7745 27.5062 17.9183 25.8541 17.9C24.9539 17.8901 24.5915 18.0818 24.2579 18.7445C24.1625 18.9337 24.1156 19.3812 24.0917 20.3276C24.06 21.5885 24.0465 21.672 23.7854 22.2185C23.2294 23.3825 22.1788 24.0635 20.9395 24.0635C19.6994 24.0635 18.6476 23.3813 18.0948 22.2185C17.8368 21.676 17.8206 21.5771 17.7762 20.2836C17.7366 19.1331 17.7018 18.8737 17.5534 18.6218C17.1857 17.9974 16.6859 17.8165 15.6185 17.9213ZM16.2788 19.9977C16.2807 21.9524 16.6803 23.1484 17.6582 24.1263C18.6141 25.0822 19.6325 25.5124 20.9395 25.5124C22.2464 25.5124 23.2648 25.0822 24.2207 24.1263C25.2001 23.1469 25.5982 21.9529 25.6001 19.9895L25.6008 19.2996L26.0625 19.3591C26.3164 19.3919 26.6741 19.4617 26.8572 19.5142C27.1854 19.6083 27.1895 19.6149 27.1401 19.9686C26.8248 22.228 25.7767 31.7211 25.7767 32.318C25.7767 32.9908 25.8595 33.4388 26.3513 35.4229C26.6673 36.6982 26.947 37.8109 26.9728 37.8955C27.0173 38.0411 26.6896 38.0494 20.9395 38.0494C15.1893 38.0494 14.8616 38.0411 14.9061 37.8955C14.932 37.8109 15.2116 36.6982 15.5276 35.4229C16.0194 33.4388 16.1022 32.9908 16.1022 32.318C16.1022 31.7207 15.0535 22.2225 14.7385 19.9662L14.688 19.6048L15.0653 19.5065C15.4786 19.3988 15.7764 19.3465 16.0802 19.3281C16.2694 19.3167 16.2781 19.3461 16.2788 19.9977ZM13.5828 22.6032L13.8295 24.7469L13.2437 27.6823C12.8698 29.5554 12.5752 30.8086 12.4295 31.1454C12.226 31.616 11.858 32.0185 9.02867 34.8655L5.85606 38.0578L4.13391 38.0317L2.41177 38.0055L2.08899 37.759C1.28267 37.1436 1.23351 36.0966 1.97598 35.354C2.67316 34.6569 3.67218 34.769 3.8348 35.5627C3.96998 36.2222 4.3902 36.5666 4.83496 36.3824C4.9675 36.3275 6.34691 35.008 7.90028 33.4501C10.2915 31.0519 10.7323 30.5704 10.7755 30.3099C10.8036 30.1406 11.025 28.5057 11.2676 26.6769C11.7943 22.7063 11.8147 22.6021 12.2089 21.8447C12.4968 21.2918 13.1376 20.4595 13.2754 20.4595C13.3088 20.4595 13.4471 21.4241 13.5828 22.6032ZM29.0124 20.8553C29.4586 21.3621 29.9521 22.3099 30.0746 22.8951C30.1271 23.1463 30.3686 24.8482 30.6113 26.6769C30.8539 28.5057 31.0753 30.1406 31.1034 30.3099C31.1466 30.5704 31.5874 31.0519 33.9786 33.4501C35.532 35.008 36.9114 36.3275 37.0439 36.3824C37.4887 36.5666 37.9089 36.2222 38.0441 35.5627C38.1854 34.8736 39.0386 34.68 39.7681 35.1715C40.4637 35.6403 40.6419 36.6666 40.1484 37.3626C39.698 37.9979 39.5106 38.0494 37.6486 38.0494H36.0174L32.8475 34.8613C30.0199 32.0174 29.653 31.6161 29.4494 31.1454C29.3037 30.8086 29.0091 29.5554 28.6352 27.6823L28.0494 24.7469L28.2961 22.6032C28.4318 21.4241 28.5702 20.4595 28.6035 20.4595C28.6368 20.4595 28.8209 20.6376 29.0124 20.8553ZM14.6235 32.1128C14.6346 33.0276 14.6055 33.1976 14.0898 35.235C13.7899 36.4202 13.5051 37.5383 13.4568 37.7196L13.369 38.0494H10.6736H7.9782L10.6185 35.389C13.105 32.8836 13.28 32.6861 13.6207 32.0017C13.8415 31.558 14.0612 30.9255 14.1846 30.3785L14.3868 29.4822L14.4992 30.3137C14.5612 30.7712 14.6171 31.5807 14.6235 32.1128ZM28.2918 32.0818C28.587 32.6511 28.9429 33.0469 31.264 35.389L33.9007 38.0494H31.2053H28.5099L28.4221 37.7196C27.2168 33.1907 27.1177 32.525 27.3544 30.5394L27.479 29.4938L27.7177 30.4645C27.8569 31.0304 28.0962 31.7047 28.2918 32.0818ZM10.9208 40.128C11.0058 41.015 11.5511 41.7499 12.3282 42.0245C12.4932 42.0828 13.7926 42.3902 15.2157 42.7075C16.7784 43.0559 17.8179 43.3284 17.8403 43.3956C17.87 43.4846 16.6034 43.502 11.471 43.4825L5.06451 43.4584L4.65554 43.1744C3.58854 42.4334 3.49733 40.8864 4.47243 40.0678C5.06908 39.5669 5.15616 39.5551 8.14275 39.5726L10.8692 39.5886L10.9208 40.128ZM17.8612 40.6739V41.8032L15.397 41.2546C14.0416 40.9529 12.8328 40.6405 12.7106 40.5605C12.4693 40.4024 12.3204 40.0964 12.3204 39.7587V39.5446H15.0908H17.8612V40.6739ZM36.695 39.6467C37.1501 39.783 37.7243 40.2878 37.9238 40.727C38.3036 41.563 37.996 42.6378 37.2234 43.1744L36.8144 43.4584L28.0854 43.482L19.3564 43.5057V41.5251V39.5446H27.8553C34.0507 39.5446 36.4466 39.5723 36.695 39.6467Z" fill="white"/>
</svg>
